<svg width="24" height="24" viewBox="0 0 24 24" fill="none" xmlns="http://www.w3.org/2000/svg">
<path fill-rule="evenodd" clip-rule="evenodd" d="M9.2929 0.707107C9.68342 0.316582 10.3166 0.316583 10.7071 0.707107L12.1213 2.12132C12.5118 2.51184 12.5118 3.14501 12.1213 3.53553L10.7071 4.94975C10.3166 5.34027 9.68342 5.34027 9.2929 4.94975L7.87868 3.53553C7.48816 3.14501 7.48816 2.51184 7.87868 2.12132L9.2929 0.707107ZM7.46447 6.53553C7.85499 6.14501 8.48816 6.14501 8.87868 6.53553L9.63604 7.29289C10.0266 7.68342 10.0266 8.31658 9.63604 8.70711L8.87868 9.46447C8.48816 9.85499 7.85499 9.85499 7.46447 9.46447L6.70711 8.70711C6.31658 8.31658 6.31658 7.68342 6.70711 7.29289L7.08579 6.91421L7.46447 6.53553ZM13.2929 5.53553C12.9024 5.14501 12.2692 5.14501 11.8787 5.53553L11.7071 5.70711C11.3166 6.09763 11.3166 6.7308 11.7071 7.12132L11.8787 7.2929C12.2692 7.68342 12.9024 7.68342 13.2929 7.2929L13.4645 7.12132C13.855 6.7308 13.855 6.09763 13.4645 5.70711L13.2929 5.53553Z" fill="#4BD274"/>
<path d="M19.3895 19.8V13.5297L19.5129 12.9123C19.8256 11.3469 19.9851 9.75492 19.9892 8.1587L20.9195 5.83303C21.0143 5.59327 21.0244 5.32828 20.9479 5.08203C20.8714 4.83579 20.713 4.62311 20.499 4.47929L20.4777 4.46508C19.8006 4.01198 19.0042 3.77011 18.1895 3.77011C17.3749 3.77011 16.5785 4.01198 15.9014 4.46508L15.8801 4.47929C15.6661 4.6231 15.5077 4.83578 15.4312 5.08203C15.3547 5.32827 15.3648 5.59327 15.4597 5.83303L16.3899 8.15874C16.394 9.75494 16.5535 11.347 16.8662 12.9123L16.9896 13.5298V19.8C16.9896 20.1183 17.1161 20.4235 17.3411 20.6485C17.5662 20.8736 17.8714 21 18.1896 21C18.5079 21 18.8131 20.8736 19.0382 20.6485C19.2632 20.4235 19.3896 20.1183 19.3896 19.8H19.3895ZM16.8926 7.80005L16.0166 5.61006C15.9723 5.49816 15.9676 5.37449 16.0033 5.25956C16.039 5.14464 16.113 5.04538 16.2128 4.97826L16.2341 4.96405C16.8127 4.57687 17.4932 4.37019 18.1894 4.37019C18.8856 4.37019 19.5661 4.57687 20.1447 4.96405L20.1661 4.97826C20.266 5.04537 20.3399 5.14462 20.3756 5.25955C20.4113 5.37447 20.4067 5.49815 20.3624 5.61006L19.4864 7.80005H18.8554L19.0836 6.65889C19.0916 6.62017 19.0918 6.58024 19.0843 6.54142C19.0768 6.5026 19.0617 6.46565 19.0399 6.43269C19.018 6.39973 18.9899 6.37141 18.9571 6.34936C18.9242 6.32731 18.8874 6.31197 18.8486 6.30421C18.8098 6.29646 18.7699 6.29645 18.7311 6.30417C18.6924 6.3119 18.6555 6.32722 18.6227 6.34924C18.5898 6.37127 18.5617 6.39957 18.5398 6.43251C18.5179 6.46546 18.5028 6.5024 18.4953 6.54122L18.2437 7.80005H18.1356L17.8837 6.54122C17.8761 6.5024 17.861 6.46546 17.8392 6.43251C17.8173 6.39957 17.7891 6.37127 17.7563 6.34924C17.7235 6.32722 17.6866 6.3119 17.6478 6.30417C17.609 6.29645 17.5691 6.29646 17.5303 6.30421C17.4916 6.31197 17.4547 6.32731 17.4219 6.34936C17.3891 6.37141 17.3609 6.39973 17.3391 6.43269C17.3173 6.46565 17.3021 6.5026 17.2946 6.54142C17.2871 6.58024 17.2874 6.62017 17.2953 6.65889L17.5237 7.80005H16.8926ZM18.7895 19.8C18.7895 19.9591 18.7262 20.1117 18.6137 20.2243C18.5012 20.3368 18.3486 20.4 18.1895 20.4C18.0303 20.4 17.8777 20.3368 17.7652 20.2243C17.6527 20.1117 17.5895 19.9591 17.5895 19.8V13.8H18.7895V19.8ZM18.8437 13.2H17.5354L17.4543 12.7946C17.1651 11.3471 17.0101 9.87602 16.9912 8.40005H19.3874C19.3799 9.00035 19.3496 9.60034 19.2964 10.2H18.4895C18.4099 10.2 18.3336 10.2316 18.2773 10.2879C18.2211 10.3442 18.1895 10.4205 18.1895 10.5C18.1895 10.5796 18.2211 10.6559 18.2773 10.7122C18.3336 10.7684 18.4099 10.8 18.4895 10.8H19.2361C19.1602 11.4694 19.0563 12.1343 18.9246 12.7946L18.8437 13.2Z" fill="#333333"/>
<path d="M14.9768 12.0761L14.3884 11.88C14.2869 11.8462 14.1789 11.837 14.0732 11.8531C13.9674 11.8692 13.8671 11.9103 13.7803 11.9728C13.6935 12.0353 13.6229 12.1176 13.5741 12.2128C13.5254 12.3079 13.5 12.4134 13.5 12.5203V15.6C13.4204 15.6 13.3441 15.6316 13.2878 15.6879C13.2316 15.7441 13.2 15.8205 13.2 15.9V20.7C13.2 20.7796 13.2316 20.8559 13.2878 20.9121C13.3441 20.9684 13.4204 21 13.5 21H15.8999C15.9795 21 16.0558 20.9684 16.1121 20.9121C16.1683 20.8559 16.1999 20.7796 16.1999 20.7V15.9C16.1999 15.8205 16.1683 15.7441 16.1121 15.6879C16.0558 15.6316 15.9795 15.6 15.8999 15.6V13.3569C15.9002 13.0734 15.8111 12.7972 15.6454 12.5673C15.4797 12.3373 15.2458 12.1655 14.9768 12.0761ZM14.0999 12.5203C14.0999 12.5084 14.1027 12.4967 14.1082 12.4861C14.1136 12.4755 14.1214 12.4663 14.1311 12.4594C14.1407 12.4524 14.1519 12.4479 14.1636 12.4461C14.1754 12.4443 14.1874 12.4453 14.1987 12.4491L14.7871 12.6452C14.9365 12.6948 15.0665 12.7903 15.1586 12.9181C15.2507 13.0459 15.3001 13.1994 15.2999 13.3569V15.6H14.0999V12.5203ZM15.5999 20.4H13.7999V17.4H15.5999V20.4ZM15.5999 16.8H13.7999V16.2H15.5999V16.8Z" fill="#333333"/>
<path d="M3 18.3V18.45C3.00076 19.1261 3.26967 19.7742 3.74772 20.2523C4.22577 20.7303 4.87393 20.9992 5.54999 21H10.05C10.726 20.9992 11.3742 20.7303 11.8522 20.2523C12.3303 19.7742 12.5992 19.1261 12.6 18.45V18.3C12.6 18.2204 12.5684 18.1441 12.5121 18.0879C12.4558 18.0316 12.3795 18 12.3 18H11.595C11.8985 17.3598 12.0352 16.6533 11.9923 15.9461C11.9493 15.2389 11.7282 14.5541 11.3495 13.9553C10.9707 13.3566 10.4466 12.8634 9.82604 12.5216C9.20544 12.1798 8.50847 12.0006 7.79998 12.0006C7.09149 12.0006 6.39452 12.1798 5.77392 12.5216C5.15332 12.8634 4.62926 13.3566 4.25051 13.9553C3.87177 14.5541 3.65064 15.2389 3.60771 15.9461C3.56479 16.6533 3.70145 17.3598 4.005 18H3.3C3.22043 18 3.14413 18.0316 3.08787 18.0879C3.03161 18.1441 3 18.2204 3 18.3ZM7.79998 12.6C8.43189 12.6001 9.05266 12.7665 9.5999 13.0824C10.1471 13.3984 10.6016 13.8528 10.9176 14.4001C11.2335 14.9473 11.3999 15.5681 11.4 16.2C11.4 16.8319 11.2338 17.4527 10.9179 18H10.201C10.5353 17.5542 10.7388 17.0242 10.7889 16.4692C10.8389 15.9142 10.7334 15.3563 10.4842 14.8579C10.2349 14.3596 9.85188 13.9404 9.37789 13.6475C8.9039 13.3546 8.3577 13.1994 7.80049 13.1994C7.24328 13.1994 6.69708 13.3546 6.22309 13.6475C5.74909 13.9404 5.36603 14.3596 5.11682 14.8579C4.86762 15.3563 4.76211 15.9142 4.81212 16.4692C4.86214 17.0242 5.0657 17.5542 5.39999 18H4.68206C4.36619 17.4527 4.19993 16.8319 4.2 16.2C4.20006 15.5681 4.36644 14.9473 4.68241 14.4001C4.99838 13.8528 5.45282 13.3984 6.00007 13.0824C6.54731 12.7665 7.16807 12.6001 7.79998 12.6ZM8.22159 13.8379C8.46961 13.8819 8.70907 13.9649 8.93105 14.084L6.01176 17.7995C5.86791 17.6387 5.7464 17.4593 5.65049 17.266L8.22159 13.8379ZM5.42804 16.5626C5.37932 16.2471 5.39412 15.9251 5.47159 15.6155C5.54905 15.3058 5.6876 15.0147 5.87912 14.7594C6.07063 14.504 6.31124 14.2895 6.58682 14.1284C6.86239 13.9673 7.16738 13.8629 7.48386 13.8214L5.42804 16.5626ZM9.4208 14.4318C9.66651 14.6572 9.86278 14.9311 9.99721 15.2363C9.99721 15.2363 7.84153 17.9832 7.83283 18H6.61724L9.4208 14.4318ZM6.89999 18.6H8.69998C8.77954 18.6 8.85585 18.6316 8.91211 18.6879C8.96837 18.7441 8.99998 18.8204 8.99998 18.9C8.99998 18.9796 8.96837 19.0559 8.91211 19.1121C8.85585 19.1684 8.77954 19.2 8.69998 19.2H6.89999C6.82042 19.2 6.74411 19.1684 6.68785 19.1121C6.63159 19.0559 6.59999 18.9796 6.59999 18.9C6.59999 18.8204 6.63159 18.7441 6.68785 18.6879C6.74411 18.6316 6.82042 18.6 6.89999 18.6ZM8.58868 18L10.1883 15.9641C10.1958 16.0418 10.2 16.1204 10.2 16.2C10.2006 16.5407 10.1284 16.8776 9.98808 17.188C9.84781 17.4985 9.64275 17.7753 9.38668 18H8.58868ZM6.05159 18.6C6.00353 18.7357 5.98875 18.881 6.00849 19.0237C6.02823 19.1663 6.08193 19.3021 6.16505 19.4197C6.24818 19.5373 6.35831 19.6332 6.4862 19.6994C6.61409 19.7655 6.75599 19.8001 6.89999 19.8H8.69998C8.84395 19.8001 8.98583 19.7656 9.11371 19.6994C9.24158 19.6332 9.35171 19.5374 9.43484 19.4198C9.51797 19.3023 9.57168 19.1665 9.59145 19.0239C9.61122 18.8813 9.59647 18.736 9.54845 18.6003L9.54969 18.6H11.9943C11.9559 19.0895 11.7345 19.5467 11.3741 19.8803C11.0138 20.2138 10.541 20.3994 10.05 20.4H5.54999C5.05895 20.3994 4.58615 20.2138 4.22582 19.8803C3.86548 19.5467 3.64407 19.0895 3.6057 18.6H6.05159Z" fill="#333333"/>
<path d="M11.5336 7.44965L12.0143 7.77016C12.2456 7.9245 12.4326 8.13642 12.557 8.38504L12.6317 8.53437C12.6566 8.58419 12.6949 8.62609 12.7423 8.65538C12.7897 8.68466 12.8443 8.70017 12.9 8.70017C12.9557 8.70017 13.0103 8.68466 13.0577 8.65538C13.1051 8.62609 13.1434 8.58419 13.1683 8.53437L13.2429 8.38504C13.3673 8.13638 13.5544 7.92441 13.7856 7.77005L14.2664 7.44954C14.3131 7.41838 14.3502 7.37474 14.3733 7.32357C14.3965 7.2724 14.4048 7.21576 14.3973 7.1601C14.3899 7.10443 14.3669 7.05198 14.3311 7.0087C14.2954 6.96543 14.2481 6.93307 14.1948 6.91531C13.9599 6.83637 13.7464 6.70407 13.5711 6.5288C13.3958 6.35352 13.2635 6.14003 13.1846 5.90507C13.1647 5.84532 13.1265 5.79335 13.0754 5.75652C13.0243 5.71969 12.963 5.69987 12.9 5.69987C12.837 5.69987 12.7756 5.71969 12.7245 5.75652C12.6735 5.79335 12.6353 5.84532 12.6154 5.90507C12.5364 6.14003 12.4041 6.35352 12.2288 6.5288C12.0536 6.70407 11.8401 6.83637 11.6051 6.91531C11.5518 6.93307 11.5046 6.96543 11.4688 7.0087C11.433 7.05198 11.4101 7.10443 11.4026 7.1601C11.3952 7.21576 11.4035 7.2724 11.4266 7.32357C11.4498 7.37474 11.4868 7.41838 11.5336 7.44954V7.44965ZM12.9 6.65881C13.0613 6.88865 13.2648 7.08577 13.4996 7.23972L13.4528 7.27096C13.2391 7.41354 13.052 7.59246 12.9 7.7996C12.748 7.59241 12.5609 7.41345 12.3472 7.27085L12.3003 7.23961C12.5351 7.08569 12.7386 6.88861 12.9 6.65881Z" fill="#333333"/>
<path d="M10.8949 8.71542C10.6599 8.63648 10.4464 8.50418 10.2711 8.32891C10.0959 8.15363 9.96356 7.94014 9.88461 7.70518C9.86471 7.64543 9.82651 7.59346 9.77543 7.55663C9.72434 7.5198 9.66296 7.49998 9.59999 7.49998C9.53701 7.49998 9.47563 7.5198 9.42455 7.55663C9.37347 7.59346 9.33527 7.64543 9.31536 7.70518C9.23642 7.94014 9.10412 8.15363 8.92885 8.32891C8.75357 8.50418 8.54008 8.63648 8.30512 8.71542C8.25184 8.73318 8.20461 8.76554 8.16881 8.80881C8.13302 8.85209 8.11009 8.90454 8.10263 8.96021C8.09518 9.01587 8.1035 9.07251 8.12664 9.12368C8.14979 9.17485 8.18684 9.21849 8.23357 9.24965L8.71435 9.57016C8.94559 9.72449 9.13262 9.93642 9.25701 10.185L9.33168 10.3344C9.35659 10.3842 9.39489 10.4261 9.44228 10.4554C9.48967 10.4847 9.54428 10.5002 9.59999 10.5002C9.65569 10.5002 9.7103 10.4847 9.75769 10.4554C9.80508 10.4261 9.84338 10.3842 9.8683 10.3344L9.94296 10.185C10.0673 9.93638 10.2544 9.72441 10.4856 9.57004L10.9664 9.24953C11.0131 9.21838 11.0502 9.17474 11.0733 9.12357C11.0965 9.0724 11.1048 9.01576 11.0973 8.96009C11.0899 8.90443 11.067 8.85197 11.0312 8.8087C10.9954 8.76543 10.9481 8.73307 10.8949 8.71531V8.71542ZM10.1528 9.07096C9.93908 9.21354 9.75198 9.39245 9.59999 9.59959C9.44801 9.39241 9.26091 9.21345 9.04716 9.07085L9.00033 9.03961C9.23516 8.88569 9.43865 8.6886 9.59999 8.45881C9.76132 8.68865 9.96481 8.88577 10.1996 9.03972L10.1528 9.07096Z" fill="#333333"/>
<path d="M11.6856 5.07006L12.1664 4.74955C12.2131 4.71839 12.2501 4.67475 12.2733 4.62359C12.2964 4.57244 12.3047 4.51582 12.2972 4.46017C12.2898 4.40453 12.2669 4.3521 12.2311 4.30883C12.1953 4.26557 12.1481 4.23321 12.0949 4.21544C11.8599 4.13649 11.6464 4.0042 11.4711 3.82892C11.2959 3.65365 11.1636 3.44016 11.0846 3.20519C11.0647 3.14544 11.0265 3.09347 10.9754 3.05665C10.9244 3.01982 10.863 3 10.8 3C10.737 3 10.6756 3.01982 10.6246 3.05665C10.5735 3.09347 10.5353 3.14544 10.5154 3.20519C10.4364 3.44016 10.3041 3.65365 10.1289 3.82892C9.95359 4.0042 9.7401 4.13649 9.50513 4.21544C9.45185 4.2332 9.40462 4.26555 9.36883 4.30883C9.33303 4.3521 9.3101 4.40456 9.30264 4.46022C9.29519 4.51589 9.30351 4.57253 9.32666 4.62369C9.3498 4.67486 9.38685 4.71851 9.43358 4.74966L9.91437 5.07006C10.1456 5.22443 10.3326 5.43639 10.457 5.68506L10.5317 5.83438C10.5566 5.8842 10.5949 5.92611 10.6423 5.95539C10.6897 5.98467 10.7443 6.00019 10.8 6.00019C10.8557 6.00019 10.9103 5.98467 10.9577 5.95539C11.0051 5.92611 11.0434 5.8842 11.0683 5.83438L11.143 5.68506C11.2674 5.43639 11.4544 5.22443 11.6856 5.07006ZM10.8 5.09961C10.648 4.89242 10.4609 4.71346 10.2472 4.57086L10.2003 4.53962C10.4352 4.38571 10.6387 4.18862 10.8 3.95883C10.9613 4.18866 11.1648 4.38579 11.3997 4.53974L11.3528 4.57097C11.1391 4.71355 10.952 4.89247 10.8 5.09961Z" fill="#333333"/>
</svg>
