<svg width="24" height="24" viewBox="0 0 24 24" fill="none" xmlns="http://www.w3.org/2000/svg">
<path fill-rule="evenodd" clip-rule="evenodd" d="M10 4.76619V17C10 17.5523 9.55228 18 9 18H4C3.44771 18 3 17.5523 3 17L3 11.5C3 11.2239 2.77614 11 2.5 11C2.22386 11 2 10.7761 2 10.5V8.36619C2 8.01493 2.1843 7.68942 2.4855 7.5087L8.48551 3.9087C9.15203 3.50879 10 3.9889 10 4.76619Z" fill="#4BD274"/>
<path d="M20.129 18.6774H19.2581V9.83942C19.4244 9.92187 19.6073 9.96774 19.7937 9.96774C20.4588 9.96774 21 9.42658 21 8.75071C21 8.32423 20.7715 7.92561 20.4037 7.71019L12.369 3H11.6293L8.51613 4.86794V5.03226H8.44094L5.6129 6.60348V6.77419H5.52958L3 8.35529V10.2581H3.65526L4.16129 9.97906V18.6774H3.87097C3.39077 18.6774 3 19.0682 3 19.5484V20.129C3 20.6092 3.39077 21 3.87097 21H20.129C20.6092 21 21 20.6092 21 20.129V19.5484C21 19.0682 20.6092 18.6774 20.129 18.6774ZM12.2903 3.62681L20.1102 8.211C20.3009 8.32248 20.4194 8.52948 20.4194 8.76145C20.4194 9.10635 20.1386 9.3871 19.7937 9.3871C19.6843 9.3871 19.576 9.35806 19.481 9.30319L12.2903 5.15506V3.62681ZM12.2903 5.82513L18.6774 9.5099V18.6774H12.2903V5.82513ZM9.09677 5.19658L11.7097 3.62884V5.15129L9.09677 6.59274V5.19658ZM6.19355 6.94519L8.51613 5.65471V6.91326L6.19355 8.19474V6.94519ZM11.7097 5.81439V9.3871H5.23403L11.7097 5.81439ZM9.67742 16.9355V15.7742H11.7097V16.9355H9.67742ZM11.7097 17.5161V18.6774H10.8387V17.5161H11.7097ZM4.74194 16.9355V15.7742H6.77419V16.9355H4.74194ZM5.6129 17.5161V18.6774H4.74194V17.5161H5.6129ZM4.74194 15.1935V14.0323H5.6129V15.1935H4.74194ZM6.19355 17.5161H7.93548V18.6774H6.19355V17.5161ZM7.35484 16.9355V15.7742H9.09677V16.9355H7.35484ZM8.51613 15.1935V14.0323H10.2581V15.1935H8.51613ZM8.51613 17.5161H10.2581V18.6774H8.51613V17.5161ZM10.8387 15.1935V14.0323H11.7097V15.1935H10.8387ZM7.35484 13.4516V14.0323H7.93548V15.1935H6.19355V14.0323H6.77419V13.4516H4.74194V9.96774H11.7097V13.4516H7.35484ZM3.58065 9.63619V8.67697L5.6129 7.40681V8.51497L3.58065 9.63619ZM20.4194 20.129C20.4194 20.289 20.289 20.4194 20.129 20.4194H3.87097C3.711 20.4194 3.58065 20.289 3.58065 20.129V19.5484C3.58065 19.3884 3.711 19.2581 3.87097 19.2581H20.129C20.289 19.2581 20.4194 19.3884 20.4194 19.5484V20.129Z" fill="#333333"/>
<path d="M12.871 15.7742H18.0968V11.129H12.871V15.7742ZM15.7742 11.7097H17.5161V13.1613H15.7742V11.7097ZM15.7742 13.7419H17.5161V15.1935H15.7742V13.7419ZM13.4516 11.7097H15.1936V13.1613H13.4516V11.7097ZM13.4516 13.7419H15.1936V15.1935H13.4516V13.7419Z" fill="#333333"/>
</svg>
