<svg width="24" height="24" viewBox="0 0 24 24" fill="none" xmlns="http://www.w3.org/2000/svg">
<path d="M19.5 13.5L19.0988 9.88957C19.0426 9.38314 18.6145 9 18.105 9H8.39504C7.88549 9 7.45743 9.38314 7.40116 9.88957L7 13.5H19.5Z" fill="#4BD274"/>
<path d="M20.3813 11.6133H19.4654C19.3214 11.6133 19.1823 11.6459 19.0565 11.7051L18.661 8.33827C18.6993 8.31548 18.7354 8.28831 18.7677 8.25593C18.8696 8.15398 18.9258 8.01848 18.9258 7.87438C18.9258 7.33839 18.4897 6.90231 17.9537 6.90231H17.6269C17.4813 6.90231 17.3633 7.02036 17.3633 7.16598C17.3633 7.3116 17.4813 7.42965 17.6269 7.42965H17.9537C18.1989 7.42965 18.3984 7.62916 18.3984 7.87438C18.3984 7.87589 18.3984 7.87944 18.3949 7.88303C18.3912 7.88672 18.3876 7.88672 18.3861 7.88672H9.16015C9.1553 7.83205 9.15234 7.77707 9.15234 7.72162V7.42969H16.5019C16.6476 7.42969 16.7656 7.31163 16.7656 7.16602C16.7656 7.0204 16.6476 6.90234 16.5019 6.90234H9.15234V4.50768C9.15234 3.67634 8.47601 3 7.64467 3H4.50768C3.67634 3 3 3.67634 3 4.50768V7.64467C3 8.47601 3.67634 9.15234 4.50768 9.15234H6.1925L6.10472 9.89994C6.08774 10.0446 6.1912 10.1756 6.33584 10.1925C6.34628 10.1938 6.35665 10.1944 6.36691 10.1944C6.49879 10.1944 6.61269 10.0956 6.62844 9.96143L6.72347 9.15234H7.53069C7.8388 9.15234 8.14466 9.23025 8.41526 9.37766L9.04266 9.71945C9.10692 9.75446 9.176 9.77162 9.24438 9.77162C9.34616 9.77162 9.44629 9.73358 9.52641 9.65982C9.66039 9.53646 9.69934 9.34915 9.62569 9.18258L9.31034 8.46957C9.30222 8.45122 9.29497 8.43263 9.28748 8.4141H18.1389L18.6064 12.3945C18.5512 12.3897 18.4954 12.3868 18.439 12.3868H17.2753C17.0166 11.6422 16.3007 11.1211 15.498 11.1211C14.6953 11.1211 13.9795 11.6422 13.7207 12.3868H6.51021C6.45375 12.3868 6.39799 12.3897 6.34276 12.3945L6.49513 11.0969C6.51211 10.9522 6.40864 10.8212 6.26401 10.8043C6.11927 10.7873 5.98839 10.8907 5.97141 11.0354L5.89276 11.7052C5.76687 11.6459 5.62779 11.6133 5.48379 11.6133H4.56797C4.22678 11.6133 3.94922 11.8909 3.94922 12.232V12.8578C3.94922 13.199 4.22681 13.4766 4.56797 13.4766H4.77405C4.65111 13.7302 4.58203 14.0146 4.58203 14.3149V16.8773C4.58203 17.1207 4.67337 17.343 4.82338 17.5123C4.6753 17.6504 4.58203 17.8465 4.58203 18.0645V18.4863C4.58203 18.9031 4.92111 19.2422 5.33789 19.2422H5.49609V20.3145C5.49609 20.6925 5.80364 21 6.18164 21H7.51758C7.89558 21 8.20312 20.6925 8.20312 20.3145V19.2422H14.942C15.0876 19.2422 15.2057 19.1241 15.2057 18.9785C15.2057 18.8329 15.0876 18.7148 14.942 18.7148H5.33789C5.21189 18.7148 5.10938 18.6123 5.10938 18.4863V18.0645C5.10938 17.9385 5.21189 17.8359 5.33789 17.8359H19.6113C19.7373 17.8359 19.8398 17.9385 19.8398 18.0645V18.4863C19.8398 18.6123 19.7373 18.7148 19.6113 18.7148H16.0915C15.9459 18.7148 15.8278 18.8329 15.8278 18.9785C15.8278 19.1241 15.9459 19.2422 16.0915 19.2422H16.5352V20.3145C16.5352 20.6925 16.8427 21 17.2207 21H18.5566C18.9346 21 19.2422 20.6925 19.2422 20.3145V19.2422H19.6113C20.0281 19.2422 20.3672 18.9031 20.3672 18.4863V18.0645C20.3672 17.8465 20.2739 17.6504 20.1258 17.5123C20.2759 17.343 20.3672 17.1206 20.3672 16.8773V14.3149C20.3672 14.0146 20.2981 13.7302 20.1752 13.4766H20.3813C20.7224 13.4766 21 13.199 21 12.8578V12.232C21 11.8909 20.7224 11.6133 20.3813 11.6133ZM8.6675 8.91458C8.31977 8.72512 7.92666 8.625 7.53069 8.625H4.50768C3.96711 8.625 3.52734 8.18523 3.52734 7.64467V4.50768C3.52734 3.96711 3.96711 3.52734 4.50768 3.52734H7.64467C8.18523 3.52734 8.625 3.96711 8.625 4.50768V7.72162C8.625 8.05473 8.69331 8.37813 8.82806 8.6828L9.01407 9.10334L8.6675 8.91458ZM7.67578 20.3145C7.67578 20.4017 7.6048 20.4727 7.51758 20.4727H6.18164C6.09442 20.4727 6.02344 20.4017 6.02344 20.3145V19.2422H7.67578V20.3145ZM18.7148 20.3145C18.7148 20.4017 18.6439 20.4727 18.5566 20.4727H17.2207C17.1335 20.4727 17.0625 20.4017 17.0625 20.3145V19.2422H18.7148V20.3145ZM17.7819 12.9142L17.4825 13.3119C17.4213 13.3931 17.3242 13.4415 17.2225 13.4415H7.72669C7.62502 13.4415 7.52784 13.393 7.46671 13.3118L7.16728 12.9142H17.7819ZM15.498 11.6484C16.0117 11.6484 16.476 11.9447 16.7035 12.3867H14.2926C14.5201 11.9447 14.9844 11.6484 15.498 11.6484ZM4.47656 12.8578V12.232C4.47656 12.1816 4.51759 12.1406 4.56797 12.1406H5.48379C5.61693 12.1406 5.74096 12.2017 5.82248 12.3036L5.79657 12.5242C5.55294 12.6217 5.33346 12.767 5.15047 12.9492H4.56797C4.51759 12.9492 4.47656 12.9082 4.47656 12.8578ZM5.54071 17.3086C5.30287 17.3086 5.10938 17.1151 5.10938 16.8773V14.3149C5.10938 13.5435 5.73614 12.9158 6.50712 12.9141L7.04543 13.629C7.20564 13.8418 7.46031 13.9689 7.72669 13.9689H17.2225C17.4889 13.9689 17.7436 13.8418 17.9038 13.629L18.4421 12.9141C19.2131 12.9158 19.8398 13.5435 19.8398 14.3149V16.8773C19.8398 17.1151 19.6463 17.3086 19.4085 17.3086H5.54071ZM20.4727 12.8578C20.4727 12.9082 20.4316 12.9492 20.3813 12.9492H19.7988C19.6158 12.767 19.3963 12.6216 19.1527 12.5242L19.1268 12.3036C19.2083 12.2017 19.3323 12.1406 19.4655 12.1406H20.3813C20.4317 12.1406 20.4727 12.1817 20.4727 12.232V12.8578H20.4727Z" fill="#333333"/>
<path d="M7.24266 14.2148H6.68328C6.1062 14.2148 5.63672 14.6843 5.63672 15.2614V15.7306C5.63672 16.2324 6.04495 16.6406 6.54674 16.6406H7.86285C8.36063 16.6406 8.76562 16.2356 8.76562 15.7378C8.76562 14.8981 8.0824 14.2148 7.24266 14.2148ZM7.86285 16.1133H6.54674C6.33573 16.1133 6.16406 15.9416 6.16406 15.7306V15.2614C6.16406 14.9751 6.39697 14.7422 6.68328 14.7422H7.24266C7.79166 14.7422 8.23828 15.1888 8.23828 15.7378C8.23828 15.9448 8.06985 16.1133 7.86285 16.1133Z" fill="#333333"/>
<path d="M18.2659 14.2148H17.7066C16.8668 14.2148 16.1836 14.8981 16.1836 15.7378C16.1836 16.2356 16.5886 16.6406 17.0864 16.6406H18.4025C18.9043 16.6406 19.3125 16.2324 19.3125 15.7306V15.2614C19.3125 14.6843 18.843 14.2148 18.2659 14.2148ZM18.7852 15.7306C18.7852 15.9416 18.6135 16.1133 18.4025 16.1133H17.0864C16.8793 16.1133 16.7109 15.9448 16.7109 15.7378C16.7109 15.1888 17.1576 14.7422 17.7066 14.7422H18.2659C18.5522 14.7422 18.7852 14.9751 18.7852 15.2614V15.7306Z" fill="#333333"/>
<path d="M13.8984 14.25H11.0508C10.2851 14.25 9.66211 14.873 9.66211 15.6387C9.66211 16.4044 10.2851 17.0273 11.0508 17.0273H13.8984C14.6641 17.0273 15.2871 16.4044 15.2871 15.6387C15.2871 14.873 14.6641 14.25 13.8984 14.25ZM13.8984 16.5H11.0508C10.5759 16.5 10.1895 16.1136 10.1895 15.6387C10.1895 15.1637 10.5759 14.7773 11.0508 14.7773H13.8984C14.3734 14.7773 14.7598 15.1637 14.7598 15.6387C14.7598 16.1136 14.3734 16.5 13.8984 16.5Z" fill="#333333"/>
<path d="M6.00586 5.27643C5.5503 5.27643 5.17969 5.64705 5.17969 6.1026C5.17969 6.55815 5.5503 6.92877 6.00586 6.92877C6.46141 6.92877 6.83203 6.55815 6.83203 6.1026C6.83203 5.64705 6.46141 5.27643 6.00586 5.27643ZM6.00586 6.40143C5.84108 6.40143 5.70703 6.26738 5.70703 6.1026C5.70703 5.93782 5.84108 5.80377 6.00586 5.80377C6.17064 5.80377 6.30469 5.93782 6.30469 6.1026C6.30469 6.26738 6.17064 6.40143 6.00586 6.40143Z" fill="#333333"/>
<path d="M7.78501 5.36565C7.85504 5.0799 7.77679 4.7661 7.55955 4.5489C7.34232 4.33167 7.02848 4.25345 6.7428 4.32345C6.59026 4.0719 6.31302 3.90533 6.00586 3.90533C5.6987 3.90533 5.42146 4.0719 5.26891 4.32345C4.98327 4.25345 4.66939 4.33171 4.45216 4.5489C4.23497 4.7661 4.15675 5.0799 4.22671 5.36565C3.97516 5.5182 3.80859 5.79544 3.80859 6.1026C3.80859 6.40976 3.97516 6.687 4.22671 6.83955C4.15671 7.12526 4.23497 7.4391 4.45216 7.6563C4.66939 7.87349 4.98316 7.95171 5.26891 7.88172C5.42146 8.13322 5.69873 8.29983 6.00586 8.29983C6.31298 8.29983 6.59026 8.13322 6.7428 7.88172C7.02859 7.95171 7.34239 7.87346 7.55955 7.65626C7.77675 7.43906 7.85501 7.12526 7.78501 6.83951C8.03655 6.687 8.20312 6.40976 8.20312 6.1026C8.20312 5.79547 8.03652 5.5182 7.78501 5.36565ZM7.39182 6.43212C7.30035 6.44583 7.22272 6.50651 7.18732 6.59197C7.15192 6.67744 7.16391 6.77521 7.21889 6.8496C7.3162 6.98122 7.30235 7.16773 7.18665 7.28339C7.07099 7.39906 6.88448 7.41291 6.75286 7.31563C6.67847 7.26068 6.58073 7.24866 6.49523 7.28406C6.40977 7.31946 6.34909 7.39705 6.33538 7.48853C6.31109 7.65042 6.16941 7.77249 6.00582 7.77249C5.84224 7.77249 5.70056 7.65042 5.67627 7.48853C5.66256 7.39705 5.60188 7.31943 5.51641 7.28403C5.48393 7.27056 5.44965 7.26395 5.41555 7.26395C5.35997 7.26395 5.30488 7.28153 5.25879 7.3156C5.12713 7.41287 4.94066 7.39906 4.825 7.28336C4.7093 7.16766 4.69545 6.98119 4.79276 6.84956C4.84774 6.77517 4.85973 6.6774 4.82433 6.59194C4.78893 6.50647 4.7113 6.4458 4.61982 6.43208C4.458 6.40786 4.33594 6.26618 4.33594 6.1026C4.33594 5.93902 4.458 5.79734 4.61989 5.77305C4.71137 5.75933 4.789 5.69865 4.82436 5.61319C4.85973 5.52772 4.84778 5.42996 4.79279 5.35556C4.69548 5.22394 4.70933 5.03744 4.82503 4.92177C4.94077 4.80611 5.12723 4.79226 5.25882 4.88953C5.33321 4.94452 5.43098 4.95651 5.51645 4.9211C5.60191 4.8857 5.66259 4.80808 5.6763 4.7166C5.70056 4.55474 5.84224 4.43264 6.00586 4.43264C6.16944 4.43264 6.31112 4.55471 6.33541 4.7166C6.34912 4.80808 6.4098 4.8857 6.49527 4.92107C6.58077 4.95647 6.67854 4.94448 6.75289 4.8895C6.88452 4.79219 7.07099 4.80604 7.18669 4.92174C7.30239 5.0374 7.31624 5.22387 7.21893 5.35549C7.16394 5.42989 7.15195 5.52765 7.18736 5.61312C7.22276 5.69858 7.30035 5.75926 7.39182 5.77297C7.55372 5.79727 7.67578 5.93895 7.67578 6.10253C7.67578 6.26618 7.55372 6.40786 7.39182 6.43212Z" fill="#333333"/>
</svg>
