<svg width="24" height="24" viewBox="0 0 24 24" fill="none" xmlns="http://www.w3.org/2000/svg">
<path d="M12 12H20.5L19.6095 19.124C19.5469 19.6245 19.1215 20 18.6172 20H14V17.5H15V17L14 16H12.5L12 12Z" fill="#4BD274"/>
<path d="M18.183 17.976L18.293 17.0974L17.735 17.0276L17.625 17.9062H16.7812V18.4687H17.625C17.9082 18.4687 18.1481 18.257 18.183 17.976Z" fill="#333333"/>
<path d="M20.1532 8.95716C20.1537 8.94 20.1562 8.92312 20.1562 8.90625C20.1562 8.21887 19.6604 7.64512 19.0076 7.52362C18.8861 6.87084 18.3124 6.375 17.625 6.375C17.1643 6.375 16.7455 6.59606 16.4843 6.9645C16.221 6.91134 15.9558 6.93834 15.7153 7.03059C15.4616 6.62897 15.0173 6.375 14.5312 6.375C13.9654 6.375 13.4594 6.71925 13.2406 7.22438C13.0687 7.20806 12.9023 7.22691 12.7383 7.27528C12.4196 6.88406 11.9482 6.65625 11.4375 6.65625C11.0049 6.65625 10.6115 6.82106 10.3125 7.08937V4.40625C10.3125 3.78581 9.80794 3.28125 9.1875 3.28125C8.56706 3.28125 8.0625 3.78581 8.0625 4.40625V13.9688H7.5C7.03481 13.9688 6.65625 14.3473 6.65625 14.8125V15.6562H4.6875C3.91209 15.6562 3.28125 16.2871 3.28125 17.0625V17.9062H3.84375V20.7188H14.5312V19.5938H17.7569C18.4648 19.5938 19.0647 19.0642 19.1533 18.354L19.8491 11.1562H19.875C20.3402 11.1562 20.7188 10.7777 20.7188 10.3125V9.75C20.7188 9.38269 20.4814 9.07275 20.1532 8.95716ZM11.4375 7.21875C11.8301 7.21875 12.1879 7.42209 12.3952 7.76269L12.5285 7.9815L12.7588 7.86928C12.9453 7.77872 13.1073 7.7475 13.3542 7.81809L13.6442 7.9005L13.7066 7.60575C13.7882 7.21847 14.1353 6.9375 14.5312 6.9375C14.8865 6.9375 15.2048 7.16531 15.3235 7.5045L15.4442 7.84931L15.7468 7.64456C15.9662 7.49634 16.2387 7.45247 16.5157 7.55738L16.7565 7.6485L16.8684 7.41675C17.011 7.12116 17.3013 6.9375 17.625 6.9375C18.0902 6.9375 18.4688 7.31606 18.4688 7.78125V8.0625H18.75C19.2152 8.0625 19.5938 8.44106 19.5938 8.90625H10.5938C10.4948 8.90625 10.4008 8.9265 10.3125 8.958V8.34375C10.3125 7.72331 10.8171 7.21875 11.4375 7.21875V7.21875ZM10.6196 11.1562L10.8916 13.9704C10.886 13.9704 10.8806 13.9688 10.875 13.9688H10.3125V11.1045C10.4008 11.136 10.4948 11.1562 10.5938 11.1562H10.6196ZM8.625 4.40625C8.625 4.09603 8.87728 3.84375 9.1875 3.84375C9.49772 3.84375 9.75 4.09603 9.75 4.40625V9.75V10.3125V13.9688H8.625V4.40625ZM7.21875 14.8125C7.21875 14.6575 7.34503 14.5312 7.5 14.5312H10.875C11.03 14.5312 11.1562 14.6575 11.1562 14.8125V15.6562H7.21875V14.8125ZM3.84375 17.0625C3.84375 16.5973 4.22231 16.2188 4.6875 16.2188H13.6875C14.1527 16.2188 14.5312 16.5973 14.5312 17.0625V17.3438H3.84375V17.0625ZM10.5938 18.4688V20.1562H10.0312V17.9062H11.7188V20.1562H11.1562V18.4688H10.5938ZM8.34375 18.4688V20.1562H7.78125V17.9062H9.46875V20.1562H8.90625V18.4688H8.34375ZM6.09375 18.4688V20.1562H5.53125V17.9062H7.21875V20.1562H6.65625V18.4688H6.09375ZM4.40625 17.9062H4.96875V20.1562H4.40625V17.9062ZM13.4062 20.1562V18.4688H12.8438V20.1562H12.2812V17.9062H13.9688V20.1562H13.4062ZM18.5942 18.2921C18.5416 18.7134 18.1816 19.0312 17.7569 19.0312H14.5312V17.9062H15.0938V17.0625C15.0938 16.2871 14.4629 15.6562 13.6875 15.6562H11.7188V14.8125C11.7188 14.5858 11.6279 14.3808 11.4819 14.2289L11.1847 11.1562H19.2841L18.5942 18.2921ZM20.1562 10.3125C20.1562 10.4675 20.03 10.5938 19.875 10.5938H10.5938C10.4388 10.5938 10.3125 10.4675 10.3125 10.3125V9.75C10.3125 9.59503 10.4388 9.46875 10.5938 9.46875H19.875C20.03 9.46875 20.1562 9.59503 20.1562 9.75V10.3125Z" fill="#333333"/>
<path d="M19.875 6.375C20.3402 6.375 20.7188 5.99644 20.7188 5.53125C20.7188 5.06606 20.3402 4.6875 19.875 4.6875C19.4098 4.6875 19.0312 5.06606 19.0312 5.53125C19.0312 5.99644 19.4098 6.375 19.875 6.375ZM19.875 5.25C20.03 5.25 20.1562 5.37628 20.1562 5.53125C20.1562 5.68622 20.03 5.8125 19.875 5.8125C19.72 5.8125 19.5938 5.68622 19.5938 5.53125C19.5938 5.37628 19.72 5.25 19.875 5.25Z" fill="#333333"/>
<path d="M13.6875 5.8125C14.1527 5.8125 14.5312 5.43394 14.5312 4.96875C14.5312 4.50356 14.1527 4.125 13.6875 4.125C13.2223 4.125 12.8438 4.50356 12.8438 4.96875C12.8438 5.43394 13.2223 5.8125 13.6875 5.8125ZM13.6875 4.6875C13.8425 4.6875 13.9688 4.81378 13.9688 4.96875C13.9688 5.12372 13.8425 5.25 13.6875 5.25C13.5325 5.25 13.4062 5.12372 13.4062 4.96875C13.4062 4.81378 13.5325 4.6875 13.6875 4.6875Z" fill="#333333"/>
<path d="M17.625 5.53125C18.2454 5.53125 18.75 5.02669 18.75 4.40625C18.75 3.78581 18.2454 3.28125 17.625 3.28125C17.0046 3.28125 16.5 3.78581 16.5 4.40625C16.5 5.02669 17.0046 5.53125 17.625 5.53125ZM17.625 3.84375C17.9352 3.84375 18.1875 4.09603 18.1875 4.40625C18.1875 4.71647 17.9352 4.96875 17.625 4.96875C17.3148 4.96875 17.0625 4.71647 17.0625 4.40625C17.0625 4.09603 17.3148 3.84375 17.625 3.84375Z" fill="#333333"/>
<path d="M15.6562 17.9062H16.2188V18.4688H15.6562V17.9062Z" fill="#333333"/>
<path d="M12.8438 11.7188H13.4062V12.2812H12.8438V11.7188Z" fill="#333333"/>
<path d="M11.7188 11.7188H12.2812V12.2812H11.7188V11.7188Z" fill="#333333"/>
<path d="M13.9688 11.7188H14.5312V12.2812H13.9688V11.7188Z" fill="#333333"/>
<path d="M4.6875 13.125C5.15269 13.125 5.53125 12.7464 5.53125 12.2812C5.53125 11.8161 5.15269 11.4375 4.6875 11.4375C4.22231 11.4375 3.84375 11.8161 3.84375 12.2812C3.84375 12.7464 4.22231 13.125 4.6875 13.125ZM4.6875 12C4.84247 12 4.96875 12.1263 4.96875 12.2812C4.96875 12.4362 4.84247 12.5625 4.6875 12.5625C4.53253 12.5625 4.40625 12.4362 4.40625 12.2812C4.40625 12.1263 4.53253 12 4.6875 12Z" fill="#333333"/>
<path d="M6.375 9.75C6.99544 9.75 7.5 9.24544 7.5 8.625C7.5 8.00456 6.99544 7.5 6.375 7.5C5.75456 7.5 5.25 8.00456 5.25 8.625C5.25 9.24544 5.75456 9.75 6.375 9.75ZM6.375 8.0625C6.68522 8.0625 6.9375 8.31478 6.9375 8.625C6.9375 8.93522 6.68522 9.1875 6.375 9.1875C6.06478 9.1875 5.8125 8.93522 5.8125 8.625C5.8125 8.31478 6.06478 8.0625 6.375 8.0625Z" fill="#333333"/>
<path d="M4.6875 6.65625C5.15269 6.65625 5.53125 6.27769 5.53125 5.8125C5.53125 5.34731 5.15269 4.96875 4.6875 4.96875C4.22231 4.96875 3.84375 5.34731 3.84375 5.8125C3.84375 6.27769 4.22231 6.65625 4.6875 6.65625ZM4.6875 5.53125C4.84247 5.53125 4.96875 5.65753 4.96875 5.8125C4.96875 5.96747 4.84247 6.09375 4.6875 6.09375C4.53253 6.09375 4.40625 5.96747 4.40625 5.8125C4.40625 5.65753 4.53253 5.53125 4.6875 5.53125Z" fill="#333333"/>
</svg>
