<svg width="24" height="24" viewBox="0 0 24 24" fill="none" xmlns="http://www.w3.org/2000/svg">
<path fill-rule="evenodd" clip-rule="evenodd" d="M22 11L12.5 20.5H21C21.5523 20.5 22 20.0523 22 19.5V11ZM20.5 15L16.5 19H19.5C20.0523 19 20.5 18.5523 20.5 18V15Z" fill="#4BD274"/>
<path d="M16.1858 7.9895C16.1205 7.92411 16.0298 7.88649 15.9373 7.88649C15.8449 7.88649 15.7542 7.92411 15.6888 7.9895C15.6234 8.05489 15.5858 8.14524 15.5858 8.23805C15.5858 8.33051 15.6233 8.42122 15.6888 8.48661C15.7542 8.552 15.8449 8.58961 15.9373 8.58961C16.0298 8.58961 16.1205 8.552 16.1858 8.48661C16.2512 8.42122 16.2889 8.33051 16.2889 8.23805C16.2889 8.14559 16.2513 8.05489 16.1858 7.9895Z" fill="#333333"/>
<path d="M8.27331 12.9138H5.46081C5.26668 12.9138 5.10925 13.0712 5.10925 13.2654V16.0779C5.10925 16.2721 5.26668 16.4295 5.46081 16.4295H8.27331C8.46744 16.4295 8.62487 16.2721 8.62487 16.0779V13.2654C8.62487 13.0712 8.46748 12.9138 8.27331 12.9138ZM7.92175 15.7263H5.81238V13.617H7.92175V15.7263Z" fill="#333333"/>
<path d="M20.7828 10.3742C20.6515 10.3197 20.5002 10.3499 20.3997 10.4504L16.8174 14.0327C16.8173 14.0328 16.8173 14.0328 16.8172 14.0329C16.8171 14.033 16.8171 14.033 16.817 14.0331L12.641 18.2091C12.641 18.2091 12.6409 18.2092 12.6409 18.2092C12.6408 18.2093 12.6408 18.2093 12.6407 18.2094L10.4505 20.3996C10.35 20.5001 10.3199 20.6514 10.3743 20.7827C10.4287 20.9141 10.5569 20.9997 10.6991 20.9997H20.6483C20.8424 20.9997 20.9999 20.8424 20.9999 20.6482V10.699C20.9999 10.5568 20.9142 10.4286 20.7828 10.3742ZM20.2967 20.2966H11.5479L12.8895 18.955L13.2251 19.2906C13.2937 19.3593 13.3837 19.3936 13.4737 19.3936C13.5636 19.3936 13.6536 19.3593 13.7222 19.2906C13.8595 19.1533 13.8595 18.9307 13.7222 18.7934L13.3866 18.4578L14.2816 17.5629L14.6171 17.8984C14.6858 17.9671 14.7758 18.0014 14.8657 18.0014C14.9557 18.0014 15.0457 17.9671 15.1143 17.8984C15.2516 17.7612 15.2516 17.5386 15.1143 17.4013L14.7787 17.0657L15.6737 16.1707L16.0093 16.5063C16.0779 16.575 16.1679 16.6093 16.2578 16.6093C16.3478 16.6093 16.4378 16.575 16.5064 16.5063C16.6437 16.369 16.6437 16.1464 16.5064 16.0091L16.1708 15.6735L17.0657 14.7786L17.4013 15.1142C17.47 15.1829 17.56 15.2172 17.6499 15.2172C17.7399 15.2172 17.8299 15.1829 17.8985 15.1142C18.0358 14.9769 18.0358 14.7543 17.8985 14.617L17.5629 14.2814L18.4578 13.3865L18.7934 13.722C18.8621 13.7907 18.952 13.825 19.042 13.825C19.132 13.825 19.2219 13.7907 19.2906 13.722C19.4279 13.5847 19.4279 13.3621 19.2906 13.2249L18.955 12.8893L20.2967 11.5477V20.2966Z" fill="#333333"/>
<path d="M19.025 14.6179C18.8936 14.5635 18.7424 14.5936 18.6419 14.6941L14.6942 18.6418C14.5937 18.7423 14.5636 18.8935 14.618 19.0249C14.6724 19.1563 14.8006 19.2419 14.9428 19.2419H18.8905C19.0846 19.2419 19.242 19.0845 19.242 18.8904V14.9427C19.242 14.8006 19.1564 14.6723 19.025 14.6179ZM18.5389 18.5388H15.7916L18.5389 15.7915V18.5388Z" fill="#333333"/>
<path d="M19.2794 8.24744C19.1826 8.15069 19.0386 8.11884 18.9099 8.16591L16.5094 9.04499C16.4614 9.06257 16.4179 9.09038 16.3817 9.12652L15.7067 9.80148L11.2993 5.39406C11.2334 5.32814 11.144 5.29108 11.0508 5.29108C10.9575 5.29108 10.8681 5.32814 10.8022 5.39406L5.497 10.6992H4.20033L11.0508 3.84877L14.81 7.60798C14.9473 7.74527 15.1698 7.74527 15.3072 7.60798C15.4445 7.4707 15.4445 7.24809 15.3072 7.11077L11.2994 3.10296C11.1621 2.96568 10.9395 2.96568 10.8022 3.10296L3.10297 10.8022C3.00246 10.9027 2.97236 11.0539 3.02675 11.1853C3.08117 11.3167 3.20935 11.4024 3.35156 11.4024H3.70312V20.6484C3.70312 20.8426 3.86055 21 4.05468 21H9.64402C9.83815 21 9.99558 20.8426 9.99558 20.6484C9.99558 20.4543 9.83815 20.2969 9.64402 20.2969H4.40624V11.4024H5.64261C5.73585 11.4024 5.82525 11.3653 5.8912 11.2994L11.0508 6.13982L15.2095 10.2986L9.99608 15.5121V12.3516H12.457C12.6511 12.3516 12.8086 12.1942 12.8086 12C12.8086 11.8058 12.6511 11.6484 12.457 11.6484H9.64451C9.45038 11.6484 9.29295 11.8058 9.29295 12V16.0781C9.29295 16.1192 9.30033 16.1583 9.31324 16.1949L8.99827 16.5099C8.44175 17.0664 8.44175 17.972 8.99827 18.5285C9.27657 18.8068 9.64202 18.9459 10.0076 18.9459C10.3731 18.9459 10.7386 18.8067 11.0169 18.5285L13.9817 15.5637C14.1189 15.4264 14.1189 15.2038 13.9817 15.0665C13.8444 14.9293 13.6218 14.9293 13.4844 15.0665L11.2382 17.3127L10.214 16.2885L16.6373 9.86526L17.6615 10.8895L15.2071 13.3439C15.0698 13.4812 15.0698 13.7038 15.2071 13.8411C15.3444 13.9784 15.567 13.9784 15.7043 13.8411L18.4003 11.1451C18.4364 11.109 18.4643 11.0654 18.4818 11.0174L19.3609 8.61693C19.408 8.4884 19.3762 8.34422 19.2794 8.24744ZM10.7411 17.8099L10.5197 18.0313C10.3829 18.1681 10.2011 18.2434 10.0076 18.2434C9.81414 18.2434 9.63228 18.1681 9.49552 18.0313C9.35869 17.8945 9.28339 17.7126 9.28339 17.5192C9.28339 17.3258 9.35866 17.1439 9.49549 17.0071L9.7169 16.7857L10.7411 17.8099ZM18.0147 10.2482L17.2786 9.51208L18.4401 9.08672L18.0147 10.2482Z" fill="#333333"/>
<path d="M14.8365 14.2111C14.7712 14.1457 14.6805 14.1081 14.588 14.1081C14.4956 14.1081 14.4048 14.1457 14.3395 14.2111C14.2741 14.2768 14.2365 14.3672 14.2365 14.4596C14.2365 14.5525 14.274 14.6428 14.3395 14.7085C14.4048 14.7739 14.4952 14.8112 14.588 14.8112C14.6805 14.8112 14.7712 14.7739 14.8365 14.7085C14.9019 14.6428 14.9396 14.5521 14.9396 14.4596C14.9396 14.3672 14.902 14.2768 14.8365 14.2111Z" fill="#333333"/>
<path d="M11.0506 8.30836C10.314 8.30836 9.71466 8.90767 9.71466 9.6443C9.71466 10.3809 10.314 10.9802 11.0506 10.9802C11.7872 10.9802 12.3865 10.3809 12.3865 9.6443C12.3865 8.90767 11.7872 8.30836 11.0506 8.30836ZM11.0506 10.2771C10.7017 10.2771 10.4178 9.99326 10.4178 9.6443C10.4178 9.29537 10.7017 9.01149 11.0506 9.01149C11.3995 9.01149 11.6834 9.29537 11.6834 9.6443C11.6834 9.99323 11.3995 10.2771 11.0506 10.2771Z" fill="#333333"/>
</svg>
