<svg width="24" height="24" viewBox="0 0 24 24" fill="none" xmlns="http://www.w3.org/2000/svg">
<path d="M7 9.32297V4.34403C7 3.67417 7.64574 3.19372 8.28735 3.3862L11.7127 4.4138C11.9001 4.47003 12.0999 4.47003 12.2873 4.4138L15.7127 3.3862C16.3543 3.19372 17 3.67417 17 4.34403V9.32297C17 9.73187 16.751 10.0996 16.3714 10.2514L12.3714 11.8514C12.133 11.9468 11.867 11.9468 11.6286 11.8514L7.62861 10.2514C7.24895 10.0996 7 9.73187 7 9.32297Z" fill="#4BD274"/>
<path d="M20.2441 17.414H19.716C19.7837 17.282 19.8223 17.1326 19.8223 16.9742L19.8219 7.83383C19.8219 7.30076 19.3882 6.86703 18.8551 6.86703H17.4316V6.545C17.4316 6.29107 17.2251 6.08445 16.9711 6.08445H16.5347V4.76135C16.5347 4.61267 16.4624 4.47244 16.3413 4.38616C16.2202 4.29992 16.064 4.27742 15.9235 4.32604L15.0929 4.61324C14.9553 4.66084 14.8824 4.81095 14.9299 4.94859C14.9775 5.08619 15.1275 5.15935 15.2653 5.11161L16.0073 4.85501V11.1965L12.2637 12.4911V6.14963L14.2021 5.47931C14.3397 5.43171 14.4127 5.28159 14.3651 5.14395C14.3175 5.00635 14.1675 4.93326 14.0297 4.98094L12 5.68283L8.07653 4.32604C7.93597 4.27739 7.77981 4.29992 7.6587 4.38616C7.53762 4.47244 7.4653 4.61267 7.4653 4.76135V6.08442H7.02891C6.77494 6.08442 6.56836 6.29103 6.56836 6.54497V6.86735H5.14453C4.61142 6.86735 4.17773 7.30107 4.17773 7.83415L4.17777 8.7718C4.17777 8.91745 4.29582 9.03547 4.44144 9.03547C4.58706 9.03547 4.70511 8.91742 4.70511 8.7718L4.70508 7.83418C4.70508 7.59185 4.9022 7.39473 5.14453 7.39473H6.56836V7.92207H5.49609C5.42617 7.92207 5.35909 7.94985 5.30966 7.99931C5.2602 8.04874 5.23242 8.11582 5.23242 8.18574L5.23277 16.623C5.23277 16.7687 5.35083 16.8867 5.49645 16.8867L18.5039 16.8864C18.5738 16.8864 18.6409 16.8586 18.6904 16.8091C18.7398 16.7597 18.7676 16.6926 18.7676 16.6227L18.7672 8.18539C18.7672 8.03974 18.6492 7.92172 18.5036 7.92172H17.4316V7.39438H18.8551C19.0974 7.39438 19.2946 7.5915 19.2946 7.83383L19.2949 16.9742C19.2949 17.2166 19.0978 17.4137 18.8555 17.4137L5.14488 17.414C4.90255 17.414 4.70543 17.2169 4.70543 16.9746L4.70518 9.9001C4.70518 9.75445 4.58713 9.63643 4.44151 9.63643C4.29589 9.63643 4.17784 9.75449 4.17784 9.9001L4.17809 16.9746C4.17809 17.1328 4.21651 17.2821 4.28419 17.414H3.75586C3.33908 17.414 3 17.7531 3 18.1699V18.9433C3 19.3602 3.33908 19.6992 3.75586 19.6992H14.2388C14.3844 19.6992 14.5025 19.5812 14.5025 19.4356C14.5025 19.2899 14.3844 19.1719 14.2388 19.1719H3.75586C3.62986 19.1719 3.52734 19.0694 3.52734 18.9434V18.1699C3.52734 18.0439 3.62986 17.9414 3.75586 17.9414H10.2246V18.1267C10.2246 18.4898 10.52 18.7852 10.8831 18.7852H13.1169C13.48 18.7852 13.7754 18.4898 13.7754 18.1267V17.9414H20.2441C20.3701 17.9414 20.4727 18.0439 20.4727 18.1699V18.9434C20.4727 19.0694 20.3701 19.1719 20.2441 19.1719H15.3899C15.2443 19.1719 15.1263 19.2899 15.1263 19.4356C15.1263 19.5812 15.2443 19.6992 15.3899 19.6992H20.2441C20.6609 19.6992 21 19.3602 21 18.9434V18.1699C21 17.7531 20.6609 17.414 20.2441 17.414ZM16.2247 11.6793C16.4101 11.6151 16.5347 11.4402 16.5347 11.244V6.6118H16.9043V12.5976H13.5692L16.2247 11.6793ZM7.99264 4.85501L11.7363 6.14963V12.4911L7.99264 11.1965V4.85501ZM7.0957 6.6118H7.4653V11.244C7.4653 11.4402 7.58989 11.6151 7.77538 11.6793L10.4308 12.5976H7.0957V6.6118ZM18.2399 8.44906L18.2402 16.359L5.76008 16.3594L5.75977 8.44942H6.56836V12.6644C6.56836 12.9183 6.77494 13.1249 7.02891 13.1249H16.9711C17.2251 13.1249 17.4316 12.9183 17.4316 12.6644V8.44906H18.2399ZM13.248 18.1267C13.248 18.199 13.1892 18.2578 13.1169 18.2578H10.8831C10.8108 18.2578 10.752 18.199 10.752 18.1267V17.9414H13.248V18.1267Z" fill="#333333"/>
<path d="M15.4633 13.8769H8.53668C8.39106 13.8769 8.27301 13.9949 8.27301 14.1406C8.27301 14.2862 8.39106 14.4043 8.53668 14.4043H15.4633C15.6089 14.4043 15.7269 14.2862 15.7269 14.1406C15.7269 13.9949 15.6089 13.8769 15.4633 13.8769Z" fill="#333333"/>
<path d="M13.0288 14.9954H8.53668C8.39107 14.9954 8.27301 15.1134 8.27301 15.2591C8.27301 15.4047 8.39107 15.5228 8.53668 15.5228H13.0288C13.1744 15.5228 13.2924 15.4047 13.2924 15.2591C13.2924 15.1134 13.1744 14.9954 13.0288 14.9954Z" fill="#333333"/>
</svg>
