<svg width="24" height="24" viewBox="0 0 24 24" fill="none" xmlns="http://www.w3.org/2000/svg">
<path fill-rule="evenodd" clip-rule="evenodd" d="M10 8C9.44772 8 9 8.44772 9 9C9 9.55228 9.44772 10 10 10V12C10 13.6569 11.3431 15 13 15C14.6569 15 16 13.6569 16 12V10C16.5523 10 17 9.55228 17 9C17 8.44772 16.5523 8 16 8H10Z" fill="#4BD274"/>
<path d="M6.93794 17.1115C6.65658 16.8302 6.28252 16.6752 5.88469 16.6752C5.64967 16.6752 5.42312 16.7297 5.2189 16.832C3.21207 13.9887 3.20511 10.0925 5.23588 7.24242C5.34852 7.08428 5.31168 6.86477 5.15354 6.75209C4.99541 6.63942 4.77589 6.67626 4.66322 6.83439C3.54303 8.40655 2.96837 10.2631 3.00134 12.2033C3.03274 14.0496 3.61247 15.8011 4.68055 17.288C4.25614 17.8702 4.30638 18.6929 4.83144 19.218C5.12183 19.5084 5.50324 19.6536 5.88469 19.6536C6.26613 19.6536 6.64755 19.5084 6.93794 19.218C7.51868 18.6373 7.51868 17.6923 6.93794 17.1115ZM6.44072 18.7208C6.13405 19.0274 5.63522 19.0274 5.32862 18.7208C5.02199 18.4142 5.02199 17.9153 5.32862 17.6087C5.47716 17.4601 5.67463 17.3783 5.88465 17.3783C6.09468 17.3783 6.29219 17.4601 6.44069 17.6087C6.74735 17.9153 6.74735 18.4142 6.44072 18.7208Z" fill="#333333"/>
<path d="M17.3424 18.8606C17.2288 18.7032 17.0091 18.6678 16.8517 18.7815C15.8466 19.5078 14.7168 19.9889 13.4936 20.2115C13.2101 20.2631 12.9211 20.1872 12.7005 20.0032C12.4816 19.8205 12.356 19.5521 12.356 19.2669V16.69H12.3867C12.7938 16.69 13.125 16.3588 13.125 15.9517V15.3582C14.3159 14.9036 15.1641 13.7495 15.1641 12.4009V10.7365C15.7307 10.5817 16.1485 10.0628 16.1485 9.44782C16.1485 8.77081 15.6421 8.21017 14.9883 8.12379V5.93218C14.9883 5.35063 14.5152 4.8775 13.9336 4.8775C13.352 4.8775 12.8789 5.35063 12.8789 5.93218V8.11188H11.1211V5.93218C11.1211 5.35063 10.648 4.8775 10.0664 4.8775C9.48485 4.8775 9.01172 5.35063 9.01172 5.93218V8.12379C8.35792 8.21017 7.85156 8.77078 7.85156 9.44782C7.85156 10.0628 8.26936 10.5817 8.83594 10.7365V12.4009C8.83594 13.7495 9.68416 14.9036 10.875 15.3582V15.9517C10.875 16.3588 11.2062 16.69 11.6133 16.69H11.6529V19.2669C11.6529 19.7613 11.8706 20.2264 12.25 20.543C12.5529 20.7958 12.9303 20.9306 13.3181 20.9306C13.4182 20.9306 13.519 20.9216 13.6194 20.9033C14.9467 20.6617 16.1727 20.1396 17.2634 19.3515C17.4208 19.2377 17.4561 19.018 17.3424 18.8606ZM13.5821 5.93218C13.5821 5.73833 13.7398 5.58062 13.9336 5.58062C14.1275 5.58062 14.2852 5.73833 14.2852 5.93218V8.11188H13.5821V5.93218ZM9.71488 5.93218C9.71488 5.73833 9.87259 5.58062 10.0664 5.58062C10.2603 5.58062 10.418 5.73833 10.418 5.93218V8.11188H9.71488V5.93218ZM8.55472 9.44782C8.55472 9.09889 8.83861 8.815 9.18754 8.815H14.8125C15.1615 8.815 15.4454 9.09889 15.4454 9.44782C15.4454 9.79674 15.1615 10.0806 14.8125 10.0806H9.18754C8.83861 10.0806 8.55472 9.79674 8.55472 9.44782ZM9.5391 12.4009V10.7838H14.461V12.4009C14.461 13.7579 13.357 14.8619 12 14.8619C10.6431 14.8619 9.5391 13.7579 9.5391 12.4009ZM12.0134 15.9869C12.0104 15.9868 12.0075 15.9864 12.0045 15.9864C12.0016 15.9864 11.9987 15.9868 11.9957 15.9869H11.6134C11.5939 15.9869 11.5782 15.9711 11.5782 15.9517V15.5368C11.7162 15.5553 11.857 15.565 12 15.565C12.1431 15.565 12.2839 15.5553 12.4219 15.5368V15.9517C12.4219 15.9711 12.4062 15.9869 12.3868 15.9869H12.0134Z" fill="#333333"/>
<path d="M18.3553 17.9077C18.216 17.7776 17.9989 17.7827 17.8656 17.9174C17.8629 17.9201 17.8602 17.9229 17.8577 17.9256C17.7251 18.0676 17.7328 18.29 17.8748 18.4225C17.9426 18.4857 18.0286 18.517 18.1146 18.517C18.2054 18.517 18.296 18.4821 18.3644 18.4129C18.3671 18.4101 18.3698 18.4073 18.3724 18.4046C18.5049 18.2626 18.4972 18.0402 18.3553 17.9077Z" fill="#333333"/>
<path d="M20.9761 11.3922C20.8195 9.24004 19.8918 7.21335 18.3641 5.68556C16.8625 4.18385 14.8566 3.26466 12.716 3.09735C10.6015 2.93201 8.49699 3.50583 6.78952 4.71296C6.63096 4.82504 6.59331 5.04445 6.70539 5.20297C6.81743 5.36149 7.03688 5.39921 7.1954 5.2871C10.4605 2.97884 15.0482 3.36383 17.8669 6.18274C20.7799 9.09583 21.1321 13.6196 18.7044 16.9392C18.5898 17.0959 18.6239 17.3158 18.7806 17.4305C18.8432 17.4762 18.9159 17.4983 18.9879 17.4983C19.0962 17.4983 19.2031 17.4484 19.272 17.3542C20.5259 15.6395 21.1312 13.5222 20.9761 11.3922Z" fill="#333333"/>
<path d="M6.09058 5.7262C5.95267 5.58954 5.73006 5.59046 5.59337 5.72841L5.58764 5.73425C5.45095 5.87213 5.45197 6.09474 5.58985 6.23143C5.65841 6.29935 5.74788 6.33327 5.83735 6.33327C5.92781 6.33327 6.0183 6.29854 6.08707 6.22921L6.0928 6.22338C6.22949 6.08549 6.22847 5.86288 6.09058 5.7262Z" fill="#333333"/>
<path d="M12.7927 12.2708C12.7297 12.1627 12.614 12.0962 12.4889 12.0962H12.2377L12.7004 11.5117C12.821 11.3595 12.7952 11.1384 12.643 11.0179C12.4908 10.8973 12.2696 10.9231 12.1491 11.0753L11.2353 12.2296C11.1517 12.3353 11.1358 12.4796 11.1945 12.6009C11.2532 12.7223 11.3762 12.7994 11.511 12.7994H11.8858L11.4552 13.5595C11.3595 13.7285 11.419 13.943 11.5878 14.0387C11.6426 14.0697 11.7021 14.0844 11.7608 14.0844C11.8834 14.0844 12.0024 14.0202 12.0671 13.906L12.7949 12.6211C12.8565 12.5122 12.8557 12.3788 12.7927 12.2708Z" fill="#333333"/>
</svg>
