<svg width="24" height="24" viewBox="0 0 24 24" fill="none" xmlns="http://www.w3.org/2000/svg">
<path fill-rule="evenodd" clip-rule="evenodd" d="M12.75 19C15.6495 19 18 16.6495 18 13.75C18 10.8505 15.6495 8.5 12.75 8.5C9.85051 8.5 7.5 10.8505 7.5 13.75C7.5 16.6495 9.85051 19 12.75 19ZM12.5 15.5C13.6046 15.5 14.5 14.6046 14.5 13.5C14.5 12.3954 13.6046 11.5 12.5 11.5C11.3954 11.5 10.5 12.3954 10.5 13.5C10.5 14.6046 11.3954 15.5 12.5 15.5Z" fill="#4BD274"/>
<path d="M19.1921 7.92892C19.3377 7.92892 19.4558 7.81091 19.4558 7.66527V4.71859C19.4558 3.77095 18.6848 3 17.7372 3H5.71855C4.77095 3 4 3.77095 4 4.71859V19.2814C4 20.229 4.77095 21 5.71859 21H17.7372C18.6848 21 19.4558 20.229 19.4558 19.2814V8.78884C19.4558 8.6432 19.3378 8.52519 19.1921 8.52519C19.0465 8.52519 18.9285 8.6432 18.9285 8.78884V16.4229H16.5836C16.438 16.4229 16.32 16.5409 16.32 16.6865C16.32 16.8322 16.438 16.9502 16.5836 16.9502H18.9285V19.2693H4.5273V16.9502H6.87219C7.01779 16.9502 7.13584 16.8322 7.13584 16.6865C7.13584 16.5409 7.01779 16.4229 6.87219 16.4229H4.5273V6.85666H5.83558C5.98119 6.85666 6.09923 6.73865 6.09923 6.59301C6.09923 6.44737 5.98119 6.32936 5.83558 6.32936H4.5273V4.71859C4.5273 4.06171 5.06171 3.5273 5.71855 3.5273H17.7372C18.3941 3.5273 18.9285 4.06171 18.9285 4.71859V6.32936H6.95916C6.81355 6.32936 6.69551 6.44737 6.69551 6.59301C6.69551 6.73865 6.81355 6.85666 6.95916 6.85666H18.9284V7.66527C18.9285 7.81091 19.0465 7.92892 19.1921 7.92892ZM17.7372 20.4727H5.71855C5.24612 20.4727 4.83704 20.1962 4.64458 19.7966H18.8112C18.6187 20.1962 18.2096 20.4727 17.7372 20.4727Z" fill="#333333"/>
<path d="M12.6079 4.95419C12.6079 4.45926 12.2052 4.05661 11.7103 4.05661C11.2154 4.05661 10.8127 4.45926 10.8127 4.95419C10.8127 5.44911 11.2154 5.85176 11.7103 5.85176C12.2052 5.85176 12.6079 5.44911 12.6079 4.95419ZM11.34 4.95419C11.34 4.75001 11.5061 4.58391 11.7103 4.58391C11.9145 4.58391 12.0806 4.75005 12.0806 4.95419C12.0806 5.15832 11.9145 5.32446 11.7103 5.32446C11.5061 5.32446 11.34 5.15832 11.34 4.95419Z" fill="#333333"/>
<path d="M10.1581 4.95419C10.1581 4.45926 9.75542 4.05661 9.26049 4.05661C8.76556 4.05661 8.36292 4.45926 8.36292 4.95419C8.36292 5.44911 8.76556 5.85176 9.26049 5.85176C9.75542 5.85176 10.1581 5.44911 10.1581 4.95419ZM8.89018 4.95419C8.89018 4.75001 9.05628 4.58391 9.26046 4.58391C9.46463 4.58391 9.63073 4.75005 9.63073 4.95419C9.63073 5.15832 9.46463 5.32446 9.26046 5.32446C9.05628 5.32446 8.89018 5.15832 8.89018 4.95419Z" fill="#333333"/>
<path d="M7.70833 4.95419C7.70833 4.45926 7.30569 4.05661 6.81076 4.05661C6.31583 4.05661 5.91315 4.45926 5.91315 4.95419C5.91315 5.44911 6.3158 5.85176 6.81072 5.85176C7.30565 5.85176 7.70833 5.44911 7.70833 4.95419ZM6.44045 4.95419C6.44045 4.75001 6.60655 4.58391 6.81072 4.58391C7.01489 4.58391 7.181 4.75005 7.181 4.95419C7.181 5.15832 7.01489 5.32446 6.81072 5.32446C6.60655 5.32446 6.44045 5.15832 6.44045 4.95419Z" fill="#333333"/>
<path d="M15.0577 4.95419C15.0577 4.45926 14.655 4.05661 14.1601 4.05661C13.6652 4.05661 13.2625 4.45926 13.2625 4.95419C13.2625 5.44911 13.6652 5.85176 14.1601 5.85176C14.655 5.85176 15.0577 5.44911 15.0577 4.95419ZM13.7898 4.95419C13.7898 4.75001 13.9559 4.58391 14.1601 4.58391C14.3642 4.58391 14.5303 4.75005 14.5303 4.95419C14.5303 5.15832 14.3642 5.32446 14.1601 5.32446C13.9559 5.32446 13.7898 5.15832 13.7898 4.95419Z" fill="#333333"/>
<path d="M17.5074 4.95419C17.5074 4.45926 17.1048 4.05661 16.6099 4.05661C16.1149 4.05661 15.7123 4.45926 15.7123 4.95419C15.7123 5.44911 16.1149 5.85176 16.6099 5.85176C17.1048 5.85176 17.5074 5.44911 17.5074 4.95419ZM16.2395 4.95419C16.2395 4.75001 16.4056 4.58391 16.6098 4.58391C16.814 4.58391 16.9801 4.75005 16.9801 4.95419C16.9801 5.15832 16.814 5.32446 16.6098 5.32446C16.4056 5.32446 16.2395 5.15832 16.2395 4.95419Z" fill="#333333"/>
<path d="M6.62394 13.2536C6.47925 13.27 6.37526 13.4006 6.39168 13.5453C6.69836 16.2498 8.98489 18.2892 11.7103 18.2892C14.6621 18.2892 17.0636 15.8877 17.0636 12.9359C17.0636 9.98403 14.6621 7.58251 11.7103 7.58251C10.3802 7.58251 9.10504 8.07364 8.11965 8.96538C7.1414 9.85069 6.52621 11.0577 6.38743 12.3641C6.37203 12.5089 6.47693 12.6388 6.62176 12.6542C6.76638 12.6695 6.89641 12.5646 6.91178 12.4198C7.03689 11.2425 7.59151 10.1546 8.47347 9.35636C9.36173 8.5525 10.5113 8.10982 11.7103 8.10982C14.3714 8.10982 16.5363 10.2747 16.5363 12.9358C16.5363 15.5969 14.3714 17.7619 11.7103 17.7619C9.25332 17.7619 7.19209 15.9236 6.91564 13.4859C6.89923 13.3412 6.76856 13.2373 6.62394 13.2536Z" fill="#333333"/>
<path d="M11.5439 8.64032C9.31579 8.72494 7.50211 10.5364 7.4149 12.7644C7.36874 13.944 7.79406 15.0624 8.61258 15.9136C9.43173 16.7654 10.5318 17.2346 11.7103 17.2346C13.277 17.2346 14.7211 16.3791 15.4789 15.0021C15.5449 14.8822 15.5535 14.7406 15.5026 14.6135C15.4516 14.4864 15.3475 14.3899 15.2169 14.3487L14.8882 14.2452C14.8186 14.2233 14.7718 14.1595 14.7718 14.0866V11.7851C14.7718 11.7121 14.8186 11.6484 14.8882 11.6264L15.2169 11.5229C15.3474 11.4818 15.4515 11.3854 15.5024 11.2583C15.5534 11.131 15.5448 10.9891 15.4786 10.869C14.6875 9.43215 13.1799 8.5781 11.5439 8.64032ZM14.9734 14.8249C14.2975 15.9883 13.0553 16.7073 11.7102 16.7073C10.6766 16.7073 9.71145 16.2956 8.99263 15.5481C8.42521 14.958 8.07336 14.2216 7.97053 13.428L9.60148 12.755C10.2907 12.4707 11.0535 12.4613 11.7495 12.7288L12.2655 12.9271C12.895 13.169 13.5882 13.2183 14.2445 13.0721V14.0866C14.2445 14.3908 14.4395 14.6567 14.7297 14.7481H14.7297L14.9734 14.8249ZM14.7297 11.1236C14.4395 11.215 14.2445 11.4809 14.2445 11.7851V12.5294C13.6557 12.6864 13.0244 12.6538 12.4547 12.4348L11.9387 12.2365C11.1163 11.9205 10.2149 11.9315 9.40041 12.2675L7.93953 12.8704C7.94002 12.8419 7.94069 12.8135 7.94181 12.785C8.01831 10.8306 9.60932 9.24145 11.5639 9.1672C11.613 9.16534 11.6617 9.16443 11.7105 9.16443C13.0598 9.16443 14.293 9.87432 14.9734 11.0468L14.7297 11.1236Z" fill="#333333"/>
<path d="M15.365 12.2018V13.7057C15.365 13.8514 15.483 13.9694 15.6286 13.9694C15.7742 13.9694 15.8923 13.8514 15.8923 13.7057V12.2018C15.8923 12.0561 15.7742 11.9381 15.6286 11.9381C15.483 11.9381 15.365 12.0561 15.365 12.2018Z" fill="#333333"/>
<path d="M18.3257 8.57645V7.87766C18.3257 7.61173 18.1093 7.39532 17.8433 7.39532H16.6443C16.3783 7.39532 16.1619 7.61169 16.1619 7.87766V8.57645C16.1619 8.84238 16.3783 9.05879 16.6443 9.05879H17.8433C18.1093 9.05879 18.3257 8.84238 18.3257 8.57645ZM17.7984 8.53148H16.6892V7.92266H17.7984V8.53148Z" fill="#333333"/>
</svg>
