<svg width="24" height="24" viewBox="0 0 24 24" fill="none" xmlns="http://www.w3.org/2000/svg">
<rect x="10" y="8" width="8" height="7" rx="1" fill="#4BD274"/>
<path d="M18.4369 15.5983H16.9372V14.8484C16.9372 14.6828 16.8029 14.5485 16.6372 14.5485C16.4716 14.5485 16.3373 14.6828 16.3373 14.8484V15.5983H9.73858V8.99957H11.5382V11.0992C11.5385 11.2097 11.5996 11.3111 11.6971 11.3631C11.7926 11.4121 11.907 11.4064 11.9971 11.3481L13.0379 10.6613L14.0728 11.3481C14.1646 11.4086 14.2824 11.4139 14.3793 11.362C14.4763 11.3101 14.5371 11.2091 14.5376 11.0992V9.89939C14.5376 9.73375 14.4033 9.59945 14.2377 9.59945C14.0721 9.59945 13.9378 9.73375 13.9378 9.89939V10.5382L13.2028 10.0494C13.1028 9.98346 12.9731 9.98346 12.873 10.0494L12.1381 10.5382V8.99957H16.3373V13.1987C16.3373 13.3644 16.4716 13.4987 16.6372 13.4987C16.8029 13.4987 16.9372 13.3644 16.9372 13.1987V8.69963C16.9372 8.53399 16.8029 8.39969 16.6372 8.39969H14.5376V3.90058C14.5376 3.73494 14.4033 3.60064 14.2377 3.60064H9.43864C9.273 3.60064 9.1387 3.73494 9.1387 3.90058V5.32222C9.09111 5.28575 9.04102 5.2528 8.98873 5.22322L5.35049 3.1207C5.14369 3.00119 4.89779 2.96883 4.66713 3.03078C4.43646 3.09258 4.23992 3.24372 4.1207 3.45067C4.00119 3.65746 3.96883 3.90321 4.03078 4.13388C4.09273 4.36455 4.24372 4.56109 4.45067 4.68031L7.93894 6.69304V10.1993C7.93894 10.365 8.07324 10.4993 8.23888 10.4993C8.40452 10.4993 8.53882 10.365 8.53882 10.1993V6.69304C8.53868 6.47892 8.42429 6.28106 8.23888 6.17415L4.75061 4.16141C4.68104 4.12172 4.63022 4.05582 4.60957 3.97849C4.57691 3.86074 4.61894 3.73494 4.71575 3.66039C4.8127 3.58584 4.9451 3.57764 5.05055 3.63959L8.68879 5.73918C8.96735 5.89999 9.13885 6.19729 9.1387 6.51905V17.0019C8.9489 16.9123 8.74664 16.8516 8.53882 16.822V11.4741C8.53882 11.3084 8.40452 11.1741 8.23888 11.1741C8.07324 11.1741 7.93894 11.3084 7.93894 11.4741V16.822C6.86718 16.9751 6.0876 17.9183 6.13871 18.9997C6.18997 20.0813 7.05523 20.9465 8.13666 20.9976C9.21823 21.0489 10.1613 20.2693 10.3144 19.1976H16.6372C16.929 19.1967 17.2021 19.0546 17.3701 18.8162C17.5382 18.5778 17.5802 18.2727 17.483 17.9978H18.4369C18.6025 17.9978 18.7368 17.8635 18.7368 17.6979V15.8982C18.7368 15.7326 18.6025 15.5983 18.4369 15.5983ZM16.3373 16.1981V17.3979H15.1375V16.1981H16.3373ZM13.3379 17.3979V16.1981H14.5376V17.3979H13.3379ZM12.738 16.1981V17.3979H11.5382V16.1981H12.738ZM10.9383 16.1981V17.3979H9.73858V16.1981H10.9383ZM12.4381 4.20052V5.40028H11.2383V4.20052H12.4381ZM9.73858 4.20052H10.6384V5.70022C10.6384 5.86586 10.7727 6.00016 10.9383 6.00016H12.738C12.9036 6.00016 13.0379 5.86586 13.0379 5.70022V4.20052H13.9378V8.39969H9.73858V4.20052ZM8.23888 20.3973C7.41068 20.3973 6.73918 19.7258 6.73918 18.8976C6.73918 18.0693 7.41068 17.3979 8.23888 17.3979C9.06709 17.3979 9.73858 18.0693 9.73858 18.8976C9.73858 19.7258 9.06709 20.3973 8.23888 20.3973ZM16.9372 18.2977C16.9372 18.4634 16.8029 18.5977 16.6372 18.5977H10.3144C10.2849 18.3899 10.2241 18.1876 10.1345 17.9978H16.6372C16.8029 17.9978 16.9372 18.1321 16.9372 18.2977ZM18.1369 17.3979H16.9372V16.1981H18.1369V17.3979Z" fill="#333333"/>
<path d="M15.1375 12.5989C15.1375 12.4332 15.0032 12.2989 14.8376 12.2989H11.2383C11.0727 12.2989 10.9384 12.4332 10.9384 12.5989C10.9384 12.7645 11.0727 12.8988 11.2383 12.8988H14.8376C15.0032 12.8988 15.1375 12.7645 15.1375 12.5989Z" fill="#333333"/>
<path d="M12.1381 13.7986C11.9724 13.7986 11.8381 13.9329 11.8381 14.0986C11.8381 14.2642 11.9724 14.3985 12.1381 14.3985H13.9377C14.1034 14.3985 14.2377 14.2642 14.2377 14.0986C14.2377 13.9329 14.1034 13.7986 13.9377 13.7986H12.1381Z" fill="#333333"/>
<path d="M8.23894 17.9978C7.74201 17.9978 7.33911 18.4005 7.33911 18.8976C7.33911 19.3945 7.74201 19.7974 8.23894 19.7974C8.73586 19.7974 9.13876 19.3945 9.13876 18.8976C9.13876 18.4005 8.73586 17.9978 8.23894 17.9978ZM8.23894 19.1975C8.0733 19.1975 7.939 19.0632 7.939 18.8976C7.939 18.732 8.0733 18.5977 8.23894 18.5977C8.40458 18.5977 8.53888 18.732 8.53888 18.8976C8.53888 19.0632 8.40458 19.1975 8.23894 19.1975Z" fill="#333333"/>
<path d="M10.9384 7.19995H12.738C12.9036 7.19995 13.0379 7.06565 13.0379 6.90001C13.0379 6.73437 12.9036 6.60007 12.738 6.60007H10.9384C10.7727 6.60007 10.6384 6.73437 10.6384 6.90001C10.6384 7.06565 10.7727 7.19995 10.9384 7.19995Z" fill="#333333"/>
</svg>
