<svg width="24" height="24" viewBox="0 0 24 24" fill="none" xmlns="http://www.w3.org/2000/svg">
<circle cx="19.5" cy="12.5" r="2.5" fill="#4BD274"/>
<path d="M18.3633 12.2637C18.5089 12.2637 18.627 12.1456 18.627 12C18.627 11.8544 18.5089 11.7363 18.3633 11.7363C18.2177 11.7363 18.0996 11.8544 18.0996 12C18.0996 12.1456 18.2177 12.2637 18.3633 12.2637Z" fill="#333333"/>
<path d="M20.4148 10.3439C20.088 9.93988 19.6461 9.64014 19.1543 9.4851V6.03223C19.1543 4.36023 17.7941 3 16.1221 3C14.4501 3 13.0898 4.36023 13.0898 6.03223V17.0273C13.0898 18.3455 12.0174 19.418 10.6992 19.418C9.38104 19.418 8.30859 18.3455 8.30859 17.0273V16.4484C10.4489 16.0707 12.0352 14.1982 12.0352 12V10.418C12.0352 10.2724 11.9171 10.1543 11.7715 10.1543H10.9805V5.63672C10.9805 4.9704 10.4835 4.41831 9.84081 4.3308C9.87294 4.24478 9.89062 4.15179 9.89062 4.05469C9.89062 3.96574 9.87565 3.88028 9.84844 3.8004C10.779 3.89413 11.5078 4.68187 11.5078 5.63672V9.36328C11.5078 9.5089 11.6258 9.62695 11.7715 9.62695C11.9171 9.62695 12.0352 9.5089 12.0352 9.36328V5.63672C12.0352 4.3282 10.9706 3.26367 9.66211 3.26367H9.00595C8.81439 3.09485 8.56629 3 8.30859 3C7.9938 3 7.71097 3.1388 7.51758 3.35821C7.32418 3.1388 7.04135 3 6.72656 3C6.46887 3 6.22077 3.09489 6.02917 3.26367H5.37305C4.06453 3.26367 3 4.3282 3 5.63672V12C3 14.1982 4.58629 16.0707 6.72656 16.4484V17.0273C6.72656 19.2179 8.50867 21 10.6992 21C12.8898 21 14.6719 19.2179 14.6719 17.0273V6.03223C14.6719 5.2326 15.3224 4.58203 16.1221 4.58203C16.9217 4.58203 17.5723 5.2326 17.5723 6.03223V9.4851C17.0805 9.64014 16.6386 9.93988 16.3118 10.3439C15.9344 10.8106 15.7266 11.3987 15.7266 12C15.7266 13.4539 16.9094 14.6367 18.3633 14.6367C19.8172 14.6367 21 13.4539 21 12C21 11.3987 20.7922 10.8106 20.4148 10.3439ZM8.30859 3.52734C8.45829 3.52734 8.60152 3.59143 8.70157 3.7032C8.7516 3.75906 8.82304 3.79102 8.89802 3.79102H9.09961C9.24502 3.79102 9.36328 3.90928 9.36328 4.05469C9.36328 4.20009 9.24502 4.31836 9.09961 4.31836H8.89802C8.82304 4.31836 8.75156 4.35032 8.70154 4.40618C8.60152 4.51794 8.45829 4.58203 8.30859 4.58203C8.01782 4.58203 7.78125 4.34546 7.78125 4.05469C7.78125 3.76391 8.01782 3.52734 8.30859 3.52734ZM5.93555 3.79102H6.1371C6.21209 3.79102 6.28352 3.75909 6.33355 3.70323C6.43364 3.59147 6.57687 3.52734 6.72656 3.52734C7.01734 3.52734 7.25391 3.76391 7.25391 4.05469C7.25391 4.34546 7.01734 4.58203 6.72656 4.58203C6.57687 4.58203 6.43364 4.51791 6.33355 4.40614C6.28352 4.35028 6.21209 4.31836 6.1371 4.31836H5.93555C5.79014 4.31836 5.67188 4.20009 5.67188 4.05469C5.67188 3.90928 5.79014 3.79102 5.93555 3.79102ZM6.02917 4.8457C6.22077 5.01449 6.46887 5.10938 6.72656 5.10938C7.04135 5.10938 7.32418 4.97058 7.51758 4.75117C7.71097 4.97058 7.9938 5.10938 8.30859 5.10938C8.56632 5.10938 8.81439 5.01452 9.00595 4.8457H9.66211C10.0983 4.8457 10.4531 5.20054 10.4531 5.63672V10.9453C10.4531 12.564 9.13624 13.8809 7.51758 13.8809C5.89891 13.8809 4.58203 12.564 4.58203 10.9453V5.63672C4.58203 5.20054 4.9369 4.8457 5.37305 4.8457H6.02917ZM10.2506 13.0694C9.82207 14.1606 8.75895 14.9355 7.51758 14.9355C6.27621 14.9355 5.21309 14.1606 4.7846 13.0694C5.41879 13.8836 6.40801 14.4082 7.51758 14.4082C8.62714 14.4082 9.61637 13.8836 10.2506 13.0694ZM3.52734 5.63672C3.52734 4.68187 4.25617 3.89413 5.18672 3.8004C5.15951 3.88028 5.14453 3.96574 5.14453 4.05469C5.14453 4.15179 5.16221 4.24478 5.19435 4.3308C4.55166 4.41831 4.05469 4.9704 4.05469 5.63672V10.1543H3.52734V5.63672ZM16.1221 4.05469C15.0316 4.05469 14.1445 4.94182 14.1445 6.03223V17.0273C14.1445 18.9271 12.599 20.4727 10.6992 20.4727C8.79948 20.4727 7.25391 18.9271 7.25391 17.0273V16.2214C7.25391 16.0883 7.1547 15.976 7.02261 15.9597C5.02996 15.7133 3.52734 14.011 3.52734 12V10.6816H4.05469V12C4.05469 13.9094 5.60814 15.4629 7.51758 15.4629C9.42702 15.4629 10.9805 13.9094 10.9805 12V10.6816H11.5078V12C11.5078 14.011 10.0052 15.7133 8.01258 15.9597C7.88046 15.976 7.78125 16.0883 7.78125 16.2214V17.0273C7.78125 18.6363 9.09022 19.9453 10.6992 19.9453C12.3082 19.9453 13.6172 18.6363 13.6172 17.0273V6.03223C13.6172 4.65101 14.7409 3.52734 16.1221 3.52734C17.5033 3.52734 18.627 4.65101 18.627 6.03223V7.25391H18.0996V6.03223C18.0996 4.94182 17.2125 4.05469 16.1221 4.05469ZM18.0996 8.30859V7.78125H18.627V8.30859H18.0996ZM18.627 8.83594V10.4404C18.5411 10.4259 18.4531 10.418 18.3633 10.418C18.2734 10.418 18.1854 10.4259 18.0996 10.4404V8.83594H18.627ZM18.3633 10.9453C18.9448 10.9453 19.418 11.4184 19.418 12C19.418 12.5816 18.9448 13.0547 18.3633 13.0547C17.7817 13.0547 17.3086 12.5816 17.3086 12C17.3086 11.4184 17.7817 10.9453 18.3633 10.9453ZM18.3633 14.1094C17.2002 14.1094 16.2539 13.1631 16.2539 12C16.2539 11.123 16.7819 10.3604 17.5723 10.0442V10.6308C17.0999 10.9048 16.7812 11.4157 16.7812 12C16.7812 12.8723 17.4909 13.582 18.3633 13.582C19.2356 13.582 19.9453 12.8723 19.9453 12C19.9453 11.4157 19.6267 10.9048 19.1543 10.6308V10.0442C19.9446 10.3604 20.4727 11.123 20.4727 12C20.4727 13.1631 19.5264 14.1094 18.3633 14.1094Z" fill="#333333"/>
</svg>
