<svg width="24" height="24" viewBox="0 0 24 24" fill="none" xmlns="http://www.w3.org/2000/svg">
<path d="M18.5 5H12.25C11.5596 5 11 5.55964 11 6.25C11 6.94036 11.5596 7.5 12.25 7.5H17.5C18.0523 7.5 18.5 7.94772 18.5 8.5V19C18.5 19.8284 19.1716 20.5 20 20.5C20.8284 20.5 21.5 19.8284 21.5 19V8C21.5 6.34315 20.1569 5 18.5 5Z" fill="#4BD274"/>
<path d="M7.44893 4.59591C7.32903 4.332 7.06426 4.16129 6.77422 4.16129C6.48419 4.16129 6.21942 4.332 6.09951 4.59591L5.03229 7.29968V7.64516C5.03229 8.60584 5.81355 9.3871 6.77422 9.3871C7.7349 9.3871 8.51616 8.60584 8.51616 7.63094C8.51616 7.41116 8.47522 7.19603 8.3948 6.99136L7.44893 4.59591ZM6.77422 8.80645C6.13377 8.80645 5.61293 8.28562 5.61293 7.64516V7.41L6.63051 4.83078C6.68538 4.72104 6.87526 4.73642 6.91474 4.82236L7.85451 7.20416C7.90822 7.34091 7.93551 7.48433 7.93551 7.64516C7.93551 8.28562 7.41467 8.80645 6.77422 8.80645Z" fill="#333333"/>
<path d="M21 12.2903V11.7097C21 11.3895 20.7396 11.129 20.4194 11.129V7.35484C20.4194 6.23448 19.5075 5.32258 18.3871 5.32258H16.9355C16.9355 5.00235 16.6751 4.74194 16.3548 4.74194H15.7742C15.454 4.74194 15.1935 5.00235 15.1935 5.32258H13.4516C13.4516 5.00235 13.1912 4.74194 12.871 4.74194H12.2903C11.9701 4.74194 11.7097 5.00235 11.7097 5.32258H10.2572C9.68729 3.9601 8.34106 3 6.77419 3C4.69316 3 3 4.69316 3 6.77419C3 8.85523 4.69316 10.5484 6.77419 10.5484C8.34106 10.5484 9.68729 9.58829 10.2572 8.22581H11.7097C11.7097 8.54603 11.9701 8.80645 12.2903 8.80645H12.871C13.1912 8.80645 13.4516 8.54603 13.4516 8.22581H15.1935C15.1935 8.54603 15.454 8.80645 15.7742 8.80645H16.3548C16.6751 8.80645 16.9355 8.54603 16.9355 8.22581H17.5161V11.129C17.1959 11.129 16.9355 11.3895 16.9355 11.7097V12.2903C16.9355 12.6105 17.1959 12.871 17.5161 12.871V13.4516H16.3548C16.3548 13.1314 16.0944 12.871 15.7742 12.871H15.1935C14.8733 12.871 14.6129 13.1314 14.6129 13.4516H13.1613V12.2903H13.4516C13.9318 12.2903 14.3226 11.8995 14.3226 11.4194C14.3226 10.9392 13.9318 10.5484 13.4516 10.5484H13.1613C13.1613 9.90794 12.6405 9.3871 12 9.3871C11.3595 9.3871 10.8387 9.90794 10.8387 10.5484H10.5484C10.0682 10.5484 9.67742 10.9392 9.67742 11.4194C9.67742 11.8995 10.0682 12.2903 10.5484 12.2903H10.8387V13.4516H9.3871C9.3871 13.1314 9.12668 12.871 8.80645 12.871H8.22581C7.90558 12.871 7.64516 13.1314 7.64516 13.4516H6.19355C5.07319 13.4516 4.16129 14.3635 4.16129 15.4839V17.5161C3.84106 17.5161 3.58065 17.7765 3.58065 18.0968V18.6774C3.58065 18.9976 3.84106 19.2581 4.16129 19.2581V21H7.06452V19.2581C7.38474 19.2581 7.64516 18.9976 7.64516 18.6774V18.0968C7.64516 17.7765 7.38474 17.5161 7.06452 17.5161V16.3548H7.64516C7.64516 16.6751 7.90558 16.9355 8.22581 16.9355H8.80645C9.12668 16.9355 9.3871 16.6751 9.3871 16.3548H14.6129C14.6129 16.6751 14.8733 16.9355 15.1935 16.9355H15.7742C16.0944 16.9355 16.3548 16.6751 16.3548 16.3548H17.5161V17.5161C17.1959 17.5161 16.9355 17.7765 16.9355 18.0968V18.6774C16.9355 18.9976 17.1959 19.2581 17.5161 19.2581V21H20.4194V19.2581C20.7396 19.2581 21 18.9976 21 18.6774V18.0968C21 17.7765 20.7396 17.5161 20.4194 17.5161V12.871C20.7396 12.871 21 12.6105 21 12.2903ZM6.77419 9.96774C5.01339 9.96774 3.58065 8.535 3.58065 6.77419C3.58065 5.01339 5.01339 3.58065 6.77419 3.58065C8.535 3.58065 9.96774 5.01339 9.96774 6.77419C9.96774 8.535 8.535 9.96774 6.77419 9.96774ZM10.443 7.64516C10.5095 7.365 10.5484 7.07439 10.5484 6.77419C10.5484 6.474 10.5095 6.18339 10.443 5.90323H11.7097V7.64516H10.443ZM12.2903 8.22581V5.32258H12.871L12.8715 8.22581H12.2903ZM13.4516 7.64516V5.90323H15.1935V7.64516H13.4516ZM6.48387 20.4194H4.74194V19.2581H6.48387V20.4194ZM7.0651 18.6774H4.16129V18.0968H7.06452L7.0651 18.6774ZM7.06452 15.7742C6.74429 15.7742 6.48387 16.0346 6.48387 16.3548V17.5161H4.74194V15.4839C4.74194 14.6835 5.39313 14.0323 6.19355 14.0323H7.64516V15.7742H7.06452ZM12 9.96774C12.3202 9.96774 12.5806 10.2282 12.5806 10.5484H11.4194C11.4194 10.2282 11.6798 9.96774 12 9.96774ZM10.2581 11.4194C10.2581 11.2591 10.3881 11.129 10.5484 11.129H13.4516C13.6119 11.129 13.7419 11.2591 13.7419 11.4194C13.7419 11.5796 13.6119 11.7097 13.4516 11.7097H10.5484C10.3881 11.7097 10.2581 11.5796 10.2581 11.4194ZM11.4194 12.2903H12.5806V13.4516H11.4194V12.2903ZM8.22581 16.3548V13.4516H8.80645L8.80703 16.3548H8.22581ZM9.3871 15.7742V14.0323H14.6129V15.7742H9.3871ZM15.7742 8.22581V5.32258H16.3548L16.3554 8.22581H15.7742ZM17.5161 7.64516H16.9355V5.90323H18.3871C19.1875 5.90323 19.8387 6.55442 19.8387 7.35484V11.129H18.0968V8.22581C18.0968 7.90558 17.8364 7.64516 17.5161 7.64516ZM17.5161 11.7097H20.4194L20.4199 12.2903H17.5161V11.7097ZM15.1935 16.3548V13.4516H15.7742L15.7748 16.3548H15.1935ZM16.3548 15.7742V14.0323H17.5161V15.7742H16.3548ZM19.8387 20.4194H18.0968V19.2581H19.8387V20.4194ZM20.4199 18.6774H17.5161V18.0968H20.4194L20.4199 18.6774ZM19.8387 17.5161H18.0968V12.871H19.8387V17.5161Z" fill="#333333"/>
<path d="M18.6774 14.0323H19.2581V14.6129H18.6774V14.0323Z" fill="#333333"/>
<path d="M18.6774 16.3548H19.2581V16.9355H18.6774V16.3548Z" fill="#333333"/>
<path d="M18.6774 15.1936H19.2581V15.7742H18.6774V15.1936Z" fill="#333333"/>
<path d="M12.2903 14.6129H12.871V15.1935H12.2903V14.6129Z" fill="#333333"/>
<path d="M9.96771 14.6129H10.5484V15.1935H9.96771V14.6129Z" fill="#333333"/>
<path d="M11.129 14.6129H11.7097V15.1935H11.129V14.6129Z" fill="#333333"/>
<path d="M18.6774 9.96774H19.2581V10.5484H18.6774V9.96774Z" fill="#333333"/>
<path d="M18.6774 7.64516H19.2581V8.22581H18.6774V7.64516Z" fill="#333333"/>
<path d="M18.6774 8.80645H19.2581V9.3871H18.6774V8.80645Z" fill="#333333"/>
</svg>
