<svg width="24" height="24" viewBox="0 0 24 24" fill="none" xmlns="http://www.w3.org/2000/svg">
<rect x="12" y="11.5" width="8" height="5" rx="1" fill="#4BD274"/>
<path d="M15.4054 16.8649H14.9189V17.3514H15.4054V16.8649Z" fill="#333333"/>
<path d="M20.7568 17.3514H20.5135V10.7838C20.5135 10.2464 20.0779 9.81081 19.5405 9.81081H17.5946V6.64865C17.5934 5.57443 16.7229 4.70392 15.6486 4.7027H4.94595C3.87172 4.70392 3.00122 5.57443 3 6.64865V14.4324C3.00122 15.5067 3.87172 16.3772 4.94595 16.3784H7.31003L6.94516 17.8378H4.7027C4.29968 17.8378 3.97297 18.1645 3.97297 18.5676C3.97297 18.9706 4.29968 19.2973 4.7027 19.2973H20.027C20.5644 19.2973 21 18.8617 21 18.3243V17.5946C21 17.4603 20.8911 17.3514 20.7568 17.3514ZM19.5405 10.2973C19.8092 10.2973 20.027 10.5151 20.027 10.7838V17.3514H17.3514C17.2868 17.3514 17.225 17.377 17.1794 17.4226L16.7642 17.8378H13.5602L13.1449 17.4226C13.0993 17.377 13.0375 17.3514 12.973 17.3514H10.2973V10.7838C10.2973 10.5151 10.5151 10.2973 10.7838 10.2973H19.5405ZM9.81081 10.7838V13.9459H5.18919C4.9205 13.9459 4.7027 13.7282 4.7027 13.4595V6.89189C4.7027 6.6232 4.9205 6.40541 5.18919 6.40541H15.3949C15.6636 6.40541 15.8814 6.6232 15.8814 6.89189V9.81081H10.7838C10.2464 9.81081 9.81081 10.2464 9.81081 10.7838ZM4.94595 15.8919C4.14023 15.8911 3.48728 15.2381 3.48649 14.4324V6.64865C3.48728 5.84294 4.14023 5.18998 4.94595 5.18919H15.6486C16.4544 5.18998 17.1073 5.84294 17.1081 6.64865V9.81081H16.3679V6.89189C16.3679 6.35454 15.9323 5.91892 15.3949 5.91892H5.18919C4.65183 5.91892 4.21622 6.35454 4.21622 6.89189V13.4595C4.21622 13.9968 4.65183 14.4324 5.18919 14.4324H9.81081V15.8919H4.94595ZM4.7027 18.8108C4.56837 18.8108 4.45946 18.7019 4.45946 18.5676C4.45946 18.4332 4.56837 18.3243 4.7027 18.3243H9.32432C9.32533 18.4956 9.37203 18.6636 9.45957 18.8108H4.7027ZM9.32432 17.5946V17.8378H7.44673L7.81159 16.3784H9.81081V17.3514H9.56757C9.43324 17.3514 9.32432 17.4603 9.32432 17.5946ZM20.5135 18.3243C20.5135 18.593 20.2957 18.8108 20.027 18.8108H10.2973C10.0286 18.8108 9.81081 18.593 9.81081 18.3243V17.8378H12.8723L13.2875 18.2531C13.3331 18.2987 13.3949 18.3243 13.4595 18.3243H16.8649C16.9294 18.3243 16.9912 18.2987 17.0368 18.2531L17.4521 17.8378H20.5135V18.3243Z" fill="#333333"/>
<path d="M19.2973 10.7838H11.0271C10.8927 10.7838 10.7838 10.8927 10.7838 11.027V16.1351C10.7838 16.2695 10.8927 16.3784 11.0271 16.3784H19.2973C19.4317 16.3784 19.5406 16.2695 19.5406 16.1351V11.027C19.5406 10.8927 19.4317 10.7838 19.2973 10.7838ZM19.0541 15.8919H11.2703V11.2703H19.0541V15.8919Z" fill="#333333"/>
<path d="M5.9233 7.13514C5.65233 7.13541 5.43271 7.35503 5.43243 7.626V9.08108H5.91892L5.9233 7.62162H9.56757V7.13514H5.9233Z" fill="#333333"/>
<path d="M10.5406 7.13514H10.0541V7.62162H10.5406V7.13514Z" fill="#333333"/>
<path d="M12.2476 11.7568C11.9767 11.757 11.757 11.9767 11.7568 12.2476V13.4595H12.2433L12.2476 12.2432H13.946V11.7568H12.2476Z" fill="#333333"/>
<path d="M14.9189 11.7568H14.4324V12.2432H14.9189V11.7568Z" fill="#333333"/>
</svg>
