<svg width="18" height="17" viewBox="0 0 18 17" fill="none" xmlns="http://www.w3.org/2000/svg">
<path d="M17.4727 11.4816C16.4026 11.4816 15.3976 11.1032 14.6426 10.416C13.8878 9.72917 13.4723 8.81436 13.4723 7.84014C13.4723 7.57314 13.2361 7.35674 12.9449 7.35674C12.6536 7.35674 12.4176 7.57314 12.4176 7.84014C12.4176 8.81436 12.0019 9.72917 11.2471 10.416C10.4921 11.1032 9.48711 11.4816 8.41704 11.4816C8.12576 11.4816 7.88969 11.698 7.88969 11.965C7.88969 12.232 8.12576 12.4484 8.41704 12.4484C10.6228 12.4484 12.4176 14.0868 12.4176 16.1006C12.4176 16.3676 12.6536 16.584 12.9449 16.584C13.2361 16.584 13.4723 16.3676 13.4723 16.1006C13.4723 14.0868 15.2669 12.4484 17.4727 12.4484C17.7639 12.4484 18 12.232 18 11.965C18 11.698 17.7639 11.4816 17.4727 11.4816ZM12.9449 14.0475C12.4552 13.1496 11.6547 12.4168 10.6731 11.9677C11.1544 11.7489 11.5988 11.4583 11.9902 11.1021C12.3834 10.7443 12.7038 10.3377 12.9448 9.8971C13.1859 10.3377 13.5063 10.7443 13.8994 11.1021C14.2907 11.4583 14.7353 11.7489 15.2165 11.9677C14.235 12.4168 13.4345 13.1496 12.9449 14.0475Z" fill="#4BD274"/>
<path d="M7.21527 7.70191C5.66222 7.70191 4.39865 6.55221 4.39865 5.1389C4.39865 4.87202 4.16258 4.6555 3.87131 4.6555C3.58003 4.6555 3.34396 4.87202 3.34396 5.1389C3.34396 6.55221 2.0804 7.70191 0.527344 7.70191C0.236069 7.70191 0 7.91844 0 8.18531C0 8.45231 0.236069 8.66871 0.527344 8.66871C2.0804 8.66871 3.34396 9.82207 3.34396 11.2397C3.34396 11.5065 3.58003 11.7231 3.87131 11.7231C4.16258 11.7231 4.39865 11.5065 4.39865 11.2397C4.39865 9.82207 5.66222 8.66871 7.21527 8.66871C7.50655 8.66871 7.74261 8.45231 7.74261 8.18531C7.74261 7.91844 7.50655 7.70191 7.21527 7.70191ZM3.87131 9.45864C3.53499 8.93332 3.05461 8.49386 2.48016 8.18594C3.05461 7.87866 3.53499 7.4402 3.87131 6.91601C4.20763 7.4402 4.688 7.87866 5.26245 8.18594C4.688 8.49386 4.20763 8.9332 3.87131 9.45864Z" fill="#4BD274"/>
<path d="M8.07317 3.42447C9.21534 3.42447 10.1446 4.26979 10.1446 5.30872C10.1446 5.57559 10.3807 5.79211 10.672 5.79211C10.9633 5.79211 11.1993 5.57559 11.1993 5.30872C11.1993 4.26639 12.1286 3.41843 13.2708 3.41843C13.5621 3.41843 13.7982 3.2019 13.7982 2.93503C13.7982 2.66803 13.5621 2.45163 13.2708 2.45163C12.1286 2.45163 11.1993 1.60631 11.1993 0.567383C11.1993 0.300381 10.9633 0.0839844 10.672 0.0839844C10.3807 0.0839844 10.1446 0.300381 10.1446 0.567383C10.1446 1.60971 9.21534 2.45767 8.07317 2.45767C7.78189 2.45767 7.54582 2.67407 7.54582 2.94107C7.54582 3.20807 7.78189 3.42447 8.07317 3.42447ZM10.6732 2.15215C10.9008 2.46132 11.1929 2.72782 11.5318 2.93553C11.1916 3.14437 10.8987 3.41264 10.6708 3.72395C10.4432 3.41478 10.1511 3.14828 9.81217 2.94057C10.1523 2.73172 10.4454 2.46346 10.6732 2.15215Z" fill="#4BD274"/>
</svg>
