<svg width="80" height="80" viewBox="0 0 80 80" fill="none" xmlns="http://www.w3.org/2000/svg">
<circle cx="58.4" cy="37.5992" r="2.4" fill="#333333"/>
<circle cx="51.2001" cy="37.5992" r="2.4" fill="#333333"/>
<path fill-rule="evenodd" clip-rule="evenodd" d="M46.4 31.6016C45.2955 31.6016 44.4 32.497 44.4 33.6016V46.5417L48.5653 43.6016H62.8C63.9046 43.6016 64.8 42.7061 64.8 41.6016V33.6016C64.8 32.497 63.9046 31.6016 62.8 31.6016H46.4ZM40.4 33.6016C40.4 30.2879 43.0863 27.6016 46.4 27.6016H62.8C66.1137 27.6016 68.8 30.2879 68.8 33.6016V41.6016C68.8 44.9153 66.1137 47.6016 62.8 47.6016H49.8348L44.8147 51.1451C42.96 52.4544 40.4 51.1279 40.4 48.8576V33.6016Z" fill="#4BD274"/>
<path fill-rule="evenodd" clip-rule="evenodd" d="M10.4 10.1961C10.4 4.56494 14.965 0 20.5961 0H48.0471C53.6782 0 58.2432 4.56494 58.2432 10.1961V23.2H53.5373V10.1961C53.5373 7.4031 51.4517 5.09723 48.753 4.75084V5.64706C48.753 9.32896 45.7682 12.3137 42.0863 12.3137H26.5569C22.875 12.3137 19.8902 9.32896 19.8902 5.64706V4.75084C17.1915 5.09723 15.1059 7.4031 15.1059 10.1961V69.8039C15.1059 72.8361 17.564 75.2941 20.5961 75.2941H48.0471C51.0792 75.2941 53.5373 72.8361 53.5373 69.8039V52H58.2432V69.8039C58.2432 75.4351 53.6782 80 48.0471 80H20.5961C14.965 80 10.4 75.4351 10.4 69.8039V10.1961ZM23.8118 4.70588H44.8314V5.64706C44.8314 7.16314 43.6024 8.39216 42.0863 8.39216H26.5569C25.0408 8.39216 23.8118 7.16314 23.8118 5.64706V4.70588Z" fill="#333333"/>
</svg>
