<svg width="80" height="80" viewBox="0 0 80 80" fill="none" xmlns="http://www.w3.org/2000/svg">
<path fill-rule="evenodd" clip-rule="evenodd" d="M26.3529 0C20.7218 0 16.1569 4.56494 16.1569 10.1961V69.8039C16.1569 75.4351 20.7218 80 26.3529 80H53.8039C59.4351 80 64 75.4351 64 69.8039V10.1961C64 4.56494 59.4351 0 53.8039 0H26.3529ZM25.6471 4.75084C22.9483 5.09723 20.8627 7.4031 20.8627 10.1961V69.8039C20.8627 72.8361 23.3208 75.2941 26.3529 75.2941H53.8039C56.8361 75.2941 59.2941 72.8361 59.2941 69.8039V10.1961C59.2941 7.4031 57.2086 5.09723 54.5098 4.75084V5.64706C54.5098 9.32896 51.525 12.3137 47.8431 12.3137H32.3137C28.6318 12.3137 25.6471 9.32896 25.6471 5.64706V4.75084ZM50.5882 4.70588H29.5686V5.64706C29.5686 7.16314 30.7976 8.39216 32.3137 8.39216H47.8431C49.3592 8.39216 50.5882 7.16314 50.5882 5.64706V4.70588Z" fill="#333333"/>
<ellipse cx="50.5882" cy="28.1583" rx="3.52941" ry="3.52941" fill="#4BD274"/>
<ellipse cx="50.5882" cy="37.7286" rx="3.52941" ry="3.52941" fill="#4BD274"/>
<ellipse cx="50.5882" cy="47.295" rx="3.52941" ry="3.52941" fill="#4BD274"/>
<ellipse cx="40.0784" cy="28.1583" rx="3.52941" ry="3.52941" fill="#4BD274"/>
<ellipse cx="40.0784" cy="37.7286" rx="3.52941" ry="3.52941" fill="#4BD274"/>
<ellipse cx="40.0784" cy="47.295" rx="3.52941" ry="3.52941" fill="#4BD274"/>
<ellipse cx="40.0784" cy="56.8653" rx="3.52941" ry="3.52941" fill="#4BD274"/>
<ellipse cx="29.5686" cy="28.1583" rx="3.52941" ry="3.52941" fill="#4BD274"/>
<ellipse cx="29.5686" cy="37.7286" rx="3.52941" ry="3.52941" fill="#4BD274"/>
<ellipse cx="29.5686" cy="47.295" rx="3.52941" ry="3.52941" fill="#4BD274"/>
</svg>
