<svg width="80" height="80" viewBox="0 0 80 80" fill="none" xmlns="http://www.w3.org/2000/svg">
<path fill-rule="evenodd" clip-rule="evenodd" d="M15.6522 11.4018C10.8497 11.4018 6.95652 15.295 6.95652 20.0975V60.6772C6.95652 65.4797 10.8497 69.3728 15.6522 69.3728H64.3478C69.1503 69.3728 73.0435 65.4797 73.0435 60.6772V20.0975C73.0435 15.295 69.1503 11.4018 64.3478 11.4018H15.6522ZM0 20.0975C0 11.453 7.00772 4.44531 15.6522 4.44531H64.3478C72.9923 4.44531 80 11.453 80 20.0975V60.6772C80 69.3217 72.9923 76.3294 64.3478 76.3294H15.6522C7.00772 76.3294 0 69.3217 0 60.6772V20.0975Z" fill="#333333"/>
<path fill-rule="evenodd" clip-rule="evenodd" d="M27.8261 27.6323C25.2648 27.6323 23.1885 29.7087 23.1885 32.27C23.1885 34.8313 25.2648 36.9077 27.8261 36.9077C30.3875 36.9077 32.4638 34.8313 32.4638 32.27C32.4638 29.7087 30.3875 27.6323 27.8261 27.6323ZM16.2319 32.27C16.2319 25.8667 21.4228 20.6758 27.8261 20.6758C34.2294 20.6758 39.4203 25.8667 39.4203 32.27C39.4203 38.6733 34.2294 43.8642 27.8261 43.8642C21.4228 43.8642 16.2319 38.6733 16.2319 32.27Z" fill="#4BD274"/>
<path fill-rule="evenodd" clip-rule="evenodd" d="M48.6956 24.154C48.6956 22.2331 50.2528 20.6758 52.1738 20.6758H60.2898C62.2107 20.6758 63.768 22.2331 63.768 24.154C63.768 26.075 62.2107 27.6323 60.2898 27.6323H52.1738C50.2528 27.6323 48.6956 26.075 48.6956 24.154Z" fill="#333333"/>
<path fill-rule="evenodd" clip-rule="evenodd" d="M48.6956 40.3884C48.6956 38.4674 50.2528 36.9102 52.1738 36.9102H60.2898C62.2107 36.9102 63.768 38.4674 63.768 40.3884C63.768 42.3094 62.2107 43.8667 60.2898 43.8667H52.1738C50.2528 43.8667 48.6956 42.3094 48.6956 40.3884Z" fill="#333333"/>
<path fill-rule="evenodd" clip-rule="evenodd" d="M16.2319 56.6189C16.2319 54.6979 17.7892 53.1406 19.7102 53.1406H60.2899C62.2109 53.1406 63.7682 54.6979 63.7682 56.6189C63.7682 58.5399 62.2109 60.0972 60.2899 60.0972H19.7102C17.7892 60.0972 16.2319 58.5399 16.2319 56.6189Z" fill="#333333"/>
</svg>
