<svg width="73" height="72" viewBox="0 0 73 72" fill="none" xmlns="http://www.w3.org/2000/svg">
<g clip-path="url(#clip0_11285_52345)">
<path d="M40.5 34.5H10.5V29.5C5.3 29.5 3.66667 33.1667 3.5 35V62C3.5 67.6 8.16667 69 10.5 69H72.5V34.5H50L51.5 36L54 43.5L47 41L40.5 34.5Z" fill="#4BD274"/>
<path d="M7.26736 72.0004C6.79169 71.8419 6.29129 71.7299 5.84181 71.5146C3.57694 70.4381 2.37687 68.6373 2.35069 66.1222C2.34051 65.3469 2.20523 64.7214 1.67865 64.0857C0.597991 62.7885 0.0129181 61.1498 0.0276421 59.4615C0.00727725 50.7977 -0.0174515 42.1353 0.0276421 33.473C0.0523709 29.192 3.61477 25.6456 7.82157 25.5423C8.85 25.5161 9.28929 25.9336 9.29656 26.9591C9.30384 27.9846 9.29656 29.0363 9.29656 30.1273H35.2196L23.1461 18.0539C22.0915 18.8146 21.8166 18.7885 20.7882 17.7629C19.095 16.0688 17.4013 14.3751 15.7071 12.6819C15.5239 12.4972 15.3289 12.3241 15.1166 12.1262C14.9944 12.2295 14.8998 12.3008 14.8169 12.3808C13.3812 13.7481 13.3754 14.026 14.7587 15.4093C16.8796 17.5321 19.0019 19.653 21.1256 21.7719C21.3341 21.959 21.5521 22.1353 21.7788 22.2999C21.1329 22.8978 20.5918 23.3982 20.0172 23.932C19.8994 23.8215 19.7263 23.6629 19.5532 23.4956C17.2752 21.2196 14.9987 18.9422 12.7237 16.6632C10.9781 14.9075 10.9665 12.9336 12.715 11.1924C12.9506 10.9567 13.2561 10.7923 13.5586 10.5741C12.5564 9.45116 11.944 8.37618 11.7476 7.0932C11.3461 4.45304 12.5869 1.9438 14.9173 0.711721C16.0355 0.111771 17.3154 -0.117547 18.5724 0.0568292C19.8293 0.231206 20.9985 0.800268 21.9112 1.68196C23.8022 3.48571 25.6176 5.3651 27.4679 7.20957L29.5203 9.26206C30.4106 10.1552 30.428 10.5552 29.5756 11.6084C29.7429 11.7873 29.9145 11.9779 30.0949 12.1597C35.928 17.9966 41.7577 23.8375 47.584 29.6822C47.7437 29.8557 47.9395 29.992 48.1577 30.0815C48.3759 30.171 48.6111 30.2115 48.8466 30.2001C56.0078 30.1841 63.1689 30.2001 70.3301 30.1768C71.0385 30.1768 71.6029 30.3222 72.0131 30.9157V66.6299C71.4778 67.5303 70.5439 67.3267 69.6857 67.3805C69.6857 68.4147 69.6479 69.3763 69.6973 70.3319C69.7352 71.0404 69.5402 71.5931 68.9598 72.0019L7.26736 72.0004ZM9.30384 32.5056V33.4643C9.30384 39.5854 9.30384 45.7064 9.30384 51.8275C9.30384 53.0247 8.98673 53.3549 7.77357 53.4276C6.30964 53.5244 4.9363 54.1706 3.92856 55.2369C2.92083 56.3032 2.3531 57.7108 2.33906 59.1778C2.31869 62.5017 4.9283 65.0298 8.40633 65.0298C28.6054 65.0298 48.8035 65.0298 69.0006 65.0298H69.6522V32.5711H50.6867C50.998 33.3275 51.2977 34.0577 51.6162 34.8287H52.3843C56.8587 34.8287 61.3337 34.8287 65.8091 34.8287C66.9917 34.8287 67.3626 35.2025 67.3626 36.3939C67.3626 39.9752 67.3626 43.556 67.3626 47.1364C67.3626 48.4164 67.0106 48.7655 65.7247 48.7655H49.9114C46.1381 48.7655 42.3648 48.7655 38.5914 48.7655C37.6532 48.7655 37.1833 48.3582 37.1804 47.4986C37.1678 43.701 37.1678 39.9029 37.1804 36.1044C37.1804 35.2869 37.627 34.8578 38.4402 34.8331C38.9595 34.8171 39.4788 34.8331 40.2323 34.8331C39.4831 34.1057 38.8765 33.5588 38.3238 32.9639C38.182 32.8046 38.0056 32.68 37.8082 32.5995C37.6108 32.5191 37.3975 32.485 37.1848 32.4998C28.1661 32.5115 19.1435 32.5144 10.117 32.5086L9.30384 32.5056ZM64.9959 46.4105V37.1968H52.3566C52.6796 38.1729 52.9705 39.0879 53.2876 39.9956C53.4767 40.5367 53.5073 41.0429 53.0592 41.4691C52.6374 41.8691 52.1574 41.8342 51.6395 41.6567C50.134 41.1374 48.64 40.5672 47.104 40.157C45.4122 39.7075 43.9809 38.9264 42.8855 37.5503C42.7575 37.3889 42.5582 37.1838 42.3837 37.1765C41.4309 37.1401 40.4752 37.159 39.5384 37.159V46.4105H64.9959ZM4.75229 66.6052C4.97921 68.4787 6.4033 69.6744 8.31033 69.6744C27.8024 69.6744 47.2945 69.6744 66.7866 69.6744C66.9633 69.668 67.1395 69.6524 67.3146 69.6279V67.3572H66.3139C47.3784 67.3572 28.4439 67.3572 9.5104 67.3572C7.90303 67.3572 6.31602 67.3412 4.75229 66.6052ZM25.0852 16.1541L45.3177 36.3953L48.0364 33.6868L27.801 13.4398L25.0852 16.1541ZM6.93861 51.1642V28.0356C4.32027 28.4559 2.34342 30.8837 2.3376 33.6941C2.32306 40.0945 2.32306 46.4992 2.3376 52.9083C2.34761 53.0731 2.36655 53.2373 2.39433 53.4C4.40464 51.8799 5.06359 51.5541 6.93861 51.1642ZM21.9213 15.6799L27.286 10.305C25.0546 8.07799 22.7767 5.78257 20.4682 3.50753C18.8782 1.93652 16.5916 1.8987 15.0773 3.39116C13.563 4.88361 13.5659 7.22266 15.1602 8.83294C16.9625 10.6571 18.7851 12.4593 20.5933 14.2776C21.066 14.7533 21.5169 15.2537 21.9199 15.6799H21.9213ZM47.4894 37.8151L50.4322 38.7838C50.0772 37.7322 49.7703 36.8259 49.4445 35.8629L47.4894 37.8151Z" fill="#333333"/>
<path d="M49.9492 58.0614H34.2013C32.8689 58.0614 32.5329 57.7254 32.5314 56.3929C32.5314 55.0838 32.5314 53.7746 32.5314 52.4654C32.5387 51.5141 32.9562 51.0879 33.9061 51.0879C44.6005 51.0879 55.2945 51.0879 65.988 51.0879C66.9379 51.0879 67.3597 51.5141 67.367 52.4625C67.3772 53.8415 67.367 55.2263 67.367 56.6009C67.367 57.6425 66.9568 58.0556 65.9124 58.0556C60.5942 58.0633 55.2732 58.0653 49.9492 58.0614ZM65.0061 55.7064V53.4604H34.9054V55.7064H65.0061Z" fill="#333333"/>
<path d="M32.5242 45.2643C32.5242 48.042 31.4207 50.7059 29.4566 52.6701C27.4924 54.6342 24.8285 55.7376 22.0508 55.7376C16.3574 55.7376 11.6371 51.0552 11.6182 45.3734C11.5992 39.565 16.273 34.8302 22.0144 34.8302C23.39 34.8237 24.7534 35.0886 26.0265 35.6097C27.2996 36.1308 28.4575 36.898 29.4337 37.8672C30.4099 38.8364 31.1854 39.9886 31.7157 41.2579C32.246 42.5272 32.5207 43.8887 32.5242 45.2643ZM30.1967 45.305C30.1967 40.8233 26.5602 37.1591 22.1104 37.1591C21.0387 37.156 19.977 37.3644 18.986 37.7724C17.995 38.1804 17.0942 38.78 16.3353 39.5367C15.5764 40.2934 14.9743 41.1925 14.5635 42.1823C14.1527 43.1721 13.9412 44.2333 13.9412 45.305C13.9325 49.7286 17.5778 53.4015 21.9941 53.419C23.0664 53.4272 24.1298 53.2236 25.1232 52.82C26.1167 52.4163 27.0206 51.8204 27.7833 51.0666C28.5459 50.3127 29.1522 49.4157 29.5674 48.427C29.9825 47.4383 30.1984 46.3773 30.2026 45.305H30.1967Z" fill="#333333"/>
<path d="M30.172 58.1113V60.3471H14.0052V58.1113H30.172Z" fill="#333333"/>
<path d="M17.2723 47.6391H19.5096L20.6616 48.8697L20.8638 48.7242V46.4768C19.7874 46.375 18.7546 46.0215 18.18 45.0556C17.7692 44.3844 17.5267 43.6239 17.4731 42.8388C17.4134 41.0452 18.7299 39.803 20.89 39.4218C20.9045 39.0975 20.9205 38.7643 20.9395 38.373H23.2043C23.2232 38.7003 23.2451 39.0509 23.2654 39.3913C25.5768 39.9266 26.6562 41.0307 26.6925 42.9159H24.4364C24.2909 42.334 24 41.8685 23.2727 41.822V44.0607C25.5332 44.4971 26.7638 45.7902 26.7202 47.69C26.6824 49.5097 25.3863 50.8189 23.2683 51.1244C23.2523 51.4618 23.2349 51.8139 23.216 52.2081H20.9351V51.1331C19.7525 51.0211 18.7226 50.6094 18.0942 49.6101C17.7393 49.0471 17.5676 48.3664 17.2723 47.6391ZM20.8958 41.8205C20.0769 42.0067 19.7176 42.4126 19.7597 43.0308C19.8019 43.649 20.2049 44.001 20.8958 44.0243V41.8205ZM23.2727 48.7155C24.0407 48.57 24.4466 48.1598 24.3855 47.5518C24.3215 46.903 23.9491 46.5335 23.2727 46.4652V48.7155Z" fill="#333333"/>
</g>
<defs>
<clipPath id="clip0_11285_52345">
<rect width="72.0145" height="72" fill="white"/>
</clipPath>
</defs>
</svg>
