<svg width="72" height="72" viewBox="0 0 72 72" fill="none" xmlns="http://www.w3.org/2000/svg">
<g clip-path="url(#clip0_11285_52311)">
<rect x="24" y="4" width="32" height="67" fill="#4BD274"/>
<path d="M51.8836 -0.000218636C52.7035 0.335078 52.7965 1.01835 52.7965 1.79178C52.7862 12.9467 52.7838 24.1012 52.7895 35.2552C52.7895 44.4641 52.7895 53.6735 52.7895 62.8834C52.7988 63.2105 52.7776 63.5379 52.7261 63.8611C52.6134 64.4486 52.1837 64.7514 51.6286 64.7683C51.0735 64.7853 50.6185 64.5049 50.4818 63.9231C50.4088 63.5563 50.3781 63.1824 50.3903 62.8087C50.3903 43.0318 50.3903 23.2545 50.3903 3.47672V2.44406H21.6055V3.40628C21.6055 23.2076 21.6055 43.0084 21.6055 62.8087C21.6179 63.1825 21.5867 63.5565 21.5125 63.9231C21.3716 64.5021 20.9236 64.7824 20.3671 64.7683C19.8106 64.7543 19.381 64.4472 19.2668 63.8625C19.2187 63.5834 19.1985 63.3003 19.2063 63.0172C19.2063 42.6073 19.2035 22.197 19.1978 1.78615C19.1978 1.01271 19.2894 0.329437 20.1093 -0.00585938L51.8836 -0.000218636Z" fill="#333333"/>
<path d="M-1.56886e-05 57.0866C0.140865 55.7891 0.257796 54.4874 0.422627 53.1927C0.757924 50.6836 1.18057 48.183 2.41891 45.9331C2.84113 45.1542 3.39992 44.4575 4.06863 43.8762C5.5352 42.6365 7.6146 43.0957 8.8938 44.8328C10.0434 46.3924 10.6069 48.1971 11.007 50.0567C11.6551 53.0377 12.027 56.0568 11.9396 59.1097C11.9014 60.3228 11.4832 61.4934 10.7441 62.4561C10.005 63.4189 8.98233 64.1254 7.82028 64.4758C7.32438 64.6266 7.1666 64.8295 7.17505 65.3409C7.20604 67.1202 7.19759 68.8995 7.17505 70.6788C7.16801 71.4635 6.67492 71.9806 5.99869 71.9848C5.36191 71.9848 4.87165 71.4889 4.79416 70.7605C4.77585 70.5746 4.78571 70.3858 4.78571 70.197C4.78571 68.6051 4.78571 67.0131 4.78571 65.4211V64.914C3.7615 64.2941 2.79225 63.8207 1.95682 63.1755C0.817096 62.295 0.350778 60.9707 -0.00424194 59.6197L-1.56886e-05 57.0866ZM2.39496 57.1951C2.39496 57.6178 2.39496 58.0404 2.39496 58.463C2.36397 60.7171 3.90239 62.3964 5.99024 62.3964C8.0781 62.3964 9.59538 60.7214 9.57566 58.4673C9.55171 55.8131 9.31926 53.1744 8.65853 50.6075C8.27886 49.1448 7.74129 47.7277 7.0553 46.3811C6.51291 45.3132 5.56619 45.347 4.91532 46.3698C4.459 47.1032 4.09601 47.8908 3.83476 48.7141C2.94158 51.457 2.59924 54.3127 2.402 57.1951H2.39496Z" fill="#333333"/>
<path d="M-3.05176e-05 15.1859C0.407115 14.5463 1.01009 14.38 1.73703 14.3828C6.18746 14.3983 10.6393 14.3828 15.0911 14.3941C15.3713 14.387 15.6512 14.4164 15.9237 14.4815C16.4873 14.6364 16.769 15.045 16.769 15.6268C16.769 16.2087 16.4492 16.6045 15.8758 16.7285C15.5761 16.7821 15.2714 16.8034 14.9672 16.7919C11.0554 16.7919 7.1431 16.7919 3.23037 16.7919H2.40199V38.6411C2.40199 38.8285 2.39354 39.0159 2.40199 39.2047C2.44003 39.8936 2.26956 40.4881 1.54543 40.7191C0.821305 40.9502 0.362035 40.5036 0.00560592 39.9316L-3.05176e-05 15.1859Z" fill="#333333"/>
<path d="M69.5698 64.9443V16.794H68.7428C64.8526 16.794 60.9634 16.794 57.0751 16.794C56.7712 16.8012 56.4672 16.7829 56.1664 16.7391C55.5845 16.6349 55.2619 16.2559 55.2309 15.674C55.1985 15.064 55.4845 14.6301 56.0889 14.478C56.3859 14.4135 56.6896 14.3856 56.9934 14.3949C61.3982 14.3892 65.8031 14.3892 70.208 14.3949C71.6351 14.3949 71.9887 14.7527 71.9887 16.1869C71.9887 33.4307 71.9887 50.6745 71.9887 67.9183C71.9887 70.5584 70.5475 71.9926 67.9032 71.994C64.9052 71.994 61.9059 72.0194 58.9065 71.994C55.9987 71.963 54.2715 69.0271 55.7128 66.5856C56.3946 65.4304 57.4428 64.8204 58.7938 64.8344C58.9841 64.8528 59.1758 64.8175 59.347 64.7326C59.5183 64.6477 59.6625 64.5166 59.7631 64.354C61.641 61.7914 65.4828 61.7562 67.3805 64.2878C67.6806 64.6893 67.9553 64.8852 68.4625 64.8359C68.7978 64.7908 69.1472 64.8978 69.5698 64.9443ZM63.5894 69.5934C65.1574 69.5934 66.7254 69.6032 68.2934 69.5934C68.8485 69.5934 69.3613 69.3623 69.467 68.7876C69.5324 68.3903 69.4513 67.9827 69.2387 67.6408C68.9232 67.1871 68.4061 67.1252 67.851 67.3365C66.724 67.7591 66.3014 67.5661 65.8125 66.3883C65.4011 65.4022 64.6855 64.8387 63.6218 64.8232C62.5187 64.8077 61.7904 65.3867 61.3677 66.3954C60.8634 67.5844 60.4886 67.7394 59.2545 67.3125C58.5614 67.0716 57.8654 67.3872 57.6668 68.0324C57.4146 68.8552 57.9866 69.5821 58.9558 69.5948C60.5013 69.6117 62.0468 69.5948 63.5908 69.5934H63.5894Z" fill="#333333"/>
<path d="M28.8087 52.7821C27.607 52.7821 26.5096 52.7962 25.4121 52.7821C24.6147 52.7695 24.1597 52.4328 24.047 51.8326C24.0113 51.6841 24.0062 51.5299 24.032 51.3794C24.0577 51.2288 24.1138 51.0851 24.1968 50.9569C24.2798 50.8287 24.388 50.7187 24.5148 50.6336C24.6416 50.5485 24.7844 50.4901 24.9345 50.4618C25.233 50.4048 25.5366 50.3793 25.8404 50.3858C32.6092 50.3858 39.3781 50.3858 46.1469 50.3858C46.4271 50.3807 46.7071 50.4005 46.9838 50.4449C47.6304 50.559 47.9573 50.9704 47.9615 51.6199C47.9691 51.7615 47.9482 51.9031 47.9002 52.0365C47.8521 52.17 47.7779 52.2924 47.6818 52.3966C47.5856 52.5009 47.4696 52.5848 47.3406 52.6435C47.2115 52.7022 47.072 52.7345 46.9302 52.7385C45.9272 52.799 44.9185 52.7751 43.9126 52.7892C43.7041 52.7892 43.497 52.8089 43.218 52.823C43.2054 53.0935 43.1842 53.3386 43.1842 53.5852C43.1842 56.8409 43.1842 60.0967 43.1842 63.3524C43.1842 64.4372 42.3727 65.0613 41.512 64.6612C40.8822 64.3696 40.7892 63.8032 40.7892 63.1862C40.7892 60.0013 40.7892 56.816 40.7892 53.6302V52.83H31.2093V53.6274C31.2093 56.7644 31.2093 59.9027 31.2093 63.0425C31.2159 63.3225 31.1904 63.6023 31.1333 63.8765C30.9924 64.4851 30.5472 64.7697 29.9513 64.7725C29.3554 64.7753 28.9073 64.3062 28.8355 63.706C28.8147 63.4719 28.8081 63.2366 28.8158 63.0016C28.8158 59.8872 28.8158 56.7719 28.8158 53.6556L28.8087 52.7821Z" fill="#333333"/>
<path d="M19.2387 69.596C19.2161 70.0525 19.2189 70.4413 19.1725 70.8358C19.0907 71.5402 18.6089 71.9882 17.982 71.9783C17.6847 71.9799 17.3985 71.8651 17.1847 71.6584C16.9709 71.4517 16.8465 71.1696 16.8381 70.8724C16.7866 70.0086 16.7866 69.1426 16.8381 68.2788C16.8789 67.5927 17.3382 67.256 18.0088 67.2067C18.2187 67.1912 18.4314 67.1996 18.6399 67.1996H50.9608C51.1957 67.1908 51.4309 67.1955 51.6652 67.2137C52.302 67.2912 52.6937 67.6364 52.757 68.2943C52.8176 68.9226 52.4358 69.4213 51.7864 69.5509C51.5066 69.5914 51.2236 69.606 50.9411 69.5946H19.2387V69.596Z" fill="#333333"/>
<path d="M57.5949 55.1636C57.5949 54.0619 57.5836 52.9602 57.5949 51.8585C57.609 50.8343 58.026 50.406 59.053 50.3919C60.4816 50.3708 61.9115 50.368 63.34 50.3919C64.3445 50.4102 64.7841 50.8695 64.7897 51.8838C64.8029 54.0872 64.8029 56.2901 64.7897 58.4926C64.7897 59.5351 64.3304 59.9859 63.2795 59.9986C61.8706 60.0155 60.4647 60.0155 59.0615 59.9986C58.0359 59.9859 57.6104 59.5562 57.5949 58.5391C57.5949 57.4134 57.602 56.2878 57.5949 55.1636ZM60.0448 52.8292V57.536H62.3482V52.8292H60.0448Z" fill="#333333"/>
<path d="M26.4081 40.7592C26.4081 39.6322 26.3954 38.5051 26.4081 37.3851C26.4222 36.4483 26.8603 36.0087 27.7958 35.9988C29.2722 35.9848 30.7486 35.9848 32.2251 35.9988C33.1112 36.0087 33.5832 36.4638 33.5902 37.3485C33.6099 39.6448 33.6099 41.9412 33.5902 44.2376C33.5832 45.1237 33.1197 45.5661 32.2251 45.5773C30.7505 45.5942 29.2746 45.5942 27.7972 45.5773C26.8462 45.5675 26.4222 45.1462 26.4095 44.2023C26.3954 43.0612 26.4081 41.9074 26.4081 40.7592ZM31.1502 43.1542V38.4319H28.8552V43.1542H31.1502Z" fill="#333333"/>
<path d="M45.5834 40.8075C45.5834 41.9092 45.5919 43.0109 45.5834 44.1126C45.5722 45.1565 45.1707 45.5735 44.1465 45.582C42.6926 45.5942 41.2396 45.5942 39.7876 45.582C38.8564 45.5721 38.4042 45.1269 38.3971 44.1957C38.3811 41.9219 38.3811 39.6485 38.3971 37.3756C38.3971 36.4585 38.8775 36.0105 39.8059 36.002C41.2589 35.9889 42.7118 35.9889 44.1648 36.002C45.1368 36.0105 45.5651 36.4472 45.5736 37.4348C45.5947 38.5534 45.5834 39.6804 45.5834 40.8075ZM40.8301 38.4266V43.1236H43.1392V38.4266H40.8301Z" fill="#333333"/>
<path d="M7.18773 26.3656C7.18773 25.3118 7.18773 24.2524 7.18773 23.2028C7.18773 22.042 7.60192 21.6165 8.73742 21.6081C10.1209 21.5968 11.5034 21.5968 12.885 21.6081C13.9726 21.6179 14.3797 22.0152 14.3867 23.0915C14.398 25.293 14.398 27.4955 14.3867 29.6989C14.3867 30.7639 13.9472 31.1936 12.892 31.2021C11.4832 31.2133 10.0772 31.2133 8.67402 31.2021C7.66673 31.1936 7.20745 30.7414 7.19196 29.7411C7.17364 28.6155 7.18773 27.4898 7.18773 26.3656ZM11.9495 28.7859V24.065H9.6461V28.7859H11.9495Z" fill="#333333"/>
<path d="M26.4081 26.3495C26.4081 25.2225 26.3954 24.0954 26.4081 22.9684C26.4222 22.0569 26.8308 21.6215 27.738 21.6075C29.2408 21.584 30.7402 21.584 32.2364 21.6075C33.1605 21.623 33.5874 22.078 33.5916 23.0304C33.6048 25.2845 33.6048 27.5338 33.5916 29.7785C33.5916 30.707 33.1281 31.1775 32.211 31.1874C30.7346 31.2099 29.2581 31.2099 27.7817 31.1874C26.8561 31.1747 26.4194 30.7168 26.4067 29.7785C26.3954 28.6459 26.4081 27.4977 26.4081 26.3495ZM28.8439 28.7543H31.1488V24.0419H28.8439V28.7543Z" fill="#333333"/>
<path d="M45.5834 26.438C45.5834 27.565 45.5961 28.6921 45.5834 29.8121C45.5707 30.7363 45.127 31.1899 44.1943 31.2026C42.7189 31.2223 41.2429 31.2223 39.7665 31.2026C38.8775 31.1885 38.4098 30.725 38.4013 29.8459C38.3835 27.5496 38.3835 25.2532 38.4013 22.9568C38.4013 22.0946 38.8493 21.6382 39.6974 21.6227C41.2199 21.5945 42.7428 21.5945 44.2662 21.6227C45.1636 21.6382 45.5707 22.0792 45.5834 22.9977C45.5961 24.1388 45.5834 25.287 45.5834 26.438ZM43.1504 24.0698H40.8456V28.7682H43.1504V24.0698Z" fill="#333333"/>
<path d="M57.6019 26.364C57.6019 25.2623 57.5893 24.1607 57.6019 23.059C57.6174 22.0277 58.0246 21.6206 59.0629 21.6093C60.4928 21.5952 61.9228 21.5924 63.3513 21.6093C64.3544 21.622 64.7911 22.0686 64.7967 23.0914C64.8099 25.2929 64.8099 27.4953 64.7967 29.6987C64.7967 30.7426 64.3318 31.192 63.2837 31.2005C61.8749 31.2117 60.4689 31.2117 59.0657 31.2005C58.0514 31.1906 57.6174 30.7567 57.6019 29.7381C57.5949 28.6139 57.6019 27.4883 57.6019 26.364ZM62.3637 28.7731V24.055H60.0519V28.7731H62.3637Z" fill="#333333"/>
<path d="M57.602 40.7065C57.602 39.6049 57.5865 38.5032 57.602 37.4029C57.6203 36.4266 58.0598 36.0068 59.046 35.9941C60.4764 35.9837 61.9059 35.9837 63.3344 35.9941C64.3051 35.9941 64.7841 36.4421 64.7925 37.4029C64.8123 39.6513 64.8123 41.9007 64.7925 44.1511C64.7925 45.1288 64.3333 45.5697 63.3668 45.5796C61.9148 45.5918 60.4619 45.5918 59.008 45.5796C58.0218 45.5697 57.6147 45.157 57.5992 44.1497C57.5949 43.0029 57.602 41.8547 57.602 40.7065ZM60.0294 43.1198H62.3609V38.4369H60.0294V43.1198Z" fill="#333333"/>
<path d="M33.6001 11.9913C33.6001 13.0691 33.6001 14.1482 33.6001 15.2316C33.6001 16.3502 33.1887 16.7813 32.0941 16.7954C30.6853 16.8104 29.2793 16.8104 27.8761 16.7954C26.8082 16.7827 26.4138 16.3727 26.4109 15.2767C26.4025 13.0968 26.4025 10.9178 26.4109 8.73978C26.4109 7.63528 26.8336 7.20559 27.9367 7.19009C29.2957 7.17882 30.6547 7.17882 32.0138 7.19009C33.1577 7.19009 33.593 7.63105 33.6001 8.75951C33.6057 9.83584 33.6001 10.9136 33.6001 11.9913ZM28.8552 9.63015V14.3342H31.1516V9.63015H28.8552Z" fill="#333333"/>
<path d="M45.5834 12.0067C45.5834 13.1337 45.5947 14.2608 45.5834 15.3808C45.5707 16.3345 45.1608 16.767 44.2183 16.7896C42.7437 16.8159 41.2677 16.8159 39.7904 16.7896C38.8239 16.7741 38.4013 16.319 38.3971 15.33C38.3858 13.1041 38.3858 10.8777 38.3971 8.65087C38.3971 7.65766 38.8662 7.20543 39.8819 7.19557C41.2908 7.1796 42.6963 7.1796 44.0985 7.19557C45.1495 7.20684 45.5764 7.64639 45.5848 8.70863C45.5918 9.80327 45.5834 10.905 45.5834 12.0067ZM43.1419 14.3509V9.63986H40.8385V14.3509H43.1419Z" fill="#333333"/>
<path d="M11.9876 38.4284H9.5799C9.5799 38.8187 9.60103 39.2075 9.5799 39.5935C9.53622 40.274 9.11499 40.7206 8.50216 40.7699C8.34952 40.7884 8.19471 40.7755 8.04724 40.732C7.89978 40.6885 7.76277 40.6152 7.64467 40.5168C7.52656 40.4183 7.42984 40.2968 7.36047 40.1595C7.2911 40.0223 7.25053 39.8724 7.24128 39.7189C7.17295 38.8327 7.17295 37.9425 7.24128 37.0562C7.2934 36.3885 7.77099 36.0137 8.44158 36.0039C10.011 35.9841 11.5804 35.9771 13.1484 36.0039C13.9641 36.0194 14.3797 36.4969 14.3868 37.3915C14.4027 39.6625 14.4027 41.9345 14.3868 44.2074C14.3868 45.078 13.9261 45.564 13.2034 45.5655C12.4806 45.5669 12.0157 45.0696 12.0016 44.2088C11.9763 42.5464 11.9932 40.8826 11.9918 39.2202L11.9876 38.4284Z" fill="#333333"/>
<path d="M35.9951 59.9669C35.8378 59.967 35.6821 59.9354 35.5373 59.8739C35.3925 59.8124 35.2616 59.7224 35.1524 59.6091C35.0432 59.4959 34.958 59.3618 34.9019 59.2148C34.8458 59.0679 34.8199 58.9111 34.8258 58.7539C34.8405 58.4537 34.9701 58.1707 35.1878 57.9635C35.4055 57.7562 35.6945 57.6406 35.9951 57.6406C36.2956 57.6406 36.5847 57.7562 36.8023 57.9635C37.02 58.1707 37.1497 58.4537 37.1644 58.7539C37.1705 58.9112 37.1447 59.068 37.0886 59.215C37.0326 59.3621 36.9474 59.4963 36.8382 59.6096C36.729 59.7229 36.598 59.8129 36.4531 59.8743C36.3082 59.9357 36.1524 59.9672 35.9951 59.9669Z" fill="#333333"/>
</g>
<defs>
<clipPath id="clip0_11285_52311">
<rect width="71.9901" height="72" fill="white"/>
</clipPath>
</defs>
</svg>
