<svg width="102" height="102" viewBox="0 0 102 102" fill="none" xmlns="http://www.w3.org/2000/svg">
<rect width="102" height="102" rx="12" fill="#EEEEEE"/>
<path d="M68.9448 65.3426V63.2296C70.172 62.3454 70.9004 60.9183 70.9004 59.3829C70.9004 57.8973 70.2005 56.4823 69.0296 55.5989C68.7642 55.3975 68.4141 55.3644 68.1155 55.5126C67.8138 55.6623 67.6265 55.9652 67.6265 56.3033V58.5084C67.6265 58.5338 67.6107 58.5445 67.6045 58.5445H65.7878C65.7803 58.5445 65.7658 58.5317 65.7658 58.5084V56.3033C65.7658 55.9658 65.579 55.663 65.2782 55.5131C64.9802 55.3647 64.6301 55.3971 64.364 55.5979C63.2935 56.4064 62.6189 57.6567 62.5095 58.9983L55.2085 56.5415C54.7811 56.3978 54.4939 55.9983 54.4939 55.5474V55.5469C57.0735 54.093 58.8784 51.4198 59.1199 48.3145C60.3378 48.2928 61.3625 47.2434 61.3625 46.021C61.3625 45.3487 61.0635 44.7219 60.5747 44.2935C60.7519 43.9402 60.8523 43.542 60.8523 43.1206C60.8523 41.9004 60.0156 40.872 58.8858 40.5788V37.6784C58.8858 34.4885 56.7376 31.7244 53.7055 30.9074C53.6593 29.5722 52.5595 28.5 51.2133 28.5H48.8536C47.5073 28.5 46.4074 29.5722 46.3613 30.9074C43.3291 31.7244 41.181 34.4886 41.181 37.6784V40.5788C40.0512 40.8719 39.2145 41.9003 39.2145 43.1206C39.2145 43.542 39.3148 43.9402 39.492 44.2935C39.0033 44.7219 38.7043 45.3487 38.7043 46.021C38.7043 47.2451 39.7171 48.2939 40.9469 48.3145C41.1884 51.4198 42.9933 54.093 45.5729 55.5469V55.5474C45.5729 55.9983 45.2857 56.3978 44.8582 56.5416L37.4402 59.0377C35.0375 59.8508 33.5442 62.0142 33.5 64.5207V72.8407C33.5 73.2048 33.7951 73.4999 34.1592 73.4999H34.1594C34.5235 73.4999 34.8186 73.2048 34.8186 72.8407V64.521C34.8482 63.0072 35.5922 61.5795 36.883 60.7561L38.7792 62.872C39.4139 63.5804 39.7634 64.4942 39.7634 65.4452V72.8407C39.7634 73.2048 40.0586 73.4999 40.4226 73.4999C40.7866 73.4999 41.0818 73.2048 41.0818 72.8407V70.8205H49.3742V72.8407C49.3742 73.2048 49.6693 73.4999 50.0333 73.4999C50.3974 73.4999 50.6925 73.2048 50.6925 72.8407V70.8205H58.985V72.8407C58.985 73.2048 59.2801 73.4999 59.6442 73.4999C60.0082 73.4999 60.3033 73.2048 60.3033 72.8407V65.4456C60.3033 64.494 60.6528 63.5799 61.2873 62.8718L62.8305 61.1501C63.1585 61.9759 63.7128 62.701 64.4474 63.2297V65.1252C63.4257 65.0128 62.5089 65.7663 62.5088 66.8023V71.8229C62.5088 72.7476 63.2611 73.5 64.1859 73.5H67.812C69.5056 73.5 70.8835 72.1221 70.8835 70.4285V68.1968C70.8836 66.9031 70.0792 65.7945 68.9448 65.3426ZM60.0442 46.021C60.0442 46.5198 59.645 46.9558 59.1477 46.9936V45.5791C59.3475 45.5039 59.5359 45.4051 59.7094 45.286C59.9171 45.4682 60.0442 45.7349 60.0442 46.021ZM40.9191 46.9936C40.4204 46.9556 40.0226 46.5224 40.0226 46.021C40.0226 45.7349 40.1497 45.4682 40.3574 45.2859C40.5308 45.405 40.7191 45.5038 40.9191 45.579V46.9936ZM40.5328 43.1206C40.5328 42.4008 41.1177 41.8151 41.8371 41.8135C41.8454 41.8135 50.5848 41.8133 50.5939 41.8133C50.9579 41.8133 51.2531 41.5182 51.2531 41.1541C51.2531 40.7901 50.9579 40.4949 50.5939 40.4949H42.4994V37.6784C42.4994 35.2109 44.0816 33.0571 46.3591 32.2848V36.2381C46.3591 36.6022 46.6542 36.8973 47.0183 36.8973C47.3823 36.8973 47.6774 36.6022 47.6774 36.2381V30.9945C47.6774 30.346 48.205 29.8184 48.8536 29.8184H51.2133C51.8618 29.8184 52.3894 30.346 52.3894 30.9945V36.2382C52.3894 36.6023 52.6846 36.8974 53.0486 36.8974C53.4126 36.8974 53.7078 36.6023 53.7078 36.2382V32.2849C55.9853 33.0572 57.5675 35.211 57.5675 37.6785V40.495H53.6702C53.3062 40.495 53.0111 40.7902 53.0111 41.1542C53.0111 41.5182 53.3062 41.8134 53.6702 41.8134C53.6762 41.8134 58.2212 41.8136 58.2267 41.8136C58.9471 41.8136 59.534 42.3997 59.534 43.1206C59.534 43.8414 58.9476 44.4278 58.2268 44.4278H41.8401C41.1193 44.4278 40.5328 43.8414 40.5328 43.1206ZM42.2375 47.6012V45.7461H57.8292V47.6012C57.8292 51.8999 54.332 55.3971 50.0333 55.3971C45.7347 55.3971 42.2375 51.8999 42.2375 47.6012ZM46.818 56.1296C47.8184 56.5081 48.9021 56.7155 50.0333 56.7155C51.1646 56.7155 52.2483 56.5081 53.2486 56.1296C53.4496 56.9233 54.0507 57.5662 54.8559 57.8139C53.5069 58.9269 51.7987 59.5505 50.0333 59.5505C48.2678 59.5505 46.5596 58.9269 45.2106 57.8139C46.0109 57.5583 46.6188 56.9265 46.818 56.1296ZM50.0215 66.5897C49.1444 65.7846 48.3451 64.8932 47.6423 63.9358C47.4268 63.6423 47.0143 63.579 46.7208 63.7944C46.4274 64.0099 46.3641 64.4224 46.5795 64.7159C47.3976 65.8304 48.3379 66.8608 49.3742 67.7804V69.5021H41.0818V65.4452C41.0818 64.1691 40.6128 62.9429 39.7611 61.9922L38.1468 60.1909L43.5054 58.3878C43.8536 59.6349 44.3233 60.8473 44.9085 61.9997C45.0753 62.328 45.4758 62.4509 45.7947 62.289C46.1193 62.1242 46.2489 61.7273 46.084 61.4028C45.7642 60.7731 45.4813 60.1243 45.2363 59.4611C46.6564 60.3702 48.322 60.8688 50.0333 60.8688C51.7158 60.8688 53.3538 60.3864 54.7581 59.5062C54.3053 60.6546 53.7477 61.7593 53.0902 62.808C52.2254 64.1872 51.1941 65.4579 50.0215 66.5897ZM60.3055 61.9919C59.4541 62.9422 58.9851 64.1688 58.9851 65.4455V69.502H50.6926V67.7695C52.0434 66.506 53.226 65.073 54.2072 63.5083C55.2099 61.9091 55.9943 60.1876 56.5451 58.3822L61.9198 60.1908L60.3055 61.9919ZM63.8103 59.3829C63.8103 58.6589 64.0394 57.9585 64.4475 57.3837V58.5084C64.4475 59.2552 65.0487 59.8628 65.7878 59.8628H67.6045C68.3436 59.8628 68.9448 59.2552 68.9448 58.5084V57.3763C69.3566 57.949 69.582 58.6443 69.582 59.3829C69.582 60.5278 69.0243 61.5879 68.0881 62.22C67.799 62.4166 67.6265 62.7422 67.6265 63.091V65.1253H65.7658V63.091C65.7658 62.7422 65.5933 62.4166 65.3024 62.2187C64.368 61.5879 63.8103 60.5278 63.8103 59.3829ZM69.5652 70.4284C69.5652 71.3951 68.7788 72.1816 67.8121 72.1816H64.186C63.9882 72.1816 63.8272 72.0206 63.8272 71.8228V66.8022C63.8272 66.6045 63.9881 66.4435 64.186 66.4435H67.8121C68.7788 66.4435 69.5652 67.2299 69.5652 68.1966V70.4284ZM51.6074 53.0684C51.9042 52.8575 51.9738 52.446 51.7629 52.1492C51.5521 51.8525 51.1406 51.7827 50.8438 51.9936C50.7153 52.0849 50.4457 52.2399 50.0836 52.2529C49.6738 52.2677 49.3681 52.0965 49.2223 51.9931C48.9252 51.7827 48.5138 51.8528 48.3033 52.1499C48.0928 52.447 48.163 52.8584 48.4601 53.0689C48.7303 53.2603 49.2856 53.5722 50.034 53.5722C50.6896 53.5722 51.2991 53.2873 51.6074 53.0684ZM46.177 46.4884C45.8129 46.4884 45.5178 46.7835 45.5178 47.1475V48.5119C45.5178 48.8759 45.8129 49.171 46.177 49.171C46.541 49.171 46.8361 48.8759 46.8361 48.5119V47.1475C46.8361 46.7835 46.541 46.4884 46.177 46.4884ZM53.8899 49.1711C54.2539 49.1711 54.5491 48.876 54.5491 48.512V47.1476C54.5491 46.7836 54.2539 46.4885 53.8899 46.4885C53.5258 46.4885 53.2307 46.7836 53.2307 47.1476V48.512C53.2307 48.876 53.5258 49.1711 53.8899 49.1711Z" fill="#888888"/>
</svg>
