<svg width="72" height="72" viewBox="0 0 72 72" fill="none" xmlns="http://www.w3.org/2000/svg">
<g clip-path="url(#clip0_11285_52295)">
<circle cx="32.5" cy="30.5" r="28.5" fill="#4BD274"/>
<path d="M30.735 -0.000293427C32.2569 0.250599 33.7968 0.426367 35.2991 0.762892C46.4436 3.25829 55.2939 12.6119 57.1267 23.8825C58.5855 32.8485 56.305 40.799 50.4398 47.7278C50.3121 47.878 50.1889 48.0282 50.0312 48.2281C50.1814 48.4008 50.3211 48.5721 50.4819 48.7253C51.5921 49.8401 52.7264 50.9353 53.8111 52.0756C54.1867 52.4692 54.4721 52.4962 54.9619 52.2739C56.1264 51.7328 57.4297 51.5645 58.6935 51.792C59.9574 52.0195 61.1201 52.6316 62.0229 53.5449C64.7677 56.2791 67.5335 58.9924 70.2302 61.7702C73.4452 65.0754 72.0105 70.5094 67.6206 71.7398C65.5174 72.3317 63.5508 71.9231 61.9808 70.4117C58.9942 67.5347 56.0676 64.5931 53.1786 61.617C51.3968 59.7841 51.0873 57.0784 52.2937 54.8068C52.5416 54.3396 52.4995 54.0917 52.1284 53.7342C50.8559 52.5052 49.6225 51.2343 48.3395 49.9422C47.8993 50.3178 47.5102 50.6649 47.1061 50.9939C41.3972 55.6211 34.873 57.81 27.5335 57.5606C14.8867 57.131 3.56506 47.7458 0.791726 35.38C0.44919 33.8521 0.270414 32.2882 0.0150146 30.7422V26.8361C0.0600851 26.6198 0.108161 26.4065 0.147222 26.1901C0.462715 24.4519 0.597925 22.6581 1.12224 20.983C4.38985 10.423 11.3953 3.67595 22.0785 0.81548C23.6319 0.39933 25.259 0.259605 26.8514 -0.0078125L30.735 -0.000293427ZM28.812 55.1854C43.3367 55.1659 55.1632 43.3304 55.1707 28.8027C55.1797 14.2495 43.3021 2.38092 28.7594 2.40045C14.2332 2.41848 2.40825 14.2525 2.40074 28.7802C2.39323 43.3079 14.2693 55.2035 28.812 55.1854ZM69.5707 66.085C69.5708 65.5645 69.4653 65.0494 69.2605 64.5709C69.0557 64.0923 68.756 63.6604 68.3793 63.3011C65.6751 60.5969 62.9844 57.8927 60.2667 55.2005C58.6606 53.6065 56.4717 53.632 54.8867 55.229C53.5602 56.5661 53.6729 58.7505 55.1602 60.2649C56.2118 61.333 57.277 62.3862 58.3361 63.4453C60.0503 65.1565 61.7389 66.8932 63.4877 68.5683C64.628 69.659 66.0191 69.8408 67.4494 69.2249C68.8496 68.6224 69.4956 67.4611 69.5707 66.0895V66.085Z" fill="#333333"/>
<path d="M29.7435 63.6098C21.9883 63.5437 15.722 61.7319 9.99961 58.0722C9.05763 57.4713 8.87585 56.5849 9.58045 55.9899C10.1589 55.5017 10.7222 55.6895 11.2961 56.053C13.8972 57.7385 16.7318 59.0323 19.7093 59.893C25.4463 61.579 31.5398 61.631 37.3048 60.0433C37.5226 59.9847 37.736 59.9096 37.9553 59.8645C38.6689 59.7143 39.2593 60.0312 39.4471 60.6532C39.501 60.8076 39.5213 60.9717 39.5066 61.1346C39.4919 61.2975 39.4426 61.4553 39.3619 61.5976C39.2812 61.7398 39.1711 61.8632 39.0389 61.9594C38.9067 62.0557 38.7555 62.1225 38.5953 62.1556C37.2717 62.5101 35.9406 62.8767 34.5885 63.078C32.664 63.3695 30.726 63.5077 29.7435 63.6098Z" fill="#333333"/>
<path d="M63.5748 27.2078C63.5748 32.116 63.1136 35.3445 62.1746 38.4979C62.0263 38.9556 61.7181 39.3444 61.3063 39.5932C61.0329 39.7434 60.3959 39.6112 60.184 39.3723C60.0465 39.1941 59.9455 38.9905 59.887 38.7731C59.8285 38.5558 59.8135 38.329 59.843 38.1058C60.0834 36.7087 60.5161 35.3415 60.7444 33.9413C61.9899 26.1141 60.5296 18.8007 56.4898 11.992C56.3621 11.7772 56.2148 11.5729 56.1082 11.349C55.9648 11.0825 55.9292 10.7711 56.0086 10.479C56.0879 10.1869 56.2763 9.93643 56.5348 9.77908C56.6607 9.69591 56.8018 9.6385 56.9499 9.61017C57.0981 9.58183 57.2504 9.58314 57.398 9.61401C57.5457 9.64488 57.6858 9.70471 57.8102 9.79003C57.9346 9.87535 58.0408 9.98448 58.1228 10.1111C58.5028 10.668 58.8538 11.2442 59.1745 11.8373C62.095 17.1196 63.5583 22.7834 63.5748 27.2078Z" fill="#333333"/>
<path d="M7.19023 54.0171C7.18668 54.1737 7.15231 54.3281 7.08908 54.4715C7.02586 54.6149 6.93501 54.7444 6.82173 54.8526C6.70845 54.9609 6.57496 55.0458 6.42887 55.1025C6.28279 55.1591 6.12697 55.1865 5.97032 55.1829C5.81367 55.1794 5.65926 55.145 5.51589 55.0818C5.37253 55.0185 5.24301 54.9277 5.13476 54.8144C5.0265 54.7011 4.94162 54.5676 4.88495 54.4215C4.82828 54.2755 4.80095 54.1197 4.80451 53.963C4.81168 53.6466 4.94423 53.3461 5.173 53.1274C5.40178 52.9088 5.70804 52.79 6.02441 52.7972C6.34078 52.8044 6.64134 52.9369 6.85997 53.1657C7.07861 53.3945 7.19741 53.7007 7.19023 54.0171Z" fill="#333333"/>
<path d="M53.9779 7.19705C53.6622 7.19709 53.3592 7.07294 53.1343 6.85143C52.9094 6.62992 52.7807 6.32882 52.776 6.0132C52.7738 5.8567 52.8028 5.70134 52.8614 5.55621C52.92 5.41108 53.007 5.2791 53.1173 5.16801C53.2275 5.05692 53.3588 4.96896 53.5035 4.90925C53.6482 4.84955 53.8033 4.81932 53.9598 4.82034C54.1159 4.81935 54.2706 4.84912 54.4152 4.90793C54.5597 4.96673 54.6913 5.05344 54.8023 5.16309C54.9134 5.27274 55.0017 5.40319 55.0624 5.54699C55.123 5.69079 55.1547 5.84512 55.1557 6.00118C55.1567 6.15724 55.1269 6.31197 55.0681 6.45652C55.0093 6.60108 54.9226 6.73264 54.813 6.84368C54.7033 6.95473 54.5729 7.04308 54.4291 7.10371C54.2853 7.16435 54.1309 7.19607 53.9749 7.19705H53.9779Z" fill="#333333"/>
<path d="M30.0454 12.0938C40.5904 12.2049 49.2364 20.1584 50.27 30.6853C50.5705 33.7982 49.9275 36.8013 49.4347 39.8271C49.4114 39.9833 49.3563 40.1331 49.2727 40.2671C49.1891 40.4011 49.0789 40.5166 48.949 40.6063C48.819 40.696 48.6719 40.7581 48.517 40.7887C48.362 40.8192 48.2024 40.8177 48.0481 40.7841C47.36 40.6609 46.9814 40.0554 47.1046 39.2442C47.3525 37.5916 47.671 35.9465 47.8558 34.2864C48.8233 25.4857 42.8229 17.0425 34.1994 15.0203C23.7776 12.576 13.6909 19.4778 12.1149 30.0874C11.7709 32.404 11.2676 34.6996 10.8109 36.9982C10.6366 37.88 10.0597 38.2992 9.36412 38.1505C8.61295 38.0002 8.31248 37.3828 8.48976 36.4588C9.01558 33.69 9.47079 30.9001 10.0492 28.1478C11.8099 19.7272 19.0948 13.1814 27.6567 12.2755C28.4515 12.1929 29.2492 12.1553 30.0454 12.0938Z" fill="#333333"/>
<path d="M29.9373 19.2856C26.7825 19.3073 23.739 20.4541 21.3543 22.5196C18.9696 24.5851 17.4002 27.4338 16.9284 30.5532C16.2809 34.9025 15.3885 39.1977 14.089 43.4042C14.0379 43.571 13.9944 43.7393 13.9388 43.9045C13.6668 44.6903 13.0944 45.0328 12.3943 44.8345C11.7303 44.6452 11.4313 43.9977 11.6432 43.2059C12.0563 41.7156 12.5521 40.2433 12.8736 38.7334C13.5211 35.6837 14.0935 32.6189 14.6629 29.5526C15.9654 22.5291 22.2723 17.1026 29.3468 16.9419C36.9217 16.7691 43.4178 21.7028 45.1305 28.863C45.7735 31.5567 45.5812 34.2204 45.0734 36.8856C44.5085 39.8257 43.9001 42.7567 43.2961 45.6893C43.2399 46.0071 43.1137 46.3083 42.9265 46.5712C42.557 47.0429 42.0252 47.103 41.5068 46.8506C40.9314 46.5727 40.7737 46.0649 40.9059 45.4625C41.28 43.7303 41.7006 42.0071 42.0236 40.2673C42.4323 38.0604 42.8604 35.8489 43.1113 33.621C43.8625 26.9866 38.7095 20.4304 32.0916 19.4989C31.3795 19.4012 30.6554 19.3562 29.9373 19.2856Z" fill="#333333"/>
<path d="M29.9748 21.7344C36.7519 21.7449 41.7607 27.7167 40.5633 34.578C39.7836 39.0444 38.7125 43.4613 37.7705 47.9008C37.7389 48.051 37.6879 48.1877 37.6443 48.3305C37.3844 49.1733 36.8105 49.5428 36.0894 49.3355C35.4253 49.1432 35.1474 48.5212 35.3382 47.7055C36.0248 44.818 36.7474 41.938 37.3709 39.0369C37.763 37.2101 38.0454 35.3547 38.3008 33.5008C38.9153 29.0568 35.7003 24.9254 31.1031 24.1982C26.8469 23.5237 22.4706 26.5795 21.76 30.8657C20.8856 36.1404 19.858 41.3716 18.1453 46.448C18.0897 46.6133 18.0477 46.7845 17.9801 46.9453C17.6991 47.6108 17.1102 47.9023 16.4777 47.6964C15.8452 47.4906 15.5312 46.9032 15.7265 46.1941C16.1096 44.8525 16.6204 43.541 16.9284 42.1813C17.7682 38.4104 18.6216 34.6366 19.2976 30.8341C20.2321 25.5714 24.652 21.7254 29.9748 21.7344Z" fill="#333333"/>
<path d="M32.8969 9.91169C28.0188 9.31075 23.333 10.1265 18.9972 12.5663C12.6287 16.1494 8.78123 21.5699 7.4817 28.7782C7.44613 29.0749 7.36186 29.3637 7.2323 29.633C7.11653 29.8732 6.91543 30.0617 6.66822 30.1617C6.42102 30.2617 6.14543 30.266 5.89521 30.1738C5.20713 29.965 4.90517 29.4392 5.07644 28.7827C5.60526 26.7365 5.98685 24.6182 6.79962 22.6831C11.0963 12.4492 21.5001 6.35864 32.5499 7.47488C32.7737 7.49741 33.0006 7.50343 33.2214 7.53498C34.1589 7.66718 34.6201 8.16747 34.5194 8.93517C34.4248 9.6593 33.9005 9.98681 32.8969 9.91169Z" fill="#333333"/>
<path d="M36.0248 32.5254C35.8926 33.4449 35.8009 34.3147 35.6357 35.1711C35.6101 35.3263 35.5535 35.4749 35.4694 35.6079C35.3852 35.741 35.2752 35.8557 35.1459 35.9454C35.0166 36.0351 34.8705 36.0979 34.7164 36.13C34.5624 36.1622 34.4034 36.163 34.249 36.1325C33.6405 36.0259 33.2379 35.5091 33.289 34.8195C33.3265 34.2982 33.4242 33.7799 33.5083 33.2631C33.8494 31.1598 32.5664 29.357 30.4781 29.0084C28.5446 28.6809 26.7643 30.0601 26.3947 32.0957C25.8674 35.0163 25.4002 37.9549 24.7151 40.8394C24.0586 43.6022 23.1707 46.3095 22.3579 49.0332C22.1025 49.888 21.467 50.2441 20.7925 50.0097C20.0939 49.7648 19.8099 49.1249 20.0954 48.2956C21.9418 42.9217 23.1842 37.408 24.0315 31.7938C24.4822 28.8011 26.8319 26.7158 29.7404 26.5731C31.0876 26.5194 32.4133 26.9228 33.5021 27.7179C34.5909 28.513 35.3789 29.6529 35.7378 30.9525C35.8805 31.4753 35.9346 32.0266 36.0248 32.5254Z" fill="#333333"/>
<path d="M31.1767 32.7931C30.8988 34.3961 30.6163 36.1959 30.2753 37.9822C29.4623 42.1946 28.358 46.3456 26.9701 50.4051C26.9296 50.5223 26.8905 50.641 26.8409 50.7551C26.56 51.4207 25.9545 51.7377 25.3461 51.5409C24.7376 51.3441 24.3846 50.7371 24.5814 50.0385C24.8458 49.1041 25.1823 48.1906 25.4723 47.2622C26.9746 42.4442 28.0143 37.521 28.7775 32.5392C28.8961 31.7579 29.4265 31.3057 30.0755 31.3764C30.6944 31.441 31.1587 31.9593 31.1767 32.7931Z" fill="#333333"/>
<path d="M34.7824 39.9385C34.4503 41.3613 34.0958 43.0153 33.6736 44.6529C33.262 46.2424 32.7918 47.8168 32.3215 49.3913C32.0601 50.2792 31.4306 50.6983 30.7486 50.4865C30.0289 50.2627 29.775 49.6196 30.0124 48.7107C30.8137 45.655 31.6059 42.5972 32.3891 39.5374C32.5859 38.7727 33.1163 38.3355 33.7563 38.4362C34.3963 38.5368 34.8079 39.0386 34.7824 39.9385Z" fill="#333333"/>
<path d="M48.2373 15.6505C47.9369 15.9961 47.7025 16.4964 47.363 16.585C46.8954 16.6802 46.4092 16.5862 46.0109 16.3236C45.0283 15.607 44.208 14.6605 43.1834 14.0085C41.6811 13.0455 40.0751 12.2432 38.4961 11.4019C37.6909 10.9737 37.3889 10.2271 37.8531 9.57806C38.2137 9.07628 38.7095 8.90651 39.2984 9.14087C42.4363 10.3817 45.2841 12.2573 47.6634 14.65C47.8993 14.8813 48.003 15.2329 48.2373 15.6505Z" fill="#333333"/>
</g>
<defs>
<clipPath id="clip0_11285_52295">
<rect width="71.9594" height="72" fill="white"/>
</clipPath>
</defs>
</svg>
