<svg width="72" height="72" viewBox="0 0 72 72" fill="none" xmlns="http://www.w3.org/2000/svg">
<g clip-path="url(#clip0_11285_52333)">
<path fill-rule="evenodd" clip-rule="evenodd" d="M12 11H56V18.5C54 18.6667 50 20.1 50 24.5H54V50H49C47.6667 50.3333 45 51.7 45 54.5H56V63L46 73H12V11ZM43.5 25.5L49 39.5C49 41.3333 47.9 45 43.5 45C39.1 45 38 41.3333 38 39.5L43.5 25.5Z" fill="#4BD274"/>
<path d="M43.7274 71.9991H9.84258C8.04085 71.3694 7.79293 69.8945 7.96197 68.2337C6.72231 68.1802 5.56717 68.421 4.65715 67.4786C3.77108 66.5573 4.0331 65.3909 3.93449 64.2597C3.47384 64.2597 3.07942 64.2597 2.68498 64.2597C1.01567 64.2471 0.00845337 63.2553 0.00845337 61.5987C0.00845337 41.9614 0.00845337 22.3247 0.00845337 2.68833C0.00845337 1.00635 0.994544 0.00195312 2.65963 0.00195312C16.2958 0.00195312 29.9316 0.00195312 43.5668 0.00195312C45.1615 0.00195312 46.1419 0.973948 46.1898 2.57423C46.2039 3.01234 46.1898 3.45045 46.1898 3.93645C47.3435 4.01815 48.486 3.7829 49.3932 4.6408C50.3004 5.49869 50.1567 6.62988 50.1877 7.73993C50.7188 7.73993 51.1611 7.73289 51.5964 7.73993C53.084 7.76811 54.1095 8.78378 54.1236 10.2756C54.1377 12.0027 54.1236 13.7283 54.1236 15.4511C57.6566 16.1809 59.7471 18.2854 60.5064 21.7156C60.5503 21.7405 60.5978 21.7581 60.6473 21.7677C62.1236 21.7743 63.5995 21.7795 65.0748 21.7833C66.1581 21.7833 66.4047 21.9579 66.778 22.982C67.6739 25.443 68.56 27.9125 69.4643 30.3665C70.2941 32.6204 71.1421 34.8743 71.9817 37.1282V38.396C71.931 38.5454 71.8718 38.6933 71.8324 38.8468C71.19 41.2867 69.701 42.9489 67.2442 43.5941C64.7875 44.2393 62.6138 43.5941 60.9361 41.7065C59.4724 40.0583 58.8695 38.1847 59.7415 35.9463C61.1953 32.1978 62.5124 28.3957 63.8873 24.6147C63.9648 24.4006 64.0282 24.1823 64.1141 23.9343H56.2592V47.1046C57.52 47.1046 58.7343 47.0778 59.9472 47.1046C62.9153 47.1821 65.4186 49.7501 65.4411 52.7042C65.4411 53.4536 65.0974 53.8635 64.3606 53.8875C63.4957 53.9157 62.6279 53.9128 61.7616 53.8875C61.0572 53.8678 60.7008 53.4916 60.7008 52.8507C60.7008 52.2097 61.0643 51.8392 61.7616 51.797C62.1997 51.7716 62.642 51.797 63.097 51.797C62.804 50.3996 61.4573 49.236 59.9894 49.2247C55.4224 49.19 50.855 49.19 46.287 49.2247C44.8163 49.236 43.4231 50.4432 43.1992 51.7913H44.0444C47.9324 51.7913 51.8204 51.7913 55.7084 51.7913C56.6945 51.7913 57.1326 52.1153 57.1439 52.8338C57.1551 53.5522 56.7283 53.8931 55.7478 53.8988C55.221 53.8988 54.6956 53.8988 54.1363 53.8988C54.1363 56.3147 54.1546 58.6094 54.1194 60.9028C54.1194 61.2902 53.9884 61.7818 53.732 62.0396C50.4131 65.3839 47.066 68.6873 43.7274 71.9991ZM42.1483 23.9217C42.2539 24.2259 42.3328 24.4654 42.4187 24.7021C43.8641 28.6821 45.307 32.6626 46.7477 36.6436C46.8854 37.0136 46.9556 37.4053 46.9547 37.8001C46.8913 40.6556 44.6022 43.2546 41.7721 43.7167C38.7491 44.2154 35.8274 42.5897 34.7413 39.8047C34.2708 38.5918 34.1947 37.4099 34.6836 36.1294C36.3191 31.8216 37.8531 27.4744 39.4267 23.1441C39.8803 21.8959 40.0535 21.7748 41.3622 21.7748H45.7475C46.4969 18.4799 48.3606 16.3668 51.6175 15.5582C51.7894 15.5145 51.9993 15.1849 52.0049 14.9835C52.0387 13.6015 52.0233 12.2182 52.0218 10.8363C52.0218 9.85016 52.0218 9.85016 51.0047 9.85016H11.078C10.0567 9.85016 10.0553 9.85016 10.0553 10.8447C10.0553 30.2021 10.0553 49.5595 10.0553 68.9169C10.0553 69.8903 10.0553 69.8903 11.0259 69.8917H42.2905V69.062C42.2905 66.9959 42.2905 64.9336 42.2905 62.875C42.2905 61.0437 43.2372 60.1013 45.0586 60.0956C47.121 60.0956 49.1819 60.0956 51.2442 60.0956C51.4908 60.0956 51.7359 60.0745 51.9768 60.0632V53.9058H51.102C48.1028 53.9058 45.1037 53.9058 42.1046 53.9058C41.1932 53.9058 40.7649 53.4832 40.8368 52.6253C41.0255 50.184 42.2257 48.4246 44.5121 47.523C45.2305 47.2412 46.0616 47.168 46.8392 47.1187C47.9028 47.0525 48.972 47.1018 50.0243 47.1018V23.9217H42.1483ZM48.0648 7.73993C48.0648 7.39058 48.0437 7.15532 48.0648 6.9257C48.1366 6.2932 47.8957 6.06076 47.2351 6.06076C33.7858 6.07579 20.3374 6.07579 6.88995 6.06076C6.22082 6.06076 6.02219 6.30587 6.06023 6.93274C6.10108 7.58638 6.07008 8.24424 6.07008 8.90492C6.07008 11.6702 6.07008 14.4341 6.07008 17.1993C6.07008 18.0446 5.5235 18.5418 4.80225 18.37C4.081 18.1981 3.95703 17.6656 3.95703 17.0204C3.96548 13.6931 3.95703 10.3657 3.95703 7.0384C3.95703 4.85773 4.84592 3.96743 7.02377 3.96743H44.0317C44.05 3.70823 44.0669 3.56877 44.0697 3.42931C44.0979 2.11359 44.0965 2.11359 42.8019 2.11359H3.16816C2.106 2.11359 2.10601 2.11359 2.10601 3.19688C2.10601 22.3186 2.10601 41.4407 2.10601 60.5633C2.10601 62.2833 1.71579 62.1847 3.78235 62.1354C3.8218 62.1354 3.85983 62.0903 3.95421 62.0312V61.1634C3.95421 48.533 3.95421 35.9017 3.95421 23.2694C3.93832 22.9869 3.95345 22.7035 3.9993 22.4242C4.12467 21.8607 4.51628 21.6072 5.08258 21.6396C5.64888 21.672 5.99823 21.965 6.04754 22.5496C6.06867 22.806 6.06023 23.0652 6.06023 23.323C6.06023 37.055 6.06256 50.7874 6.06726 64.5204C6.06726 66.2502 5.69678 66.1389 7.74643 66.0854C7.78729 66.0854 7.82672 66.0432 7.93378 65.9798V10.8489C7.93378 8.58375 8.77197 7.73993 11.0118 7.73993H48.0634H48.0648ZM54.056 47.0525V23.9569H52.2134V47.0525H54.056ZM36.86 36.3943H44.4205C43.1738 32.9641 41.944 29.586 40.7142 26.208L40.5578 26.2221C39.3309 29.5917 38.1039 32.9613 36.8586 36.3943H36.86ZM69.4179 36.3858L65.6369 25.9995C64.3339 29.5832 63.1013 32.9613 61.8616 36.3858H69.4179ZM47.9831 21.7508H58.2666C58.0116 19.511 55.7887 17.6248 53.3362 17.5431C50.7301 17.4557 48.4578 19.218 47.9831 21.7508ZM36.6121 38.5552C36.9164 40.3133 38.7167 41.7177 40.6395 41.7177C42.5624 41.7177 44.3797 40.3006 44.66 38.5552H36.6121ZM61.6137 38.5679C61.9433 40.3668 63.8112 41.7811 65.7327 41.7163C67.6542 41.6515 69.4263 40.2302 69.6475 38.5679H61.6137ZM44.405 67.9435L50.3215 62.2059C48.5142 62.2059 46.7139 62.1932 44.9164 62.2242C44.7445 62.2242 44.4318 62.4932 44.429 62.6468C44.3937 64.4865 44.405 66.3305 44.405 67.9435Z" fill="#333333"/>
<path d="M26.0046 18.9438H34.4413C34.6763 18.9373 34.9116 18.9457 35.1456 18.9691C35.6978 19.0438 35.9612 19.4157 35.9908 19.9327C36.0204 20.4497 35.7964 20.854 35.2569 20.9836C35.005 21.036 34.7477 21.0582 34.4906 21.0498C28.8492 21.0498 23.2064 21.0498 17.5622 21.0498C17.2805 21.0498 16.91 21.0963 16.7494 20.9441C16.4578 20.6694 16.1634 20.2778 16.1127 19.9017C16.0507 19.4467 16.3677 19.0565 16.8889 18.9776C17.1225 18.9494 17.358 18.9391 17.5932 18.9466C20.3918 18.9381 23.1956 18.9372 26.0046 18.9438Z" fill="#333333"/>
<path d="M25.8764 53.7634C23.0195 53.7634 20.1627 53.7634 17.3058 53.7634C16.4846 53.7634 16.0718 53.3591 16.1197 52.6435C16.1549 52.1096 16.424 51.7673 16.9649 51.6884C17.1739 51.6644 17.3843 51.6545 17.5946 51.6588L34.1722 51.6475C34.3602 51.6406 34.5484 51.6457 34.7357 51.663C35.3513 51.7433 35.7218 52.1673 35.6992 52.752C35.6767 53.3366 35.2949 53.738 34.654 53.738C33.4608 53.7606 32.2592 53.7479 31.0716 53.7493H25.8764V53.7634Z" fill="#333333"/>
<path d="M25.7313 61.9683C22.9435 61.9683 20.1557 61.9683 17.3679 61.9683C16.5226 61.9683 16.1 61.595 16.1183 60.892C16.1352 60.2976 16.4156 59.9172 17.0481 59.875C17.1889 59.8651 17.3298 59.8623 17.4707 59.8623C22.9984 59.8567 28.5266 59.8524 34.0553 59.8496C35.0062 59.8496 35.3851 60.1088 35.4471 60.7723C35.5147 61.495 35.1146 61.9345 34.306 61.9486C33.065 61.9711 31.8225 61.957 30.5814 61.957H25.7327L25.7313 61.9683Z" fill="#333333"/>
<path d="M24.4156 27.1156C26.7587 27.1156 29.1014 27.1156 31.4436 27.1156C32.2888 27.1156 32.7213 27.4804 32.7213 28.1622C32.7213 28.844 32.2874 29.2188 31.4365 29.2202C26.7277 29.2267 22.0189 29.2267 17.3101 29.2202C16.3409 29.2202 15.8183 28.5158 16.162 27.7129C16.3846 27.1973 16.8142 27.1099 17.3171 27.1113C19.6837 27.1198 22.0489 27.1113 24.4156 27.1113V27.1156Z" fill="#333333"/>
<path d="M23.2647 45.5797C21.2925 45.5797 19.333 45.5797 17.3679 45.5797C16.5226 45.5797 16.0747 45.2247 16.062 44.557C16.0493 43.8892 16.5029 43.4765 17.3298 43.4751C21.3324 43.4666 25.334 43.4666 29.3348 43.4751C30.1363 43.4751 30.5336 43.8329 30.5462 44.5161C30.5589 45.2331 30.1659 45.5783 29.3066 45.5797C27.2936 45.5797 25.2819 45.5797 23.2689 45.5797H23.2647Z" fill="#333333"/>
<path d="M23.1294 37.4052C21.2079 37.4052 19.2865 37.4052 17.365 37.4052C16.5198 37.4052 16.0718 37.0403 16.0606 36.3684C16.0493 35.6964 16.5043 35.3006 17.3284 35.2991C21.2399 35.2935 25.1523 35.2935 29.0657 35.2991C29.8954 35.2991 30.3335 35.6823 30.3335 36.3684C30.3335 37.0544 29.8884 37.4037 29.0347 37.4052C27.0625 37.4052 25.0988 37.4052 23.1308 37.4052H23.1294Z" fill="#333333"/>
</g>
<defs>
<clipPath id="clip0_11285_52333">
<rect width="71.9873" height="72" fill="white"/>
</clipPath>
</defs>
</svg>
