<svg width="50" height="42" viewBox="0 0 50 42" fill="none" xmlns="http://www.w3.org/2000/svg">
<path d="M33.9972 22.8328C35.2287 23.1873 36.4601 23.3672 37.6581 23.3672C39.5079 23.3672 41.0515 22.9445 42.2483 22.4268C41.0945 26.651 38.3226 33.9397 32.8008 34.7605C32.2895 34.8366 31.8704 35.2063 31.7309 35.7041L30.5241 40.0205C30.4223 40.3856 30.4826 40.7763 30.6909 41.0931C30.8991 41.4099 31.2337 41.6213 31.6087 41.6727C32.0162 41.7282 32.4316 41.7566 32.8433 41.7566C39.4712 41.7566 46.0351 34.8387 48.8049 24.9333C50.4308 19.1221 50.9075 10.3853 46.9026 4.88607C44.6615 1.80894 41.3918 0.165738 37.1845 0.00157547C37.1672 0.00104904 37.1504 0.00052643 37.1331 0.000526428C31.9417 0.000525974 27.3384 3.49671 25.938 8.50184C25.1015 11.494 25.4796 14.632 27.0038 17.3399C28.5116 20.0173 30.9951 21.9689 33.9972 22.8328Z" fill="#4BD274"/>
<path d="M1.50085 17.3393C3.00873 20.0173 5.49215 21.9689 8.49428 22.8328C9.72576 23.1873 10.9572 23.3672 12.1546 23.3672C14.0045 23.3672 15.5486 22.9445 16.7454 22.4268C15.5916 26.651 12.8197 33.9397 7.29741 34.7605C6.78604 34.8366 6.36751 35.2063 6.22747 35.7041L5.02064 40.0205C4.91889 40.3856 4.9792 40.7763 5.18742 41.0931C5.39512 41.4099 5.72974 41.6213 6.10527 41.6727C6.51226 41.7282 6.92765 41.7566 7.3399 41.7566C13.9678 41.7566 20.5316 34.8387 23.302 24.9333C24.9273 19.1221 25.4041 10.3853 21.3986 4.88502C19.158 1.80842 15.8879 0.164688 11.681 0.00104905C11.6637 0.000526431 11.6469 1.55891e-09 11.6291 0C6.43831 -4.53793e-07 1.83442 3.49619 0.434056 8.50132C-0.401443 11.4935 -0.0227697 14.632 1.50085 17.3393Z" fill="#4BD274"/>
</svg>
