<svg width="100" height="99" viewBox="0 0 100 99" fill="none" xmlns="http://www.w3.org/2000/svg">
<g clip-path="url(#clip0)">
<path d="M50 98.3409C66.4318 98.3409 82.8409 94.0227 97.4773 85.8409C99.5227 84.7045 100.318 81.9545 99.2954 79.7273C98.25 77.5 95.75 76.5909 93.7273 77.75C80.25 85.2727 65.1364 89.25 50 89.25C34.8864 89.25 19.75 85.2727 6.27271 77.75C4.22726 76.6136 1.72726 77.5 0.704529 79.7273C-0.340919 81.9545 0.477257 84.7045 2.52271 85.8409C17.1591 94.0227 33.5682 98.3409 50 98.3409Z" fill="#4BE279"/>
<path d="M0 31.9773C0 25.8409 3.59091 20.2045 9.13636 17.5909L43.2273 1.54546C47.5455 -0.47727 52.4773 -0.47727 56.7955 1.54546L90.8864 17.5909C96.4091 20.1818 100 25.8409 100 31.9773V58.8636C100 67.6364 92.8636 74.7727 84.0909 74.7727H38.6364H15.9091C11.6136 74.7727 7.70454 73.0455 4.81818 70.2727C4.77273 70.2273 4.70454 70.1818 4.65909 70.1136C4.61363 70.0455 4.56818 70 4.49999 69.9545C1.70454 67.0909 0 63.1818 0 58.8636V31.9773ZM90.9091 58.8409V31.9773C90.9091 29.3409 89.3636 26.9318 87 25.8182L52.9091 9.77273C51.0682 8.90909 48.9545 8.90909 47.0909 9.77273L37.9318 14.0909L45.4091 17.6136C50.9545 20.2273 54.5455 25.8864 54.5455 32V58.8864C54.5455 58.9091 54.5455 58.9318 54.5455 58.9545C54.5227 62.6591 57.4773 65.7045 61.1818 65.7045H84.0909C87.8636 65.6591 90.9091 62.6136 90.9091 58.8409ZM38.6364 65.6591C42.3864 65.6591 45.4545 62.5909 45.4545 58.8409V31.9773C45.4545 29.3409 43.9091 26.9318 41.5454 25.8182L30.1818 20.4773C29.25 20.0455 28.2727 19.8182 27.2727 19.8182C26.2727 19.8182 25.2955 20.0455 24.3636 20.4773L13 25.8182C10.7727 26.8636 9.27273 29.0682 9.11363 31.5C9.0909 31.6591 9.0909 31.8182 9.0909 32V58.8864C9.0909 62.6364 12.1591 65.7045 15.9091 65.7045H38.6364V65.6591Z" fill="#00E676"/>
<g opacity="0.5">
<path opacity="0.5" d="M47.0909 9.74998L37.9318 14.0682L34.0455 12.2273C29.7273 10.2045 24.7955 10.2045 20.4773 12.2273L43.2045 1.52271" fill="url(#paint0_linear)"/>
</g>
</g>
<defs>
<linearGradient id="paint0_linear" x1="45.1822" y1="5.644" x2="22.3826" y2="16.2756" gradientUnits="userSpaceOnUse">
<stop stop-color="#231F20" stop-opacity="0"/>
<stop offset="1" stop-color="#231F20"/>
</linearGradient>
<clipPath id="clip0">
<rect width="100" height="98.3409" fill="white" transform="matrix(-1 0 0 1 100 0)"/>
</clipPath>
</defs>
</svg>
