<svg width="32" height="32" viewBox="0 0 32 32" fill="none" xmlns="http://www.w3.org/2000/svg">
<circle cx="15.5" cy="21.5" r="5.5" fill="#4BD274"/>
<path d="M31 15.5001H26.707L31.3535 10.8536C31.549 10.6581 31.549 10.3421 31.3535 10.1466L21.8535 0.646625C21.658 0.451125 21.342 0.451125 21.1465 0.646625L6.293 15.5001H1C0.7235 15.5001 0.5 15.7241 0.5 16.0001V29.0001C0.5 29.2761 0.7235 29.5001 1 29.5001H8.293L10.1465 31.3536C10.244 31.4511 10.372 31.5001 10.5 31.5001C10.628 31.5001 10.756 31.4511 10.8535 31.3536L12.7075 29.5001H31C31.2765 29.5001 31.5 29.2761 31.5 29.0001V16.0001C31.5 15.7241 31.2765 15.5001 31 15.5001ZM21.5 1.70712L30.293 10.5001L25.293 15.5001H21.4755C21.361 14.2201 20.809 13.0311 19.889 12.1111C17.745 9.96712 14.2555 9.96662 12.1105 12.1111C11.191 13.0311 10.639 14.2201 10.524 15.5001H7.7065L21.5 1.70712ZM13.6135 15.5001C13.5455 15.1751 13.6365 14.8276 13.8785 14.5861L14.793 15.5001H13.6135ZM19.0075 15.5001C18.9525 15.4276 18.8935 15.3576 18.8285 15.2931C18.048 14.5136 16.78 14.5131 16 15.2931L14.5855 13.8791C14.9635 13.5016 15.6215 13.5016 15.9995 13.8791L16.7065 13.1721C16.3285 12.7946 15.8265 12.5866 15.2925 12.5866C14.7585 12.5866 14.256 12.7946 13.8785 13.1721L13.878 13.1726L13.5245 12.8191L12.8175 13.5261L13.171 13.8796C12.7315 14.3191 12.537 14.9146 12.5995 15.5011H11.529C11.6405 14.4886 12.0865 13.5501 12.817 12.8191C14.572 11.0646 17.4265 11.0651 19.1815 12.8191C19.912 13.5501 20.3585 14.4886 20.4695 15.5011H19.0075V15.5001ZM10.5 30.2931L9.707 29.5001H11.293L10.5 30.2931ZM30.5 28.5001H1.5V16.5001H30.5V28.5001Z" fill="#333333"/>
<path d="M14.5 24H13.5C13.5 25.103 14.397 26 15.5 26V26.5H16.5V26C17.603 26 18.5 25.103 18.5 24C18.5 22.897 17.603 22 16.5 22V20C17.0515 20 17.5 20.4485 17.5 21H18.5C18.5 19.897 17.603 19 16.5 19V18.5H15.5V19C14.397 19 13.5 19.897 13.5 21C13.5 22.103 14.397 23 15.5 23V25C14.9485 25 14.5 24.5515 14.5 24ZM14.5 21C14.5 20.4485 14.9485 20 15.5 20V22C14.9485 22 14.5 21.5515 14.5 21ZM16.5 23C17.0515 23 17.5 23.4485 17.5 24C17.5 24.5515 17.0515 25 16.5 25V23Z" fill="#333333"/>
<path d="M16 28C19.0325 28 21.5 25.5325 21.5 22.5C21.5 19.4675 19.0325 17 16 17C12.9675 17 10.5 19.4675 10.5 22.5C10.5 25.5325 12.9675 28 16 28ZM16 18C18.4815 18 20.5 20.019 20.5 22.5C20.5 24.981 18.4815 27 16 27C13.5185 27 11.5 24.981 11.5 22.5C11.5 20.019 13.5185 18 16 18Z" fill="#333333"/>
<path d="M29.5 27V18C29.5 17.724 29.2765 17.5 29 17.5H23V18.5H28.5V26.5H23V27.5H29C29.2765 27.5 29.5 27.276 29.5 27Z" fill="#333333"/>
<path d="M3 27.5H9V26.5H3.5V18.5H9V17.5H3C2.7235 17.5 2.5 17.724 2.5 18V27C2.5 27.276 2.7235 27.5 3 27.5Z" fill="#333333"/>
<path d="M23 24.5H24V25.5H23V24.5Z" fill="#333333"/>
<path d="M25 24.5H26V25.5H25V24.5Z" fill="#333333"/>
<path d="M23 19.5H24V20.5H23V19.5Z" fill="#333333"/>
<path d="M25 19.5H26V20.5H25V19.5Z" fill="#333333"/>
<path d="M21.636 4.70698L27.2925 10.364L23.4035 14.253L24.1105 14.96L28.353 10.7175C28.5485 10.522 28.5485 10.206 28.353 10.0105L21.9895 3.64648C21.802 3.45898 21.47 3.45898 21.2825 3.64648L17.04 7.88898L17.747 8.59598L21.636 4.70698Z" fill="#333333"/>
<path d="M21.9865 12.8418L22.6936 12.1347L23.4007 12.8418L22.6936 13.5489L21.9865 12.8418Z" fill="#333333"/>
<path d="M23.4 11.4238L24.1071 10.7167L24.8143 11.4238L24.1071 12.1309L23.4 11.4238Z" fill="#333333"/>
<path d="M18.4513 9.30469L19.1584 8.59758L19.8655 9.30469L19.1584 10.0118L18.4513 9.30469Z" fill="#333333"/>
<path d="M19.865 7.89062L20.5721 7.18351L21.2792 7.89062L20.5721 8.59774L19.865 7.89062Z" fill="#333333"/>
<path d="M6 19.5H7V20.5H6V19.5Z" fill="#333333"/>
<path d="M8 19.5H9V20.5H8V19.5Z" fill="#333333"/>
<path d="M6 24.5H7V25.5H6V24.5Z" fill="#333333"/>
<path d="M8 24.5H9V25.5H8V24.5Z" fill="#333333"/>
</svg>
