<svg width="32" height="32" viewBox="0 0 32 32" fill="none" xmlns="http://www.w3.org/2000/svg">
<path d="M8.5 23V29.5H21.5V23.5L20.5 22.5V18.5L18.5 18V22.5H11.5V18L9.5 18.5V22.5L8.5 23Z" fill="#4BD274"/>
<path d="M14 10H13V11H14V10Z" fill="#333333"/>
<path d="M19 10H18V11H19V10Z" fill="#333333"/>
<path d="M18 12.5H17C17 12.7652 16.8946 13.0196 16.7071 13.2071C16.5196 13.3946 16.2652 13.5 16 13.5C15.7348 13.5 15.4804 13.3946 15.2929 13.2071C15.1054 13.0196 15 12.7652 15 12.5H14C14 13.0304 14.2107 13.5391 14.5858 13.9142C14.9609 14.2893 15.4696 14.5 16 14.5C16.5304 14.5 17.0391 14.2893 17.4142 13.9142C17.7893 13.5391 18 13.0304 18 12.5Z" fill="#333333"/>
<path d="M26.5 25.0909V24.6759C26.505 23.5031 26.1323 22.3598 25.4371 21.4152C24.742 20.4706 23.7612 19.7749 22.64 19.4309L18.5 18.1359V16.3959C19.0127 16.1352 19.4817 15.7961 19.89 15.3909C20.6772 14.6041 21.2057 13.5959 21.405 12.5009H21.5C21.9651 12.4997 22.4152 12.3365 22.7729 12.0393C23.1306 11.7421 23.3736 11.3295 23.46 10.8726C23.5465 10.4156 23.4709 9.94278 23.2464 9.53548C23.0219 9.12818 22.6625 8.81185 22.23 8.64091C22.245 8.61591 22.265 8.58591 22.28 8.55591L22.335 8.45091C22.4406 8.23946 22.4947 8.00605 22.493 7.76971C22.4912 7.53337 22.4337 7.30078 22.325 7.09091C22.1502 6.75496 21.8531 6.49899 21.495 6.37591C21.4614 4.94078 20.8678 3.57571 19.8409 2.57256C18.8141 1.56942 17.4355 1.00781 16 1.00781C14.5645 1.00781 13.1859 1.56942 12.159 2.57256C11.1322 3.57571 10.5385 4.94078 10.505 6.37591C10.1469 6.49899 9.84972 6.75496 9.67498 7.09091C9.56629 7.30078 9.50872 7.53337 9.50699 7.76971C9.50525 8.00605 9.55938 8.23946 9.66498 8.45091L9.71498 8.55091C9.73498 8.58591 9.75498 8.61091 9.76998 8.64091C9.33746 8.81185 8.97803 9.12818 8.75353 9.53548C8.52903 9.94278 8.45349 10.4156 8.53992 10.8726C8.62634 11.3295 8.86932 11.7421 9.22705 12.0393C9.58478 12.3365 10.0349 12.4997 10.5 12.5009H10.595C10.7501 13.3287 11.0925 14.11 11.596 14.7851C12.0995 15.4602 12.7508 16.0112 13.5 16.3959V18.1359L9.35998 19.4259C8.23879 19.7716 7.2584 20.4685 6.5634 21.4138C5.8684 22.359 5.4956 23.5026 5.49998 24.6759V25.0909C5.2077 25.1933 4.95446 25.384 4.77529 25.6366C4.59612 25.8892 4.49988 26.1912 4.49988 26.5009C4.49988 26.8106 4.59612 27.1126 4.77529 27.3652C4.95446 27.6178 5.2077 27.8085 5.49998 27.9109V30.5009C5.49998 30.6335 5.55266 30.7607 5.64643 30.8545C5.74019 30.9482 5.86737 31.0009 5.99998 31.0009H26C26.1326 31.0009 26.2598 30.9482 26.3535 30.8545C26.4473 30.7607 26.5 30.6335 26.5 30.5009V27.9109C26.7923 27.8085 27.0455 27.6178 27.2247 27.3652C27.4038 27.1126 27.5001 26.8106 27.5001 26.5009C27.5001 26.1912 27.4038 25.8892 27.2247 25.6366C27.0455 25.384 26.7923 25.1933 26.5 25.0909ZM21.5 9.50091C21.765 9.5017 22.0188 9.60731 22.2062 9.79468C22.3936 9.98204 22.4992 10.2359 22.5 10.5009C22.498 10.7655 22.392 11.0187 22.2049 11.2058C22.0178 11.393 21.7646 11.4989 21.5 11.5009V9.50091ZM10.5 11.5009C10.2354 11.4989 9.98215 11.393 9.79504 11.2058C9.60793 11.0187 9.50194 10.7655 9.49998 10.5009C9.50077 10.2359 9.60638 9.98204 9.79375 9.79468C9.98111 9.60731 10.235 9.5017 10.5 9.50091V11.5009ZM20 19.6509L21 19.9659V24.5009C21 24.6335 20.9473 24.7607 20.8535 24.8545C20.7598 24.9482 20.6326 25.0009 20.5 25.0009C20.3674 25.0009 20.2402 24.9482 20.1464 24.8545C20.0527 24.7607 20 24.6335 20 24.5009V19.6509ZM19.46 3.62591C20.061 4.35106 20.4194 5.24638 20.485 6.18591L18.78 5.92091L19.46 3.62591ZM16 2.00091C16.951 2.00178 17.8772 2.30467 18.645 2.86591L17.785 5.77091L17.29 5.69591C16.4353 5.56091 15.5647 5.56091 14.71 5.69591L14.215 5.77091L13.355 2.86591C14.1216 2.30248 15.0486 1.99934 16 2.00091ZM12.54 3.62591L13.22 5.92091L11.515 6.18591C11.5774 5.24567 11.9363 4.34942 12.54 3.62591ZM10.61 8.10591L10.56 8.00591C10.525 7.93501 10.5072 7.85687 10.5081 7.77781C10.509 7.69876 10.5284 7.62102 10.565 7.55091C10.6001 7.48068 10.6516 7.41994 10.7151 7.37381C10.7786 7.32769 10.8523 7.29754 10.93 7.28591L14.86 6.68091C15.6158 6.56757 16.3842 6.56757 17.14 6.68091L21.07 7.28591C21.1476 7.29754 21.2213 7.32769 21.2849 7.37381C21.3484 7.41994 21.3999 7.48068 21.435 7.55091C21.4715 7.62102 21.491 7.69876 21.4919 7.77781C21.4927 7.85687 21.475 7.93501 21.44 8.00591L21.39 8.10591C21.3404 8.20254 21.2613 8.28084 21.1642 8.3294C21.0671 8.37796 20.957 8.39426 20.85 8.37591L17.165 7.70591C16.3946 7.56591 15.6053 7.56591 14.835 7.70591L11.15 8.37591C11.0429 8.39426 10.9329 8.37796 10.8357 8.3294C10.7386 8.28084 10.6595 8.20254 10.61 8.10591ZM11.5 11.5009V9.32591L15.015 8.68591C15.6666 8.57091 16.3333 8.57091 16.985 8.68591L20.5 9.32591V11.5009C20.5 12.6944 20.0259 13.839 19.182 14.6829C18.338 15.5268 17.1935 16.0009 16 16.0009C14.8065 16.0009 13.6619 15.5268 12.818 14.6829C11.9741 13.839 11.5 12.6944 11.5 11.5009ZM17.5 16.7909V18.5009C17.5 18.8987 17.3419 19.2803 17.0606 19.5616C16.7793 19.8429 16.3978 20.0009 16 20.0009C15.6022 20.0009 15.2206 19.8429 14.9393 19.5616C14.658 19.2803 14.5 18.8987 14.5 18.5009V16.7859C14.9872 16.9286 15.4923 17.001 16 17.0009C16.5072 16.9998 17.0119 16.9292 17.5 16.7909ZM13 19.3359L13.595 19.1509C13.7359 19.6812 14.0481 20.15 14.4831 20.4844C14.918 20.8189 15.4513 21.0002 16 21.0002C16.5486 21.0002 17.0819 20.8189 17.5169 20.4844C17.9518 20.15 18.264 19.6812 18.405 19.1509L19 19.3359V23.0009H13V19.3359ZM11 19.9659L12 19.6509V24.5009C12 24.6335 11.9473 24.7607 11.8535 24.8545C11.7598 24.9482 11.6326 25.0009 11.5 25.0009C11.3674 25.0009 11.2402 24.9482 11.1464 24.8545C11.0527 24.7607 11 24.6335 11 24.5009V19.9659ZM8.99998 30.0009H6.49998V28.0009H8.99998V30.0009ZM8.99998 27.0009H5.99998C5.86737 27.0009 5.74019 26.9482 5.64643 26.8545C5.55266 26.7607 5.49998 26.6335 5.49998 26.5009C5.49998 26.3683 5.55266 26.2411 5.64643 26.1474C5.74019 26.0536 5.86737 26.0009 5.99998 26.0009H8.99998V27.0009ZM8.99998 24.5009V25.0009H6.49998V24.6759C6.49693 23.7159 6.80238 22.7803 7.37131 22.007C7.94024 21.2337 8.74255 20.6637 9.65998 20.3809L9.99998 20.2759V23.0909C9.70861 23.1947 9.45629 23.3857 9.27736 23.638C9.09842 23.8903 9.00157 24.1916 8.99998 24.5009ZM22 30.0009H9.99998V24.5009C9.99998 24.8987 10.158 25.2803 10.4393 25.5616C10.7206 25.8429 11.1022 26.0009 11.5 26.0009C11.8978 26.0009 12.2793 25.8429 12.5606 25.5616C12.8419 25.2803 13 24.8987 13 24.5009V24.0009H19V24.5009C19 24.8987 19.158 25.2803 19.4393 25.5616C19.7206 25.8429 20.1022 26.0009 20.5 26.0009C20.8978 26.0009 21.2793 25.8429 21.5606 25.5616C21.8419 25.2803 22 24.8987 22 24.5009V30.0009ZM22 23.0909V20.2759L22.34 20.3859C23.2575 20.667 24.0601 21.2359 24.6292 22.0085C25.1983 22.7811 25.5036 23.7163 25.5 24.6759V25.0009H23V24.5009C22.9984 24.1916 22.9015 23.8903 22.7226 23.638C22.5437 23.3857 22.2913 23.1947 22 23.0909ZM25.5 30.0009H23V28.0009H25.5V30.0009ZM26 27.0009H23V26.0009H26C26.1326 26.0009 26.2598 26.0536 26.3535 26.1474C26.4473 26.2411 26.5 26.3683 26.5 26.5009C26.5 26.6335 26.4473 26.7607 26.3535 26.8545C26.2598 26.9482 26.1326 27.0009 26 27.0009Z" fill="#333333"/>
</svg>
