<svg width="32" height="30" viewBox="0 0 32 30" fill="none" xmlns="http://www.w3.org/2000/svg">
<g clip-path="url(#clip0_9469_51178)">
<path d="M12.5 16.5H10.5V28.5H19.5V16.5H17.5V15.5H16V14.5H13.5V15.5H12.5V16.5Z" fill="#4BD274"/>
<path d="M31.2 6.66667C30.7556 6.22222 30.2222 5.95555 29.5556 5.86667C29.8667 5.42222 30.0445 4.88889 30.0445 4.31111V1.77778C30.0445 1.28889 29.8222 0.844444 29.5111 0.488889C29.2 0.222222 28.7556 0 28.2667 0H26.1778C25.6889 0 25.2445 0.222222 24.8889 0.533333C24.5778 0.844444 24.3556 1.28889 24.3556 1.82222V4.35556C24.3556 4.93333 24.5334 5.46667 24.8445 5.91111C24.2222 5.95556 23.6445 6.26667 23.2 6.71111C22.7111 7.2 22.4 7.86667 22.4 8.62222V13.4667C22.4 13.7333 22.6222 13.9556 22.8889 13.9556C25.7778 13.9556 28.6667 13.9556 31.5111 13.9556C31.7778 13.9556 32 13.7333 32 13.4667V8.57778C32 7.86667 31.6889 7.15556 31.2 6.66667ZM25.3334 1.77778C25.3334 1.55556 25.4222 1.33333 25.6 1.15556C25.7778 0.977778 25.9556 0.888889 26.2222 0.888889H28.3111C28.5334 0.888889 28.7556 0.977778 28.9334 1.15556C29.0222 1.33333 29.1111 1.55556 29.1111 1.77778V2.66667L26.9334 1.91111C26.8 1.86667 26.6667 1.86667 26.5334 1.95556L25.3334 2.62222V1.77778ZM29.1111 3.68889V4.35556C29.1111 4.88889 28.8889 5.33333 28.5334 5.68889C28.1778 6.04444 27.7334 6.26667 27.2 6.26667C26.6667 6.26667 26.2222 6.04444 25.8667 5.68889C25.5111 5.33333 25.2889 4.88889 25.2889 4.35556V3.64444L26.8 2.88889L29.1111 3.68889ZM31.0667 12.9778H30.1778V9.46667C30.1778 9.2 29.9556 8.97778 29.6889 8.97778C29.4222 8.97778 29.2 9.2 29.2 9.46667V12.9778H25.1111V9.46667C25.1111 9.2 24.8889 8.97778 24.6222 8.97778C24.3556 8.97778 24.1334 9.2 24.1334 9.46667V12.9778H23.2445V8.62222C23.2445 8.13333 23.4222 7.68889 23.7778 7.37778C24.0889 7.06667 24.5334 6.84444 25.0222 6.84444H25.7778C26.1778 7.06667 26.6222 7.2 27.1111 7.2C27.6 7.2 28.0445 7.06667 28.4445 6.84444H29.2C29.6889 6.84444 30.1334 7.02222 30.4445 7.37778C30.7556 7.68889 30.9778 8.13333 30.9778 8.62222V12.9778H31.0667Z" fill="#333333"/>
<path d="M8.8 6.66667C8.35556 6.22222 7.77778 5.95556 7.15556 5.86667C7.46667 5.42222 7.64444 4.88889 7.64444 4.31111V2.53333V0.488889C7.64444 0.222222 7.42222 0 7.15556 0H3.73333C3.24444 0 2.8 0.222222 2.48889 0.533333C2.13333 0.844444 1.95556 1.28889 1.95556 1.77778V2.53333V4.31111C1.95556 4.88889 2.13333 5.42222 2.44444 5.86667C1.77778 5.95556 1.24444 6.26667 0.8 6.66667C0.311111 7.15556 0 7.86667 0 8.57778V13.4222C0 13.6889 0.222222 13.9111 0.488889 13.9111C3.37778 13.9111 6.26667 13.9111 9.11111 13.9111C9.37778 13.9111 9.6 13.6889 9.6 13.4222V8.57778C9.55556 7.86667 9.28889 7.15556 8.8 6.66667ZM2.88889 1.77778C2.88889 1.55556 2.97778 1.33333 3.15556 1.15556C3.33333 0.977778 3.51111 0.888889 3.77778 0.888889H6.66667V2.04444H2.88889V1.77778ZM2.88889 3.02222H6.66667V4.31111C6.66667 4.84444 6.44444 5.28889 6.08889 5.64444C5.73333 6 5.28889 6.22222 4.75556 6.22222C4.22222 6.22222 3.77778 6 3.42222 5.64444C3.11111 5.33333 2.88889 4.84444 2.88889 4.31111V3.02222ZM8.62222 12.9778H7.73333V9.46667C7.73333 9.2 7.51111 8.97778 7.24444 8.97778C6.97778 8.97778 6.75556 9.2 6.75556 9.46667V12.9778H2.75556V9.46667C2.75556 9.2 2.53333 8.97778 2.26667 8.97778C2 8.97778 1.77778 9.2 1.77778 9.46667V12.9778H0.888889V8.62222C0.888889 8.13333 1.06667 7.68889 1.42222 7.37778C1.77778 7.02222 2.22222 6.84444 2.71111 6.84444H3.46667C3.86667 7.06667 4.31111 7.2 4.8 7.2C5.28889 7.2 5.73333 7.06667 6.13333 6.84444H6.88889C7.37778 6.84444 7.82222 7.02222 8.13333 7.37778C8.44444 7.68889 8.66667 8.13333 8.66667 8.62222V12.9778H8.62222Z" fill="#333333"/>
<path d="M20 6.66667C19.5555 6.22222 19.0222 5.95556 18.3555 5.86667C18.6666 5.42222 18.8444 4.88889 18.8444 4.31111V1.77778C18.8444 1.28889 18.6222 0.844444 18.3111 0.488889C18 0.222222 17.5555 0 17.0222 0H14.9333C14.4444 0 14 0.222222 13.6444 0.533333C13.3333 0.844444 13.1111 1.28889 13.1111 1.82222V4.35556C13.1111 4.93333 13.2888 5.46667 13.6 5.91111C13.0222 5.95556 12.4444 6.26667 12 6.66667C11.5111 7.15556 11.2 7.82222 11.2 8.57778V13.4222C11.2 13.6889 11.4222 13.9111 11.6888 13.9111C14.5777 13.9111 17.4666 13.9111 20.3111 13.9111C20.5777 13.9111 20.7999 13.6889 20.7999 13.4222V8.57778C20.7999 7.86667 20.4888 7.15556 20 6.66667ZM14.0888 1.77778C14.0888 1.55556 14.1777 1.33333 14.3555 1.15556C14.5333 0.977778 14.7111 0.888889 14.9777 0.888889H17.0666C17.2888 0.888889 17.5111 0.977778 17.6888 1.15556C17.8222 1.33333 17.9111 1.55556 17.9111 1.77778V2.66667C17.4222 2.75556 16.4888 2.8 15.8222 2.04444C15.6444 1.86667 15.3777 1.82222 15.1555 2C14.8444 2.26667 14.4888 2.4 14.0888 2.35556V1.77778ZM14.0888 3.28889C14.6666 3.33333 15.1111 3.15556 15.4222 2.97778C16.2666 3.73333 17.2888 3.73333 17.9111 3.64444V4.31111C17.9111 4.84444 17.6888 5.28889 17.3333 5.64444C16.9777 6 16.5333 6.22222 16 6.22222C15.4666 6.22222 15.0222 6 14.6666 5.64444C14.3111 5.28889 14.0888 4.84444 14.0888 4.31111V3.28889ZM19.8666 12.9778H18.9777V9.46667C18.9777 9.2 18.7555 8.97778 18.4888 8.97778C18.2222 8.97778 18 9.2 18 9.46667V12.9778H13.9111V9.46667C13.9111 9.2 13.6888 8.97778 13.4222 8.97778C13.1555 8.97778 12.9333 9.2 12.9333 9.46667V12.9778H12.0444V8.62222C12.0444 8.13333 12.2222 7.68889 12.5777 7.37778C12.8888 7.06667 13.3333 6.84444 13.8222 6.84444H14.6666C15.0666 7.06667 15.5111 7.2 16 7.2C16.4888 7.2 16.9333 7.06667 17.3333 6.84444H18.0888C18.5777 6.84444 19.0222 7.02222 19.3333 7.37778C19.6444 7.68889 19.8666 8.13333 19.8666 8.62222V12.9778Z" fill="#333333"/>
<path d="M25.7777 22.3118C25.511 22.3118 25.2888 22.0895 25.2888 21.8229C25.2888 21.5562 25.511 21.334 25.7777 21.334H28.6666C28.9333 21.334 29.1555 21.5562 29.1555 21.8229C29.1555 22.0895 28.9333 22.3118 28.6666 22.3118H25.7777Z" fill="#333333"/>
<path d="M24.8444 20.5774C24.5777 20.5774 24.3555 20.3552 24.3555 20.0885C24.3555 19.8218 24.5777 19.5996 24.8444 19.5996H29.5999C29.8666 19.5996 30.0888 19.8218 30.0888 20.0885C30.0888 20.3552 29.8666 20.5774 29.5999 20.5774H24.8444Z" fill="#333333"/>
<path d="M14.5333 22.3118C14.2667 22.3118 14.0444 22.0895 14.0444 21.8229C14.0444 21.5562 14.2667 21.334 14.5333 21.334H17.4222C17.6889 21.334 17.9111 21.5562 17.9111 21.8229C17.9111 22.0895 17.6889 22.3118 17.4222 22.3118H14.5333Z" fill="#333333"/>
<path d="M13.6 20.5774C13.3333 20.5774 13.1111 20.3552 13.1111 20.0885C13.1111 19.8218 13.3333 19.5996 13.6 19.5996H18.3555C18.6222 19.5996 18.8444 19.8218 18.8444 20.0885C18.8444 20.3552 18.6222 20.5774 18.3555 20.5774H13.6Z" fill="#333333"/>
<path d="M3.33337 22.3118C3.0667 22.3118 2.84448 22.0895 2.84448 21.8229C2.84448 21.5562 3.0667 21.334 3.33337 21.334H6.22226C6.48893 21.334 6.71115 21.5562 6.71115 21.8229C6.71115 22.0895 6.48893 22.3118 6.22226 22.3118H3.33337Z" fill="#333333"/>
<path d="M2.40002 20.5774C2.13335 20.5774 1.91113 20.3552 1.91113 20.0885C1.91113 19.8218 2.13335 19.5996 2.40002 19.5996H7.15558C7.42224 19.5996 7.64447 19.8218 7.64447 20.0885C7.64447 20.3552 7.42224 20.5774 7.15558 20.5774H2.40002Z" fill="#333333"/>
<path d="M29.0223 23.2891H25.3778C25.1111 23.2891 24.8889 23.5113 24.8889 23.778V27.4224C24.8889 27.6891 25.1111 27.9113 25.3778 27.9113H29.0223C29.2889 27.9113 29.5111 27.6891 29.5111 27.4224V23.778C29.5111 23.4668 29.2889 23.2891 29.0223 23.2891ZM28.5778 26.9335H25.8667V24.2224H28.5778V26.9335Z" fill="#333333"/>
<path d="M6.57773 23.7341C6.13329 23.2896 5.46662 22.9785 4.75551 22.9785C4.0444 22.9785 3.42218 23.2452 2.93329 23.7341C2.48885 24.1785 2.17773 24.8452 2.17773 25.5563C2.17773 26.2674 2.4444 26.8896 2.93329 27.3785C3.37773 27.823 4.0444 28.1341 4.75551 28.1341C5.46662 28.1341 6.08885 27.8674 6.57773 27.3785C7.02218 26.9341 7.33329 26.2674 7.33329 25.5563C7.33329 24.8452 7.06662 24.223 6.57773 23.7341ZM5.95551 26.7118C5.6444 27.023 5.2444 27.2007 4.79996 27.2007C4.35551 27.2007 3.95551 27.023 3.6444 26.7118C3.33329 26.4007 3.15551 26.0007 3.15551 25.5563C3.15551 25.1118 3.33329 24.7118 3.6444 24.4007C3.95551 24.0896 4.35551 23.9118 4.79996 23.9118C5.2444 23.9118 5.6444 24.0896 5.95551 24.4007C6.26662 24.7118 6.4444 25.1118 6.4444 25.5563C6.39996 26.0007 6.22218 26.4007 5.95551 26.7118Z" fill="#333333"/>
<path d="M18.6666 27.2883C17.911 25.9994 17.1555 24.7105 16.3999 23.3771C16.3555 23.2883 16.311 23.2438 16.2222 23.1994C15.9999 23.066 15.7333 23.1549 15.5999 23.3771C14.8444 24.666 14.0888 25.9549 13.3777 27.2438C13.3333 27.3327 13.2888 27.4216 13.2888 27.5105C13.2888 27.7771 13.511 27.9994 13.7777 27.9994H18.2666C18.3555 27.9994 18.4444 27.9994 18.4888 27.9549C18.711 27.7771 18.7999 27.5105 18.6666 27.2883ZM14.5777 27.066C15.0666 26.2216 15.5555 25.3771 15.9999 24.5771C16.4888 25.4216 16.9777 26.266 17.4222 27.066H14.5777Z" fill="#333333"/>
<path d="M31.511 16.9776H30.0444V16.4442C30.0444 16.1776 29.8221 15.9553 29.5555 15.9553H28.711V15.3776C28.711 15.1109 28.4888 14.8887 28.2221 14.8887H26.0888C25.8221 14.8887 25.5999 15.1109 25.5999 15.3776V15.9998H24.7555C24.4888 15.9998 24.2666 16.222 24.2666 16.4887V16.9776H22.7999C22.5333 16.9776 22.311 17.1998 22.311 17.4664V22.3553C22.311 22.622 22.5333 22.8442 22.7999 22.8442C23.0666 22.8442 23.2888 22.622 23.2888 22.3553V17.9553H24.2666V18.4442C24.2666 18.7109 24.4888 18.9331 24.7555 18.9331H29.511C29.7777 18.9331 29.9999 18.7109 29.9999 18.4442V17.9553H30.9777V28.8887H23.3777V24.4887C23.3777 24.222 23.1555 23.9998 22.8888 23.9998C22.6221 23.9998 22.3999 24.222 22.3999 24.4887V29.3776C22.3999 29.6442 22.6221 29.8664 22.8888 29.8664H31.511C31.7777 29.8664 31.9999 29.6442 31.9999 29.3776V17.422C31.9999 17.1553 31.7777 16.9776 31.511 16.9776ZM29.111 17.9109H25.2888V16.9331H26.1333C26.3999 16.9331 26.6221 16.7109 26.6221 16.4442V15.8664H27.8221V16.4442C27.8221 16.7109 28.0444 16.9331 28.311 16.9331H29.1555C29.111 17.2442 29.111 17.5998 29.111 17.9109Z" fill="#333333"/>
<path d="M20.3111 16.9776H18.8444V16.4442C18.8444 16.1776 18.6222 15.9553 18.3555 15.9553H17.5111V15.3776C17.5111 15.1109 17.2889 14.8887 17.0222 14.8887H14.8889C14.6222 14.8887 14.4 15.1109 14.4 15.3776V15.9998H13.5555C13.2889 15.9998 13.0666 16.222 13.0666 16.4887V16.9776H11.6C11.3333 16.9776 11.1111 17.1998 11.1111 17.4664V22.3553C11.1111 22.622 11.3333 22.8442 11.6 22.8442C11.8666 22.8442 12.0889 22.622 12.0889 22.3553V17.9553H13.0666V18.4442C13.0666 18.7109 13.2889 18.9331 13.5555 18.9331H18.3111C18.5778 18.9331 18.8 18.7109 18.8 18.4442V17.9553H19.7778V28.8887H12.1333V24.4887C12.1333 24.222 11.9111 23.9998 11.6444 23.9998C11.3778 23.9998 11.1555 24.222 11.1555 24.4887V29.3776C11.1555 29.6442 11.3778 29.8664 11.6444 29.8664H20.2666C20.5333 29.8664 20.7555 29.6442 20.7555 29.3776V17.422C20.8 17.1553 20.5778 16.9776 20.3111 16.9776ZM17.9111 17.9109H14.0889V16.9331H14.9333C15.2 16.9331 15.4222 16.7109 15.4222 16.4442V15.8664H16.6222V16.4442C16.6222 16.7109 16.8444 16.9331 17.1111 16.9331H17.9555V17.9109H17.9111Z" fill="#333333"/>
<path d="M9.11111 16.9776H7.64444V16.4442C7.64444 16.1776 7.42222 15.9553 7.15556 15.9553H6.31111V15.3776C6.31111 15.1109 6.08889 14.8887 5.82222 14.8887H3.73333C3.46667 14.8887 3.24444 15.1109 3.24444 15.3776V15.9998H2.4C2.13333 15.9998 1.91111 16.222 1.91111 16.4887V16.9776H0.488889C0.222222 16.9776 0 17.1998 0 17.4664V22.3553C0 22.622 0.222222 22.8442 0.488889 22.8442C0.755556 22.8442 0.977778 22.622 0.977778 22.3553V17.9553H1.95556V18.4442C1.95556 18.7109 2.17778 18.9331 2.44444 18.9331H7.2C7.46667 18.9331 7.68889 18.7109 7.68889 18.4442V17.9553H8.66667V28.8887H0.933333V24.4887C0.933333 24.222 0.711111 23.9998 0.444444 23.9998C0.177778 23.9998 0 24.1776 0 24.3998V29.2887C0 29.5553 0.222222 29.7776 0.488889 29.7776H9.11111C9.37778 29.7776 9.6 29.5553 9.6 29.2887V17.422C9.55556 17.1553 9.37778 16.9776 9.11111 16.9776ZM6.71111 17.9109H2.88889V16.9331H3.73333C4 16.9331 4.22222 16.7109 4.22222 16.4442V15.8665H5.42222V16.4442C5.42222 16.7109 5.64444 16.9331 5.91111 16.9331H6.75556C6.71111 17.2442 6.71111 17.5998 6.71111 17.9109Z" fill="#333333"/>
</g>
<defs>
<clipPath id="clip0_9469_51178">
<rect width="32" height="29.7333" fill="white"/>
</clipPath>
</defs>
</svg>
