<svg width="102" height="102" viewBox="0 0 102 102" fill="none" xmlns="http://www.w3.org/2000/svg">
<rect width="102" height="102" rx="12" fill="#EEEEEE"/>
<path d="M66.3717 68.3201V72.75C66.3717 73.1641 66.0359 73.4999 65.6218 73.4999C65.2077 73.4999 64.8719 73.1641 64.8719 72.75V68.3201C64.8719 64.8709 62.0808 62.0797 58.6313 62.0797C56.9992 62.0797 55.5183 61.2483 54.67 59.8554C54.4545 59.5017 54.5666 59.0403 54.9204 58.8249C55.2739 58.6092 55.7354 58.7214 55.9509 59.0753C56.5248 60.0175 57.5269 60.5799 58.6313 60.5799C62.9094 60.5797 66.3717 64.0417 66.3717 68.3201ZM52.3927 60.2298C50.8228 60.5719 49.2295 60.2247 47.9654 59.3568C48.1822 58.877 48.3154 58.3608 48.3577 57.8259C54.7857 59.718 61.216 54.8665 61.216 48.2023C61.216 41.842 61.2238 41.9432 61.198 41.6825C61.0993 40.6488 59.6057 40.7894 59.7054 41.8295C59.7222 41.9996 59.7162 42.1483 59.7162 48.2022C59.7162 52.9059 55.8895 56.7325 51.1858 56.7325C46.4821 56.7325 42.6555 52.9059 42.6555 48.2022C42.6555 46.5128 42.6375 45.2045 42.6316 44.2236C42.6164 41.7624 44.8923 39.8923 47.3551 40.4827C50.8286 41.3156 52.2285 43.4821 56.6806 43.2747C57.0943 43.2553 57.4139 42.9043 57.3945 42.4905C57.3751 42.0768 57.0262 41.7593 56.6103 41.7766C52.5967 41.9653 51.4842 39.9306 47.7049 39.0243C44.2878 38.2046 41.1108 40.8044 41.1317 44.2328C41.1368 45.0302 41.1473 45.9035 41.1525 46.979C40.6533 46.7187 40.3119 46.2024 40.3119 45.6085C40.3119 45.5913 40.312 41.7132 40.3117 41.6961C40.2741 39.9963 40.5162 35.7253 43.5695 32.782C46.9808 29.4938 52.3181 29.4926 56.468 30.9391L55.8685 31.1858C55.1528 31.4802 55.3024 32.5422 56.0741 32.6249L57.3923 32.7661C59.9292 33.0377 62.1728 34.3607 63.6102 36.4164C62.6668 37.5628 62.1533 38.9897 62.1533 40.493V45.6084C62.1533 46.0225 62.4891 46.3583 62.9032 46.3583C63.3174 46.3583 63.6532 46.0225 63.6532 45.6084V40.493C63.6532 39.1897 64.1564 37.9613 65.0703 37.0343C65.3247 36.7766 65.3559 36.3605 65.1785 36.0742C63.6833 33.6764 61.4585 32.1325 58.9194 31.5132C59.3301 31.1628 59.2493 30.5118 58.7739 30.2714C56.5938 29.1702 53.4839 28.3972 50.5243 28.5111C43.0371 28.8013 38.6543 34.3929 38.8122 41.721V45.6086C38.8122 47.0433 39.816 48.2489 41.1633 48.5727C41.3031 52.403 43.6005 55.692 46.8739 57.2572V57.4545C46.8739 59.1834 45.4729 60.58 43.7404 60.58C39.4534 60.58 36 64.0503 36 68.3202V72.7501C36 73.1642 36.3358 73.5 36.7499 73.5C37.1641 73.5 37.4998 73.1642 37.4998 72.7501V68.3202C37.4998 64.8712 40.291 62.0798 43.7404 62.0798C45.0174 62.0798 46.2335 61.568 47.133 60.604C48.7318 61.6952 50.7391 62.1253 52.7121 61.6953C53.1168 61.6072 53.3733 61.2076 53.2851 60.8029C53.1969 60.3981 52.7971 60.1413 52.3927 60.2298V60.2298ZM58.7788 69.6566H56.529C56.1149 69.6566 55.7791 69.9923 55.7791 70.4065C55.7791 70.8206 56.1149 71.1564 56.529 71.1564H58.7788C59.1929 71.1564 59.5287 70.8206 59.5287 70.4065C59.5287 69.9923 59.1929 69.6566 58.7788 69.6566Z" fill="#888888"/>
</svg>
