<svg width="709" height="154" viewBox="0 0 709 154" fill="none" xmlns="http://www.w3.org/2000/svg">
<path d="M708.665 73.2298C710.225 144.02 621.465 176.79 576.525 123.58C555.525 98.9498 527.455 89.1798 494.085 88.1198C461.175 89.0498 432.735 99.5699 411.765 124.04C410.355 125.65 408.885 127.24 407.335 128.73C403.268 132.719 398.751 136.222 393.875 139.17C380.085 147.528 363.968 151.218 347.915 149.695C331.861 148.171 316.727 141.513 304.755 130.71C302.333 128.53 300.058 126.191 297.945 123.71C287.679 111.355 274.352 101.908 259.295 96.3099C217.505 80.0199 161.355 88.0199 131.755 124.04C126.62 129.981 120.587 135.082 113.875 139.16C104.38 144.936 93.7128 148.513 82.6553 149.63C39.9553 154.53 0.395304 119.63 0.0153039 76.5499C-0.197452 65.8472 1.88337 55.223 6.11787 45.3914C10.3524 35.5598 16.6425 26.7485 24.5653 19.5498C50.3253 -4.23016 90.7953 -6.45015 119.045 14.3698C123.916 17.9037 128.347 22.0061 132.245 26.5899C160.605 61.3599 215.785 69.6799 256.725 54.5899C273.545 48.8999 288.025 38.0899 299.465 24.5899C300.815 23.1199 302.215 21.6799 303.675 20.3199C317.889 6.96751 336.748 -0.317972 356.247 0.0106532C375.746 0.339278 394.349 8.25613 408.105 22.0799C419.745 35.7499 433.495 47.8199 450.685 53.7499C462.945 58.1599 478.135 61.8899 494.595 61.9499C527.595 61.0199 555.905 50.4899 576.925 26.0199C620.905 -25.3401 706.815 4.64983 708.665 73.2298Z" fill="#EEEEEE"/>
<g clip-path="url(#clip0_8980_40236)">
<path d="M63.3283 109.7C34.1483 100.783 35.2916 77.0996 35.3711 75.9012C35.3711 75.8645 35.3711 75.8278 35.3711 75.7912V43.499C35.3722 43.1206 35.4903 42.7517 35.7092 42.4431C35.9281 42.1344 36.2372 41.9009 36.5939 41.7748L63.2427 32.1327C63.6457 31.987 64.087 31.987 64.49 32.1327L91.1449 41.7687C91.5017 41.8948 91.8107 42.1282 92.0296 42.4369C92.2486 42.7456 92.3666 43.1145 92.3677 43.4929V75.7912C92.3677 75.8278 92.3677 75.8645 92.3677 75.9012C92.4441 77.0996 93.5906 100.783 64.4105 109.7C64.058 109.809 63.6808 109.809 63.3283 109.7Z" fill="#4BD274"/>
<path d="M27.5021 153.028C27.0313 152.882 26.5605 152.744 26.0928 152.591C22.5435 151.423 20.2537 148.388 20.0183 144.539C20.003 144.273 20.0031 144.007 20.0031 143.738C20.0031 120.359 20.0031 96.9805 20.0031 73.6019C20.0031 69.0651 22.5313 65.6045 26.6217 64.5865C27.5509 64.3788 28.5004 64.2763 29.4525 64.2807C31.779 64.2379 34.1055 64.2807 36.4319 64.2807C38.1836 64.2807 39.0152 64.831 39.0366 65.9866C39.058 67.1422 38.2784 67.7292 36.5083 67.7292C34.0627 67.7292 31.617 67.7292 29.1713 67.7292C25.6648 67.7506 23.4637 69.9456 23.43 73.449C23.43 74.895 23.43 76.3379 23.43 77.9062C23.907 77.9246 24.3105 77.9582 24.711 77.9582H36.383C38.2356 77.9582 39.0549 78.4993 39.0335 79.7069C39.009 80.8686 38.1989 81.3974 36.4319 81.4005H23.4423V82.6509C23.4423 102.981 23.4423 123.309 23.4423 143.637C23.4423 147.443 25.6006 149.601 29.3945 149.601H115.794C119.597 149.601 121.749 147.461 121.749 143.64C121.749 123.314 121.749 102.987 121.749 82.657V81.4005H108.524C106.996 81.4005 106.207 80.7891 106.219 79.6549C106.232 78.5207 106.987 77.9643 108.57 77.9613H121.838C121.737 75.7877 121.838 73.6813 121.49 71.6453C121.089 69.2852 118.848 67.7658 116.234 67.7353C113.621 67.7047 110.97 67.7353 108.338 67.7353C106.892 67.7353 106.128 67.1239 106.152 65.9958C106.174 64.9441 106.953 64.3022 108.292 64.296C110.964 64.296 113.636 64.2441 116.305 64.296C121.456 64.4183 125.079 68.1113 125.186 73.2717C125.186 73.4643 125.186 73.6538 125.186 73.8464C125.186 97.0804 125.186 120.307 125.186 143.527C125.186 147.519 123.596 150.522 119.937 152.282C119.201 152.584 118.446 152.838 117.677 153.044L27.5021 153.028Z" fill="#333333"/>
<path d="M42.5186 66.1402C42.5186 60.3827 42.5186 54.6252 42.5186 48.8676C42.5186 46.8897 42.644 46.7277 44.4874 46.052C53.46 42.7626 62.4203 39.4518 71.4113 36.2082C72.1864 35.9514 73.0237 35.9514 73.7989 36.2082C82.8968 39.4701 91.9672 42.8329 101.05 46.1468C102.108 46.529 102.688 47.1251 102.685 48.3112C102.652 59.7876 103.013 71.2823 102.523 82.7403C101.943 96.2374 95.1558 106.167 83.2637 112.547C80.2066 114.183 77.0547 115.629 73.9089 117.078C73.3189 117.35 72.4201 117.487 71.879 117.23C67.8803 115.356 63.7746 113.635 60.0052 111.364C48.9233 104.693 43.0811 94.7455 42.5798 81.8109C42.375 76.5955 42.5462 71.3648 42.5462 66.1402H42.5186ZM99.2339 66.9534C99.2339 61.3498 99.2339 55.743 99.2339 50.1394C99.2339 49.4332 99.0505 49.0755 98.3352 48.8187C90.0321 45.8075 81.7473 42.7473 73.4443 39.7391C72.9202 39.559 72.352 39.5525 71.824 39.7208C63.4842 42.7412 55.1628 45.8105 46.8261 48.8401C46.1933 49.0694 45.9304 49.3445 45.9334 50.0446C45.9579 60.5702 45.7255 71.1019 46.0221 81.6183C46.3767 94.2319 52.4573 103.513 63.5729 109.453C66.2906 110.905 69.1337 112.119 71.8943 113.498C72.1525 113.643 72.4449 113.716 72.7411 113.711C73.0373 113.705 73.3265 113.62 73.5788 113.464C75.893 112.306 78.2439 111.214 80.5581 110.055C92.7009 103.978 98.9588 94.1586 99.2064 80.5697C99.3042 76.03 99.2339 71.4932 99.2339 66.9534Z" fill="#333333"/>
<path d="M72.741 125.793H106.959C110.322 125.793 111.988 127.459 111.991 130.864C111.991 132.582 111.991 134.298 111.991 136.016C111.97 138.84 110.157 140.638 107.314 140.647C102.117 140.647 96.938 140.647 91.7501 140.647C80.4572 140.647 69.1653 140.647 57.8744 140.647C57.419 140.676 56.9617 140.646 56.514 140.558C56.1241 140.461 55.7817 140.228 55.548 139.901C55.3144 139.574 55.2049 139.175 55.2391 138.774C55.2734 138.374 55.4491 137.999 55.7348 137.716C56.0205 137.434 56.3975 137.262 56.7983 137.232C57.1743 137.196 57.5595 137.232 57.9416 137.232H106.58C108.506 137.232 108.555 137.18 108.558 135.224C108.558 133.695 108.521 132.167 108.558 130.638C108.592 129.593 108.148 129.223 107.127 129.226C101.557 129.253 95.9872 129.226 90.4172 129.226H38.8072C36.9546 129.226 36.8935 129.29 36.8935 131.173C36.8935 132.659 36.8935 134.148 36.8935 135.636C36.8935 136.991 37.1197 137.208 38.5107 137.211C42.0569 137.211 45.6062 137.211 49.1525 137.211C50.5159 137.211 51.2924 137.822 51.2924 138.874C51.2924 139.926 50.5098 140.635 49.1005 140.638C45.432 140.638 41.7634 140.656 38.1133 140.638C35.2793 140.638 33.4695 138.804 33.4481 135.982C33.4359 134.148 33.4359 132.313 33.4481 130.479C33.4634 127.575 35.2518 125.777 38.1683 125.777C49.6976 125.779 61.2219 125.784 72.741 125.793Z" fill="#333333"/>
<path d="M43.2278 118.955C39.761 118.955 36.2912 118.955 32.8337 118.955C31.4641 118.955 30.7181 118.343 30.6937 117.282C30.6692 116.222 31.4335 115.531 32.7695 115.531C39.7437 115.518 46.717 115.518 53.6892 115.531C55.0129 115.531 55.8292 116.197 55.8292 117.233C55.8506 118.316 55.0405 118.958 53.6158 118.958C50.1593 118.956 46.6966 118.955 43.2278 118.955Z" fill="#333333"/>
<path d="M102.132 118.955C98.6673 118.955 95.2026 118.955 91.7379 118.955C90.3927 118.955 89.5979 118.344 89.5979 117.286C89.5979 116.228 90.3958 115.531 91.6951 115.531C98.6673 115.531 105.641 115.531 112.615 115.531C113.966 115.531 114.727 116.167 114.755 117.234C114.773 118.347 114.009 118.958 112.563 118.958C109.078 118.956 105.601 118.955 102.132 118.955Z" fill="#333333"/>
<path d="M100.973 108.626C100.362 108.626 99.7505 108.672 99.1391 108.626C98.1822 108.537 97.6106 108.014 97.5311 107.015C97.5088 106.795 97.5318 106.573 97.5989 106.362C97.6659 106.151 97.7755 105.957 97.9208 105.79C98.0661 105.624 98.2441 105.489 98.4436 105.394C98.6432 105.299 98.8602 105.246 99.081 105.238C100.413 105.157 101.748 105.157 103.08 105.238C104.037 105.306 104.608 105.987 104.584 106.944C104.593 107.157 104.56 107.368 104.486 107.568C104.413 107.767 104.3 107.949 104.155 108.104C104.009 108.259 103.835 108.384 103.64 108.47C103.446 108.556 103.237 108.603 103.025 108.607C102.346 108.672 101.655 108.607 100.967 108.607L100.973 108.626Z" fill="#333333"/>
<path d="M44.2489 108.627C43.6375 108.627 43.0261 108.664 42.4146 108.627C42.1945 108.62 41.9779 108.57 41.7773 108.479C41.5767 108.388 41.3961 108.258 41.2458 108.097C41.0955 107.936 40.9786 107.747 40.9016 107.54C40.8247 107.334 40.7892 107.114 40.7974 106.894C40.8586 105.928 41.4088 105.298 42.3718 105.24C43.6671 105.17 44.9652 105.17 46.2605 105.24C46.481 105.246 46.6982 105.295 46.8994 105.386C47.1006 105.476 47.2817 105.606 47.4321 105.767C47.5824 105.929 47.699 106.119 47.775 106.326C47.851 106.533 47.8849 106.753 47.8746 106.974C47.8682 107.417 47.6877 107.84 47.372 108.152C47.0563 108.464 46.6307 108.639 46.1871 108.64C45.5451 108.661 44.897 108.627 44.2489 108.627Z" fill="#333333"/>
<path d="M33.8456 94.8833C34.3011 94.8833 34.7627 94.8589 35.2121 94.8833C36.1934 94.9506 36.8905 95.6415 36.8782 96.5525C36.8629 97.5308 36.3157 98.1636 35.3772 98.2584C34.318 98.3638 33.2509 98.3638 32.1917 98.2584C31.2562 98.1636 30.7029 97.5369 30.6998 96.5494C30.6998 95.6323 31.3693 94.9506 32.3629 94.8833C32.8551 94.8558 33.3503 94.8833 33.8456 94.8833Z" fill="#333333"/>
<path d="M111.652 94.8899C112.145 94.8639 112.639 94.8639 113.131 94.8899C114.098 94.9877 114.66 95.5655 114.697 96.5285C114.721 96.7395 114.701 96.9532 114.639 97.1562C114.577 97.3593 114.474 97.5475 114.336 97.7089C114.198 97.8704 114.028 98.0017 113.837 98.0948C113.646 98.1878 113.438 98.2405 113.226 98.2496C112.167 98.3459 111.1 98.3459 110.041 98.2496C109.821 98.2362 109.606 98.178 109.409 98.0785C109.213 97.9791 109.039 97.8405 108.897 97.6713C108.756 97.5021 108.651 97.3059 108.589 97.0947C108.526 96.8834 108.507 96.6616 108.534 96.4429C108.628 95.4738 109.203 94.9388 110.169 94.8685C110.661 94.8348 111.157 94.8685 111.649 94.8685L111.652 94.8899Z" fill="#333333"/>
<path d="M33.7937 108.625C33.2984 108.625 32.8032 108.661 32.311 108.625C32.092 108.618 31.8765 108.568 31.6769 108.478C31.4773 108.388 31.2975 108.259 31.1478 108.099C30.9981 107.939 30.8814 107.751 30.8046 107.546C30.7277 107.341 30.6921 107.122 30.6999 106.903C30.7366 105.922 31.3113 105.32 32.2284 105.237C33.2521 105.158 34.2803 105.158 35.3039 105.237C35.7355 105.268 36.1391 105.463 36.432 105.781C36.7249 106.1 36.885 106.518 36.8795 106.951C36.874 107.384 36.7034 107.798 36.4026 108.109C36.1017 108.42 35.6934 108.605 35.2611 108.625C34.7723 108.65 34.2825 108.65 33.7937 108.625Z" fill="#333333"/>
<path d="M111.643 108.627C111.147 108.627 110.652 108.658 110.16 108.627C109.718 108.615 109.298 108.429 108.992 108.11C108.686 107.791 108.518 107.364 108.524 106.921C108.52 106.702 108.558 106.484 108.638 106.279C108.718 106.075 108.837 105.888 108.99 105.73C109.142 105.572 109.324 105.446 109.526 105.359C109.727 105.271 109.944 105.225 110.163 105.222C111.15 105.16 112.139 105.16 113.125 105.222C113.553 105.253 113.954 105.445 114.246 105.76C114.538 106.074 114.7 106.488 114.7 106.917C114.7 107.346 114.538 107.759 114.246 108.074C113.954 108.388 113.553 108.58 113.125 108.612C112.633 108.641 112.139 108.641 111.646 108.612L111.643 108.627Z" fill="#333333"/>
<path d="M95.7764 68.2507C95.7764 72.711 95.9262 77.1805 95.7458 81.6378C95.2964 92.9307 89.919 101.203 79.9865 106.516C78.0391 107.559 76.0122 108.433 74.0312 109.427C73.6361 109.655 73.1888 109.777 72.7325 109.782C72.2763 109.787 71.8265 109.674 71.4266 109.454C69.3875 108.424 67.2812 107.525 65.2635 106.452C55.175 101.093 49.7181 92.7167 49.4521 81.274C49.2351 71.9345 49.4155 62.5829 49.388 53.2373C49.388 52.0145 49.8863 51.3602 51.0143 50.9537C57.8164 48.508 64.597 45.9675 71.4113 43.5341C72.188 43.2803 73.0253 43.2803 73.802 43.5341C80.5795 45.9553 87.3205 48.4774 94.0919 50.92C95.3148 51.3633 95.8223 52.0726 95.81 53.3657C95.7642 58.3243 95.7917 63.286 95.7917 68.2446L95.7764 68.2507ZM92.3341 69.067C92.3341 64.3743 92.3341 59.6817 92.3524 55.0043C92.3524 54.237 92.1415 53.8762 91.3925 53.6072C85.4098 51.452 79.4515 49.2356 73.4657 47.0834C72.9049 46.898 72.2992 46.898 71.7384 47.0834C65.7159 49.2478 59.721 51.4734 53.7015 53.65C53.0718 53.8793 52.8089 54.1514 52.8089 54.8545C52.8364 63.5917 52.7722 72.3258 52.8455 81.06C52.9128 89.0084 56.1441 95.5048 62.2828 100.546C65.2696 102.992 68.8647 104.355 72.2826 106.021C72.6357 106.119 73.0129 106.079 73.3373 105.908C75.0615 105.104 76.7949 104.309 78.4732 103.41C87.2502 98.7147 91.9244 91.396 92.2913 81.436C92.4564 77.3089 92.3341 73.1849 92.3341 69.067Z" fill="#333333"/>
<path d="M83.1261 67.678L80.442 65.6114C80.1729 65.9355 79.907 66.2228 79.6624 66.553C77.0129 69.9973 74.3634 73.4417 71.7139 76.886C70.06 79.026 68.7669 79.2186 66.5994 77.635C66.4221 77.5066 66.2356 77.3904 65.988 77.2192L63.9458 79.9217C65.5967 81.1782 67.1558 82.398 68.7577 83.5566C69.6749 84.2292 70.5339 84.0396 71.3349 83.0246C72.839 81.1048 74.3247 79.1686 75.7921 77.2162C76.3241 76.51 76.966 76.1339 77.8557 76.3571C78.1165 76.4239 78.3569 76.5536 78.5559 76.735C78.7549 76.9163 78.9063 77.1438 78.9968 77.3973C79.0874 77.6509 79.1143 77.9228 79.0752 78.1891C79.0362 78.4555 78.9323 78.7082 78.7728 78.9251C77.0302 81.2852 75.2908 83.6575 73.3678 85.8678C71.8393 87.6256 69.1154 87.9068 67.1925 86.6076C65.1442 85.2197 63.1785 83.7003 61.2495 82.1534C60.0266 81.1812 59.9135 79.671 60.8337 78.3534C61.6408 77.1978 62.509 76.085 63.3711 74.9692C64.6948 73.2603 66.1867 73.0555 67.9231 74.318L68.8403 74.9784C70.4758 72.8384 72.0991 70.7504 73.7316 68.6441C75.0768 66.8923 76.4158 65.1314 77.767 63.3828C79.1183 61.6341 80.6315 61.4354 82.4016 62.7714C83.4685 63.5723 84.5415 64.3672 85.5718 65.217C87.0331 66.4093 87.2257 67.9195 86.1129 69.442C85.2141 70.6648 84.2868 71.8744 83.3309 73.0707C82.6064 73.9879 81.6067 74.1315 80.8241 73.5324C80.0415 72.9332 79.9223 71.9427 80.6101 71.0011C81.3866 69.9219 82.212 68.8733 83.1261 67.678Z" fill="#333333"/>
</g>
<g clip-path="url(#clip1_8980_40236)">
<path d="M353.471 144.572H333.388V101.168C333.388 100.704 333.573 100.258 333.901 99.9293C334.23 99.6006 334.676 99.416 335.141 99.416H351.719C352.184 99.416 352.629 99.6006 352.958 99.9293C353.287 100.258 353.471 100.704 353.471 101.168V144.572Z" fill="#4BD274"/>
<path d="M394.286 69.1726C404.1 69.1726 412.056 61.2168 412.056 51.4027C412.056 41.5887 404.1 33.6328 394.286 33.6328C384.472 33.6328 376.516 41.5887 376.516 51.4027C376.516 61.2168 384.472 69.1726 394.286 69.1726Z" fill="#4BD274"/>
<path d="M283.999 148.708C284.788 147.705 285.831 147.425 287.066 147.451C289.958 147.512 292.849 147.451 295.925 147.451V117.795C295.925 115.372 296.525 114.781 298.992 114.781H316.643C318.873 114.781 319.539 115.46 319.539 117.716C319.539 127.042 319.539 136.367 319.539 145.69V147.368H326.615V105.475C326.615 103.07 327.18 102.492 329.55 102.492H347.219C349.502 102.492 350.089 103.083 350.089 105.397C350.089 118.794 350.089 132.192 350.089 145.589V147.342H357.187V108.945C357.187 106.111 357.673 105.629 360.516 105.629H377.756C380.218 105.629 380.779 106.198 380.779 108.696C380.779 121.009 380.779 133.322 380.779 145.633V147.385H387.876V88.0165C387.876 85.0943 388.336 84.6387 391.267 84.6387H408.512C410.702 84.6387 411.355 85.3134 411.355 87.4733C411.355 106.89 411.355 126.314 411.355 145.742V147.495H413.765C416.165 147.495 418.584 147.464 420.963 147.526C422.339 147.561 423.048 148.332 423.026 149.532C423.004 150.733 422.203 151.6 420.888 151.723C420.573 151.723 420.253 151.723 419.938 151.723C375.627 151.723 331.314 151.723 287.001 151.723C285.734 151.723 284.692 151.477 283.991 150.356L283.999 148.708ZM407.083 147.394V88.9804H392.187V147.385L407.083 147.394ZM345.852 106.737H330.908V147.385H345.852V106.737ZM361.511 109.935V147.372H376.407V109.935H361.511ZM315.158 119.136H300.21V147.363H315.176L315.158 119.136Z" fill="#333333"/>
<path d="M380.542 53.8866C380.713 43.0783 389.235 34.7673 399.977 34.9381C410.588 35.1002 418.877 43.7486 418.698 54.4649C418.527 64.7387 409.747 73.2337 399.421 73.1198C396.916 73.1061 394.438 72.5967 392.13 71.6209C389.823 70.6451 387.731 69.2223 385.976 67.4344C384.222 65.6465 382.838 63.5289 381.905 61.2037C380.973 58.8784 380.509 56.3916 380.542 53.8866V53.8866ZM414.501 54.2327C414.672 46.0794 408.021 39.3017 399.719 39.1615C395.786 39.1051 391.99 40.6065 389.16 43.3381C386.33 46.0696 384.695 49.8096 384.613 53.742C384.402 61.7639 391.022 68.6861 399.07 68.8613C407.605 69.076 414.321 62.6883 414.501 54.2327Z" fill="#333333"/>
<path d="M308.315 106.031C307.719 105.488 306.93 105.089 306.72 104.489C306.51 103.888 306.76 103.03 307.001 102.355C307.132 101.991 307.649 101.751 308.017 101.479C317.363 94.802 326.71 88.1208 336.056 81.4351C336.537 81.033 337.125 80.7801 337.748 80.7077C338.371 80.6354 339.001 80.7466 339.561 81.0277C347.925 84.5589 356.323 87.9893 364.678 91.5424C365.817 92.0287 366.523 91.8666 367.438 91.1262C373.918 85.8995 380.442 80.7341 386.939 75.5425C387.815 74.8327 388.867 74.399 389.769 75.1613C390.321 75.6214 390.606 76.5764 390.68 77.3519C390.729 77.79 390.216 78.4209 389.804 78.7626C382.631 84.4873 375.444 90.1974 368.245 95.8929C367.224 96.7034 366.225 96.6684 365.081 96.1908C356.621 92.6859 348.139 89.181 339.697 85.6235C339.251 85.3878 338.745 85.293 338.244 85.3517C337.743 85.4104 337.272 85.6198 336.893 85.9521C328.09 92.296 319.263 98.6063 310.413 104.883C309.736 105.304 309.035 105.687 308.315 106.031Z" fill="#333333"/>
<path d="M397.83 41.7168H400.976V44.0301L404.043 44.8055C403.916 45.8833 403.793 46.8909 403.657 48.0563C402.698 47.8373 401.844 47.6182 400.976 47.4517C398.869 47.0925 397.563 47.9906 397.795 49.7693C397.949 50.4865 398.377 51.1154 398.987 51.5218C400.043 52.1965 401.27 52.5908 402.396 53.156C404.45 54.1943 405.716 55.8197 405.673 58.1899C405.629 60.5601 404.525 62.3432 402.33 63.3202C401.607 63.6444 401.252 64.0168 401.353 64.8229C401.384 65.3336 401.384 65.8457 401.353 66.3563H398.453C398.396 66.2775 398.308 66.2118 398.304 66.1417C398.128 63.9774 398.128 63.9818 395.938 63.4429C395.154 63.2501 394.374 63.0354 393.392 62.7813C393.493 61.7211 393.607 60.5908 393.703 59.57C395.491 59.8898 397.208 60.2841 398.904 60.4769C400.117 60.6127 401.213 60.0387 401.532 58.8295C401.9 57.5152 401.125 56.5995 399.916 56.0607C398.93 55.6225 397.927 55.2151 396.963 54.7463C394.948 53.7167 393.725 52.0519 393.769 49.7869C393.813 47.5218 394.772 45.6204 396.963 44.5295C397.353 44.3323 397.607 43.719 397.765 43.2415C397.856 42.7387 397.879 42.2256 397.83 41.7168V41.7168Z" fill="#333333"/>
</g>
<g clip-path="url(#clip2_8980_40236)">
<path d="M684.785 107.016H579.57C578.703 107.016 578 107.719 578 108.586V123.501C578 124.369 578.703 125.072 579.57 125.072H684.785C685.653 125.072 686.356 124.369 686.356 123.501V108.586C686.356 107.719 685.653 107.016 684.785 107.016Z" fill="#4BD274"/>
<path d="M681.748 48.5091C681.748 48.7572 681.748 49.018 681.748 49.3007V51.308C681.748 51.4275 681.714 51.5445 681.65 51.6454C681.586 51.7463 681.494 51.8269 681.386 51.8777C681.278 51.9285 681.158 51.9474 681.039 51.9321C680.921 51.9169 680.809 51.8682 680.717 51.7917L678.832 50.2211C678.603 50.0326 678.408 49.8724 678.204 49.709C676.473 48.2201 674.834 47.485 673.04 47.397C672.467 47.3468 671.889 47.4183 671.346 47.6067C670.802 47.7952 670.305 48.0963 669.886 48.4905C669.467 48.8847 669.135 49.3629 668.914 49.8939C668.693 50.4249 668.586 50.9967 668.601 51.5719C668.579 53.5886 668.576 55.6556 668.573 57.6283C668.573 58.621 668.573 59.6136 668.573 60.6063C668.57 60.861 668.511 61.1119 668.4 61.3413C668.4 61.3413 668.381 61.379 668.369 61.4104L668.13 61.9979C668.083 62.1131 668.002 62.2116 667.899 62.281C667.795 62.3504 667.673 62.3874 667.549 62.3874H658.562C658.395 62.3874 658.235 62.3212 658.117 62.2034C657.999 62.0855 657.933 61.9258 657.933 61.7591V59.1424C657.933 57.9267 657.933 56.7236 657.933 55.5205C657.933 53.3215 656.818 51.7823 654.883 51.286C652.948 50.7897 651.271 51.6001 650.171 53.4378C649.941 53.8213 649.628 54.1481 649.254 54.3939C648.88 54.6397 648.456 54.7982 648.013 54.8577C647.165 54.9205 646.314 54.9111 645.5 54.9016C645.186 54.9016 644.872 54.9016 644.542 54.9016H643.599C643.433 54.9016 643.273 54.8354 643.155 54.7176C643.037 54.5998 642.971 54.44 642.971 54.2734V37.3354C642.971 37.1688 643.037 37.009 643.155 36.8912C643.273 36.7733 643.433 36.7072 643.599 36.7072H644.542H645.459C646.323 36.7072 647.215 36.7072 648.117 36.748C649.326 36.8265 650.045 37.948 650.177 38.171C651.038 39.638 652.376 40.4799 653.828 40.483C655.317 40.483 656.677 39.6192 657.569 38.1176C657.812 37.7223 658.146 37.391 658.543 37.1516C658.941 36.9122 659.39 36.7716 659.853 36.7417L661.719 36.7197C664.898 36.6852 668.187 36.6506 671.431 36.7574C676.922 36.9365 681.452 41.4505 681.744 47.0295C681.76 47.5196 681.754 47.997 681.748 48.5091Z" fill="#4BD274"/>
<path d="M582.664 130.173C582.664 134.141 582.62 137.942 582.686 141.74C582.718 143.593 584.216 145.032 586.066 145.195C586.418 145.23 586.773 145.217 587.125 145.217C619.267 145.217 651.413 145.217 683.563 145.217C684.911 145.217 686.237 145.082 687.047 143.929C687.573 143.168 687.897 142.286 687.989 141.366C688.134 139.613 688.024 137.841 688.04 136.076C688.04 134.656 688.731 133.896 689.924 133.908C691.118 133.921 691.775 134.665 691.784 136.107C691.784 137.91 691.812 139.713 691.784 141.517C691.766 143.481 690.978 145.361 689.588 146.75C688.199 148.139 686.32 148.928 684.355 148.946C679.495 148.999 674.636 148.946 669.773 148.946H586.981C582.765 148.946 579.702 146.514 579.002 142.616C578.918 142.074 578.884 141.525 578.898 140.976C578.898 130.715 578.898 120.444 578.898 110.163C578.898 108.102 579.463 107.553 581.571 107.55H590.09C590.125 107.235 590.182 106.972 590.182 106.714C590.182 94.5236 590.182 82.3311 590.182 70.1365C590.182 68.1764 589.208 66.8256 587.496 66.3136C585.925 65.8455 584.194 66.3513 583.377 67.768C582.93 68.5826 582.693 69.4962 582.689 70.4255C582.642 80.5782 582.658 90.731 582.658 100.896C582.658 101.289 582.68 101.685 582.658 102.071C582.597 102.521 582.375 102.933 582.034 103.233C581.693 103.532 581.256 103.699 580.802 103.701C580.348 103.704 579.908 103.543 579.564 103.247C579.219 102.952 578.993 102.542 578.926 102.093C578.915 101.897 578.915 101.701 578.926 101.506C578.926 91.0011 578.907 80.4934 578.926 69.9889C578.926 66.8884 580.393 64.5513 583.158 63.1848C585.922 61.8183 588.567 62.1545 591.011 63.9796C592.949 65.4277 593.838 67.4696 594.011 69.8789H605.254V68.6224C605.254 64.0361 605.254 59.4498 605.254 54.8635C605.284 54.5182 605.232 54.1707 605.103 53.8491C604.974 53.5276 604.77 53.2411 604.509 53.0132C603.714 52.3159 603.011 51.5211 602.25 50.7829C601.906 50.4901 601.663 50.0954 601.556 49.6556C601.45 49.2158 601.486 48.7537 601.66 48.3358C602.875 44.7757 604.062 41.2155 605.222 37.6554C605.593 36.5151 606.334 36.0376 607.506 36.0502C609.78 36.0784 612.054 36.0753 614.326 36.0502C615.463 36.0502 616.173 36.5308 616.525 37.6051C617.712 41.2113 618.903 44.8301 620.121 48.4112C620.278 48.7932 620.315 49.214 620.227 49.6175C620.139 50.021 619.93 50.3881 619.628 50.6698C619.554 50.761 619.471 50.8441 619.38 50.918C616.914 52.6206 616.27 54.942 616.465 57.8886C616.726 61.8278 616.528 65.7952 616.528 69.9261H617.699C621.582 69.9261 625.462 69.9009 629.341 69.9481C630.177 69.9481 630.598 69.6873 630.931 68.9397C631.729 67.1994 632.639 65.5063 633.481 63.7848C633.871 62.9869 634.424 62.4089 635.347 62.412C636.271 62.4152 636.827 62.9995 637.213 63.7911C638.093 65.5848 638.966 67.3816 639.905 69.1313C640.084 69.4706 640.556 69.8727 640.895 69.8758C645.205 69.9198 649.518 69.8946 653.828 69.8758C653.897 69.8758 653.966 69.8193 654.095 69.7627V66.2664C652.555 65.9523 652.21 64.8466 652.26 63.389C652.332 61.3126 652.288 59.233 652.26 57.1566C652.26 55.7933 651.632 54.9891 650.532 54.9075C649.433 54.8258 648.692 55.5357 648.494 56.8613C648.321 58.0111 647.661 58.6236 646.524 58.6393C644.055 58.6708 641.586 58.6802 639.117 58.6393C637.945 58.6205 637.232 57.8728 637.232 56.6823C637.209 50.4876 637.209 44.293 637.232 38.0983C637.232 36.8418 637.964 36.1161 639.208 36.0973C641.636 36.0596 644.068 36.0659 646.499 36.0973C647.715 36.0973 648.299 36.6941 648.513 37.9507C648.726 39.2072 649.383 39.8354 650.378 39.8354C651.374 39.8354 652.075 39.1381 652.263 37.9507C652.505 36.5716 653.071 36.0659 654.484 36.0659C658.797 36.0659 663.107 36.0187 667.42 36.0659C670.871 36.088 674.175 37.4673 676.617 39.9055C679.059 42.3437 680.444 45.6451 680.472 49.096C680.513 51.5274 680.472 53.9588 680.491 56.3902C680.491 57.4488 680.158 58.2749 679.093 58.5608C678.028 58.8467 677.394 58.2655 676.778 57.4111C675.647 55.7736 674.386 54.2294 673.008 52.7933C672.251 52.0363 671.099 51.562 670.04 51.2447C668.337 50.7295 667.307 51.6059 667.301 53.3933C667.301 56.8017 667.301 60.2131 667.301 63.6246C667.301 65.2832 667.053 65.6319 665.46 66.2507V69.8318H676.618C676.718 69.3041 676.803 68.7355 676.932 68.1764C677.348 66.4227 678.381 64.8769 679.841 63.821C681.302 62.7652 683.094 62.2696 684.889 62.4246C686.685 62.5796 688.365 63.3749 689.623 64.6654C690.882 65.956 691.634 67.6558 691.743 69.4549C691.765 69.8475 691.743 70.2402 691.743 70.6297V127.318C691.743 129.636 691.241 130.145 688.916 130.145H582.664V130.173ZM582.711 126.328H687.93V111.413H582.711V126.328ZM669.204 107.518H688.021V92.0723C688.021 84.8222 688.021 77.571 688.021 70.3187C688.021 68.4025 687.198 67.0643 685.693 66.4612C683.092 65.4214 680.504 67.2654 680.501 70.2056C680.488 80.5112 680.488 90.82 680.501 101.132C680.529 101.561 680.508 101.992 680.438 102.417C680.202 103.384 679.53 103.855 678.553 103.827C678.135 103.842 677.727 103.703 677.404 103.438C677.081 103.172 676.866 102.798 676.8 102.385C676.741 101.998 676.724 101.605 676.75 101.214C676.75 94.9812 676.75 88.7488 676.75 82.5164C676.75 82.1049 676.75 81.6966 676.75 81.3133H665.542V88.7739H666.55C668.695 88.7739 669.223 89.3268 669.223 91.5132C669.223 95.3937 669.223 99.268 669.223 103.136L669.204 107.518ZM663.446 62.3775C663.483 62.3083 663.512 62.2357 663.534 62.1607C663.534 59.1451 663.534 56.1294 663.569 53.1169C663.61 49.696 666.23 47.227 669.654 47.3903C672.025 47.5034 674.004 48.562 675.767 50.0793C676.04 50.3149 676.323 50.541 676.709 50.8677C676.709 50.0007 676.737 49.3348 676.709 48.6688C676.464 43.9568 672.625 40.0396 667.913 39.8731C664.078 39.7475 660.236 39.8229 656.4 39.8731C656.209 39.9013 656.026 39.9699 655.864 40.0745C655.701 40.179 655.563 40.3171 655.458 40.4794C652.995 44.6354 647.784 44.6636 645.356 40.5297C645.272 40.3721 645.157 40.2331 645.018 40.1208C644.88 40.0086 644.72 39.9254 644.548 39.8763C643.392 39.804 642.23 39.8449 641.074 39.8449V54.8886C642.255 54.8886 643.351 54.9389 644.438 54.8572C644.628 54.8181 644.808 54.7401 644.966 54.6282C645.125 54.5163 645.258 54.3729 645.359 54.2069C646.81 51.7504 649.204 50.6635 651.811 51.3326C654.418 52.0017 656.033 54.1787 656.039 57.0844C656.039 58.8341 656.039 60.5838 656.039 62.3775H663.446ZM650.394 107.543V106.262C650.394 101.21 650.394 96.1613 650.394 91.1142C650.394 89.4305 651.06 88.7865 652.747 88.7677C653.196 88.7677 653.645 88.7677 654.088 88.7677V81.3165H642.934V107.546L650.394 107.543ZM605.178 81.329H594.036V107.518H601.468C601.468 105.074 601.468 102.693 601.468 100.315C601.468 98.9832 601.993 98.3675 603.293 98.1696C604.39 98.0031 605.14 97.5099 605.213 96.3288C605.276 95.2827 604.584 94.6042 603.281 94.4095C602.206 94.2492 601.519 93.6807 601.487 92.5844C601.434 90.6682 601.437 88.7457 601.487 86.8295C601.515 85.73 602.26 85.0672 603.394 85.0075C603.969 84.9792 604.547 85.0075 605.178 85.0075V81.329ZM627.733 107.537V81.3353H616.584V85.0106H617.79C619.694 85.0106 620.282 85.6201 620.285 87.5645C620.285 89.0912 620.285 90.6179 620.285 92.1477C620.285 93.6147 619.782 94.1896 618.328 94.4189C617.256 94.5854 616.606 95.1477 616.537 96.2503C616.477 97.2272 617.137 97.9277 618.249 98.135C619.895 98.4649 620.282 98.9141 620.285 100.573C620.285 102.872 620.285 105.172 620.285 107.524L627.733 107.537ZM631.656 77.5375V107.496H639.045V77.5375H631.656ZM612.761 84.9541C612.761 75.4171 612.874 66.0151 612.695 56.6226C612.636 53.585 613.101 51.1002 615.676 49.2594C615.953 49.0615 616.091 48.361 615.991 47.9809C615.554 46.4416 615.004 44.9307 614.476 43.4197C614.065 42.2448 613.942 40.6302 613.107 40.0428C612.271 39.4553 610.697 39.87 609.447 39.848C609.369 39.848 609.268 39.8166 609.215 39.848C608.901 40.0805 608.389 40.2627 608.272 40.5831C607.594 42.4145 607.167 44.3527 606.344 46.1149C605.439 48.05 605.693 49.4604 607.443 50.6635C608.766 51.5745 609.045 52.8782 609.036 54.4488C608.976 64.1618 609.007 73.8716 609.007 83.5845V84.9478L612.761 84.9541ZM665.359 107.54V92.6315H654.214V107.54H665.359ZM616.521 107.54C616.521 105.841 616.481 104.239 616.54 102.637C616.569 101.911 616.317 101.559 615.686 101.198C611.916 99.0397 611.715 93.8314 615.406 91.6105C616.713 90.8221 616.587 89.9456 616.43 88.8336H605.351C605.093 90.6839 605.112 90.8189 605.854 91.2304C607.873 92.355 608.995 94.0576 608.973 96.3759C608.951 98.6942 607.833 100.306 605.832 101.377C605.691 101.452 605.568 101.557 605.472 101.685C605.376 101.812 605.309 101.959 605.276 102.115C605.225 103.906 605.247 105.696 605.247 107.54H616.521ZM661.596 88.7237V66.2884H657.977V88.7205L661.596 88.7237ZM616.581 77.4149H627.657L628.217 73.7867H616.594L616.581 77.4149ZM643.022 77.4149H654.054V73.7585H642.462C642.645 74.9553 642.827 76.1333 643.009 77.3992L643.022 77.4149ZM593.973 77.4149H605.153V73.8056H593.973V77.4149ZM676.681 73.8339H665.538V77.4526H676.681V73.8339ZM632.771 73.6988H637.917L635.341 68.5533C634.427 70.3564 633.632 71.9428 632.771 73.6674V73.6988Z" fill="#333333"/>
</g>
<defs>
<clipPath id="clip0_8980_40236">
<rect width="105.198" height="121" fill="white" transform="translate(20 32.0293)"/>
</clipPath>
<clipPath id="clip1_8980_40236">
<rect width="139.036" height="118.072" fill="white" transform="translate(284 33.6328)"/>
</clipPath>
<clipPath id="clip2_8980_40236">
<rect width="113.797" height="112.933" fill="white" transform="translate(578 36.0664)"/>
</clipPath>
</defs>
</svg>
